<?xml version="1.0" encoding="utf-8"?>
<!-- Generator: Adobe Illustrator 19.0.0, SVG Export Plug-In . SVG Version: 6.00 Build 0)  -->
<svg version="1.1" id="Layer_1" xmlns="http://www.w3.org/2000/svg" xmlns:xlink="http://www.w3.org/1999/xlink" x="0px" y="0px"
	 viewBox="-297 356.9 128 128" style="enable-background:new -297 356.9 128 128;" xml:space="preserve">
<style type="text/css">
	.st0{fill:#2B96E0;}
	.st1{fill:#2070A4;}
	.st2{fill:#227EBB;}
	.st3{fill:#FFFFFF;}
</style>
<g>
	<rect x="-297" y="356.9" class="st0" width="128" height="128"/>
	<g>
		<path class="st1" d="M-247,417.9h-30.2c-5.4,0-9.8-4.4-9.8-9.8v-30.2c0-5.4,4.4-9.8,9.8-9.8h30.2c5.4,0,9.8,4.4,9.8,9.8v30.2
			C-237.2,413.5-241.6,417.9-247,417.9z"/>
		<path class="st2" d="M-247,414.5h-30.2c-5.4,0-9.8-4.4-9.8-9.8v-30.2c0-5.4,4.4-9.8,9.8-9.8h30.2c5.4,0,9.8,4.4,9.8,9.8v30.2
			C-237.2,409.9-241.6,414.5-247,414.5z"/>
	</g>
	<g>
		<path class="st1" d="M-189,417.5h-30.2c-5.4,0-9.8-4.4-9.8-9.8v-30.2c0-5.4,4.4-9.8,9.8-9.8h30.2c5.4,0,9.8,4.4,9.8,9.8v30.2
			C-179.2,413.1-183.6,417.5-189,417.5z"/>
		<path class="st2" d="M-189,414.1h-30.2c-5.4,0-9.8-4.4-9.8-9.8v-30.2c0-5.4,4.4-9.8,9.8-9.8h30.2c5.4,0,9.8,4.4,9.8,9.8v30.2
			C-179.2,409.7-183.6,414.1-189,414.1z"/>
	</g>
	<g>
		<path class="st1" d="M-247,476.7h-30.2c-5.4,0-9.8-4.4-9.8-9.8v-30.2c0-5.4,4.4-9.8,9.8-9.8h30.2c5.4,0,9.8,4.4,9.8,9.8v30.2
			C-237.2,472.3-241.6,476.7-247,476.7z"/>
		<path class="st2" d="M-247,473.1h-30.2c-5.4,0-9.8-4.4-9.8-9.8v-30.2c0-5.4,4.4-9.8,9.8-9.8h30.2c5.4,0,9.8,4.4,9.8,9.8v30.2
			C-237.2,468.7-241.6,473.1-247,473.1z"/>
	</g>
	<g>
		<path class="st1" d="M-189,476.7h-30.2c-5.4,0-9.8-4.4-9.8-9.8v-30.2c0-5.4,4.4-9.8,9.8-9.8h30.2c5.4,0,9.8,4.4,9.8,9.8v30.2
			C-179.2,472.3-183.6,476.7-189,476.7z"/>
		<path class="st2" d="M-189,473.1h-30.2c-5.4,0-9.8-4.4-9.8-9.8v-30.2c0-5.4,4.4-9.8,9.8-9.8h30.2c5.4,0,9.8,4.4,9.8,9.8v30.2
			C-179.2,468.7-183.6,473.1-189,473.1z"/>
	</g>
	<g>
		<path class="st3" d="M-261.4,379.3c0.6,0,1,0,1.2,0.2c0.4,0.2,0.6,0.2,0.8,0.4c0.2,0.2,0.4,0.4,0.4,0.6c0,0.2,0.2,0.6,0.2,0.8
			c0,0.2,0,0.4,0,0.8v16.8c0,0.4,0,0.8,0,1s-0.2,0.4-0.2,0.8c0,0.4-0.4,0.6-0.8,0.6c-0.4,0-0.8,0.2-1.6,0.2c-0.6,0-1.2,0-1.6-0.2
			c-0.4-0.2-0.6-0.4-0.8-0.6c-0.2-0.2-0.2-0.6-0.2-0.8s0-0.6,0-1v-10.8l-0.4,0.4c-0.8,0.6-1.6,1-2,1c-0.6,0-1.2-0.2-1.8-0.8
			c-0.8-0.8-1-1.4-1-2c0-0.6,0.4-1,1-1.8l5-4.4l0,0C-262.8,379.7-262.2,379.3-261.4,379.3z"/>
	</g>
	<g>
		<path class="st3" d="M-197.6,396.1c0.4,0,0.8,0,1,0c0.2,0,0.4,0.2,0.8,0.2c0.4,0,0.4,0.4,0.6,0.8c0.2,0.4,0.2,1,0.2,1.6
			c0,0.6,0,1.2-0.2,1.6s-0.4,0.6-0.6,0.8c-0.2,0.2-0.6,0.2-0.8,0.2c-0.2,0-0.6,0-1,0h-11.8c-0.8,0-1.4-0.2-1.8-0.8
			c-0.6-0.6-0.8-1.2-0.8-1.8c0-1,0.4-2,1.2-3c0.8-1,1.6-1.6,2.8-2.4c1-0.6,2.2-1.2,3.2-2c1-0.6,2-1.4,2.8-2.2
			c0.8-0.8,1.2-1.6,1.2-2.6v-0.2c0-0.2,0-0.4-0.2-0.6c-0.2-0.2-0.2-0.6-0.4-0.8c-0.2-0.2-0.4-0.4-0.8-0.6s-0.8-0.2-1.2-0.2
			c-0.8,0-1.4,0.2-2,0.8c-0.4,0.4-0.8,1-0.8,1.4l-0.2,0.6v0.2c0,0.4,0,0.8,0,1c0,0.2-0.2,0.4-0.2,0.8c-0.2,0.2-0.4,0.4-0.8,0.6
			c-0.4,0.2-0.8,0.2-1.6,0.2c-0.6,0-1,0-1.2-0.2c-0.2-0.2-0.6-0.2-0.8-0.4c-0.2-0.2-0.4-0.4-0.4-0.6c0-0.2-0.2-0.4-0.2-0.6
			s0-0.4,0-0.8c0-2,0.8-4,2.2-5.6s3.4-2.4,5.8-2.4c2.4,0,4.4,0.8,5.8,2.6c1.4,1.8,2.2,3.6,2.2,5.8c0,1.2-0.2,2.2-0.8,3.2
			c-0.4,1-1.2,1.8-1.8,2.4c-0.8,0.6-1.4,1.2-2.2,1.6c-0.8,0.4-1.4,0.8-1.8,1l-0.8,0.2v0.2H-197.6z"/>
	</g>
	<g>
		<path class="st3" d="M-253.4,454.1c0,2.2-0.8,4-2.4,5.2c-1.6,1.4-3.6,2-6,2c-1,0-1.8-0.2-2.6-0.2c-0.8-0.2-1.4-0.4-2-0.8
			s-1-0.6-1.4-1c-0.4-0.4-0.8-0.8-1-1.2c-0.2-0.4-0.4-0.8-0.6-1c-0.2-0.4-0.2-0.6-0.4-0.8v-0.2c-0.2-0.6-0.4-1.2-0.4-1.6
			c0-1.2,1-1.8,3-1.8c0.8,0,1.4,0.2,1.6,0.2c0.2,0.2,0.6,0.6,0.8,1.2v0.2v0.2c0,0,0.2,0.2,0.2,0.4c0.2,0.2,0.4,0.4,0.6,0.6
			c0.2,0.2,0.4,0.4,0.8,0.4c0.4,0,0.8,0.2,1.2,0.2c1,0,1.8-0.2,2.4-0.6c0.4-0.4,0.8-1,0.8-1.4c0-0.6-0.2-1-0.8-1.4
			c-0.4-0.4-1.2-0.6-2-0.6c-0.4,0-0.8,0-1,0c-0.2,0-0.6-0.2-0.8-0.2c-0.2,0-0.4-0.4-0.6-0.8c-0.2-0.4-0.2-0.8-0.2-1.6
			c0-0.6,0-1,0.2-1.2c0-0.4,0.2-0.6,0.4-0.8c0.2-0.2,0.4-0.4,0.6-0.4c0.2,0,0.4-0.2,0.6-0.2c0.2,0,0.4,0,0.8,0
			c1.6,0,2.2-0.4,2.2-1.2c0-0.4-0.2-0.8-0.6-1.2c-0.4-0.4-1-0.6-1.8-0.6c-0.6,0-1.2,0.2-1.6,0.4s-0.6,0.4-0.8,0.8l-0.2,0.4
			c-0.4,1-1.2,1.6-2,1.6c-0.4,0-1-0.2-1.6-0.6c-1-0.6-1.6-1.2-1.6-2c0-0.4,0.2-1,0.6-1.6c0-0.2,0-0.2,0.2-0.4c0-0.2,0.2-0.4,0.6-1
			c0.4-0.6,0.8-0.8,1.2-1.2s1.2-0.6,2-1c0.8-0.2,1.8-0.4,2.8-0.4c2.4,0,4.4,0.8,5.8,2c1.4,1.4,2.2,3,2.2,4.6c0,0.6,0,1-0.2,1.6
			c-0.2,0.4-0.4,0.8-0.6,1.2c-0.2,0.2-0.4,0.4-0.6,0.6c-0.2,0.2-0.4,0.4-0.6,0.4l-0.2,0.2v0.2l0.2,0.2c0.2,0,0.4,0.2,0.6,0.6
			c0.4,0.2,0.6,0.6,0.8,1c0.2,0.4,0.4,0.8,0.6,1.2C-253.4,452.9-253.4,453.5-253.4,454.1z"/>
	</g>
	<g>
		<path class="st3" d="M-199,439.1c0.6,0,1.2,0,1.6,0.2c0.4,0.2,0.6,0.4,0.8,0.6c0.2,0.2,0.2,0.6,0.2,0.8s0,0.6,0,1v16.6
			c0,0.4,0,0.8,0,1s-0.2,0.6-0.2,0.8c-0.2,0.2-0.4,0.4-0.8,0.6c-0.4,0.2-1,0.2-1.6,0.2s-1,0-1.2-0.2c-0.4,0-0.6-0.2-0.8-0.4
			c-0.2-0.2-0.4-0.4-0.4-0.6c0-0.2-0.2-0.4-0.2-0.6c0-0.2,0-0.4,0-0.8v-3.6h-8.2c-0.6,0-1,0-1.2-0.2c-0.4-0.2-0.6-0.2-0.8-0.4
			c-0.2-0.2-0.4-0.4-0.4-0.6s-0.2-0.4-0.2-0.6c0-0.2,0-0.4,0-0.8c0-0.4,0-0.8,0-1l2.4-10c0.2-0.4,0.2-0.8,0.4-1
			c0-0.2,0.2-0.4,0.6-0.6c0.2-0.2,0.6-0.4,1-0.4c0.4,0,0.8,0,1.4,0.2c1.4,0.4,2.2,1,2.2,2c0,0.4,0,0.8-0.2,1.2l0,0l0,0l-1.8,7.4h4.8
			v-8.2c0-0.4,0-0.8,0-1c0-0.2,0.2-0.4,0.2-0.8c0.2-0.2,0.4-0.4,0.8-0.6C-200,439.1-199.6,439.1-199,439.1z"/>
	</g>
</g>
</svg>
