<?xml version="1.0" encoding="utf-8"?>
<!-- Generator: Adobe Illustrator 19.0.0, SVG Export Plug-In . SVG Version: 6.00 Build 0)  -->
<svg version="1.1" xmlns="http://www.w3.org/2000/svg" xmlns:xlink="http://www.w3.org/1999/xlink" x="0px" y="0px"
	 viewBox="0 0 128 128" style="enable-background:new 0 0 128 128;" xml:space="preserve">
<style type="text/css">
	.st0{fill:#01B3C9;}
	.st1{opacity:0.2;fill:#B8D9E2;}
	.st2{fill:#0B7284;}
	.st3{fill:#006A7D;}
	.st4{fill:#FFFFFF;}
	.st5{fill:#1E1E1E;}
	.st6{opacity:0.1;fill:#FFFFFF;}
	.st7{opacity:5.000000e-02;fill:#FFFFFF;}
</style>
<g id="Layer_1">
</g>
<g id="Layer_2">
	<rect id="XMLID_2_" class="st0" width="128" height="128"/>
	<path id="XMLID_13_" class="st1" d="M0,67.8c0,0,26.1-21,64-3.8c47,21.3,64-7.5,64-7.5V128H0V67.8z"/>
	<g id="XMLID_1_">
		<path id="XMLID_3_" class="st2" d="M97.6,97.2c0,0-15.2-2.3-23.2-9.5c1.8-5.1-5.1-5.3-5.1-5.3s-15.1-33.2-16.5-46
			S42.8,8.9,37.2,6.8c-4.1-1.5-24,11-23.8,14.3c0.1,3.3,6.4,20.1,7.7,21.2c-7.5-6.7-7.8-17.6-9.3-16.8c-5.4,2.9,6.1,33.4,25.2,54
			c-6.2,4.4,1,17.8,1,17.8s5.9-0.9,5.8-9.8c6.2,10.4,32.5,25.4,57.4,17.6c8.9,8.4,24.2,6.2,24.2,6.2s-4.4-0.8-5.8-3
			c-1.2-1.9-6.2-9-13-10.2c5.9-3.5,3.8-9.5,6.2-10.9c2.2-1.2,4.2,0,4.2,0S108.2,78.7,97.6,97.2z"/>
		<g id="XMLID_7_">
			<path id="XMLID_11_" class="st3" d="M41.8,79.1c0.3,0.1,0.4,0.1,0.4,0.1S42.1,79.1,41.8,79.1z"/>
			<path id="XMLID_12_" class="st3" d="M38.2,80.6c2-1.4,3.1-1.5,3.7-1.5c-3.4,0.4-10.8-6.4-14.3-11.3c2.2,2.9,7,9.1,9.4,11.7
				c-6.2,4.4,1,17.8,1,17.8S33.3,85.6,38.2,80.6z"/>
		</g>
		<g id="XMLID_5_">
			<path id="XMLID_9_" class="st3" d="M43.6,87.5c6.2,10.4,32.5,25.4,57.4,17.6c8.9,8.4,24.2,6.2,24.2,6.2s-23.4-2.2-23.7-8.4
				c-13,3.2-22.7,2.2-31.4-0.5c-12.9-4.1-27.3-19.5-27.3-19.5s0.1,11.5-4.9,14.4C37.9,97.3,43.8,96.4,43.6,87.5z"/>
		</g>
		<path id="XMLID_6_" class="st3" d="M11.7,25.5c0,0,0.2,6.8,2.9,11.4s6.6,7.8,6.6,7.8L21,42.3c0,0-4.6-5.2-5.4-7.4
			S13.1,24.6,11.7,25.5z"/>
		<circle id="XMLID_4_" class="st4" cx="26.2" cy="46.8" r="2.2"/>
		<circle id="XMLID_8_" class="st5" cx="26.2" cy="46.8" r="0.9"/>
	</g>
	<polygon id="XMLID_10_" class="st6" points="128,0 0,115 0,56.5 113.3,0 	"/>
	<polygon id="XMLID_14_" class="st7" points="128,0 37.9,128 73,128 128,17.3 	"/>
</g>
</svg>
