<?xml version="1.0" encoding="utf-8"?>
<!-- Generator: Adobe Illustrator 19.0.0, SVG Export Plug-In . SVG Version: 6.00 Build 0)  -->
<svg version="1.1" id="Layer_1" xmlns="http://www.w3.org/2000/svg" xmlns:xlink="http://www.w3.org/1999/xlink" x="0px" y="0px"
	 viewBox="0 0 128 128" style="enable-background:new 0 0 128 128;" xml:space="preserve">
<style type="text/css">
	.st0{fill:#FCD700;}
	.st1{fill:#F9B200;}
	.st2{fill:#AA1322;}
	.st3{fill:#980613;}
	.st4{fill:#070405;}
	.st5{fill:#FC7A7A;}
	.st6{fill:#E8484A;}
	.st7{fill:#EB3535;}
	.st8{fill:#F9AAAA;}
	.st9{fill:#F10406;}
	.st10{fill:#F94646;}
	.st11{fill:#FB2C2C;}
	.st12{fill:#BC2929;}
	.st13{fill:#F2F3F2;}
	.st14{fill:#0581EF;}
	.st15{fill:#C8C8C8;}
	.st16{fill:#3A9D1C;}
</style>
<rect class="st0" width="128" height="128"/>
<polygon class="st1" points="128,0 0,128 128,128 "/>
<g>
	<g>
		<g>
			<path class="st2" d="M6.2,23.1C9,17.3,13,12.8,19.4,10.9c0.4-0.1,0.7-0.4,0.9-0.7c2.9-4.6,7.4-5.5,12.3-5.6c5-0.1,10-0.5,13.6,4
				c0.5,0.6,1.9,0.5,2.8,0.9c3.6,1.3,6.8,3.2,8.9,6.5c-2.1,0-3.8-1.7-6-1.2c-1.1-2.3-3.5-3.2-6.4-2.4c-0.2-0.2-0.5-0.3-0.7-0.5
				c-0.8-1.5-0.8-3.7-3.3-3.6c-0.2-0.3-0.4-0.9-0.6-0.9c-5.6-1.1-11.1-1.6-16.2,1.5c-2,1-2.7,2.6-2.5,4.7c-0.5,0.4-1,0.9-1.8,0.9
				c-2.2-1.3-3.3,0.5-4.7,1.5c-0.2,0.2-0.4,0.4-0.7,0.5c-3.2,1.7-4.7,4.5-5.8,7.8C7.6,29,9.5,33.7,9.3,38.5C9.5,41,9.4,43.6,9.9,46
				c0.6,3,1.2,6.2,4.1,8.1c-0.1,1.2,0.2,2.4-0.5,3.5C9.8,54.8,8,51,7.3,46.6c-0.3-2.3,0.1-4.7-1.1-6.8C6.2,34.2,6.2,28.7,6.2,23.1z"
				/>
			<path class="st3" d="M52,14.8c2.2-0.5,3.9,1.2,6,1.2c4,3.7,7.6,7.6,8.9,13.1c0,2.6,0,5.2,0,7.7c-0.9,3-2.4,5.7-4,8.4
				c-1.6,0.6-2.4,2.1-3.8,2.9c-0.9,0-1.2,0.8-1.8,1.2c-0.2,0.2-0.4,0.4-0.6,0.6c0,0,0-0.1,0-0.1c-8.4,2.1-16.9,1.6-25.5,0.6
				c-0.2-0.2-0.5-0.3-0.7-0.5c-0.2,0-0.3,0-0.5-0.1c-0.2-0.3-0.4-0.7-0.8-0.9c-9.1-4.6-12.7-17.6-5.9-26.7c0.5-0.7,0.8-1.4,0.7-2.2
				c2.4-2.2,5.3-3.5,8.2-4.8c3-0.8,6-1.2,9.1-1.2c2.4,0,4.7-0.1,7.1-0.1C49.6,14.2,50.8,14.5,52,14.8z M42.9,49.3
				C42.9,49.3,42.9,49.3,42.9,49.3c2.1-0.1,4.2,0,6.2-0.1c8-0.1,15.2-6.1,15.9-13.2c1.1-9.8-3.8-17.6-12.5-19.4
				c-5.6-1.2-11.4-1.1-17.1-0.1c-8.7,1.5-14.6,9.2-13.9,18.1c0.7,8.1,8.7,15.6,16.5,14.7C39.7,49.2,41.3,49.3,42.9,49.3z"/>
			<path class="st2" d="M50.2,61c-1.4,0.3-2.8,0.6-4.2,0.9C38.3,63,30.6,63,22.8,63c0,0,0.1,0,0.1,0c-0.2-0.2-0.3-0.3-0.5-0.5
				c-1.5-0.6-3-1.2-4.4-1.8c0.1-0.7,0-1.5,0.8-1.9c6,1.9,12.2,2.4,18.4,1.2c4.5,0.3,8.9-0.6,12.9-2.3c4.3-1.8,8.3-4.4,9.1-9.6
				c1.4-0.8,2.2-2.3,3.8-2.9c-0.4,6.4-4.4,10.4-9.1,14C52.6,59.8,51.4,60.4,50.2,61z"/>
			<path class="st4" d="M50.2,61c1.2-0.6,2.4-1.2,3.6-1.8c-0.1,1,0,2-0.2,2.9c-0.3,1.6-0.8,3,0.2,4.7c0.6,1,0.2,2.7-1.1,3.6
				c-1.4-0.1-2.7-0.2-4.1-0.3c0.2-2-1.1-4.4,1.5-6C50.6,63.8,50.2,62,50.2,61z"/>
			<path class="st5" d="M32.2,15.3c-2.9,1.4-5.8,2.6-8.2,4.8c-4.5,3.2-6.4,7.7-6.6,13c-0.8,0-1.5,0-2.3,0c0.2-2.7-1.1-5.3-0.5-7.9
				c0.7-2.9,0.5-5.9,0.3-8.8c0.2-0.2,0.4-0.4,0.7-0.5c0.1,0.6,0.2,1.2,1.1,0.7c1.2-0.7,2.8-1,3.7-2.3c0.7,0,1.3-0.4,1.8-0.9
				c1.4,1,2.3,0.8,2.7-1c0.2-1,0.6-2,0.9-3.1c0.7,0,1.3,0.1,2,0.1c-0.3,4.6-0.3,4.6,4.3,5.5C32.1,15.1,32.2,15.2,32.2,15.3z"/>
			<path class="st6" d="M15,16.4c0.1,2.9,0.3,5.9-0.3,8.8c-0.6,2.6,0.7,5.2,0.5,7.9c0,0.8,0,1.7,0,2.5c-2.1,0-4.5-0.2-4.2,3.1
				c-0.6-0.1-1.1-0.1-1.7-0.2c0.2-4.8-1.7-9.5-0.1-14.3C10.3,21,11.8,18.1,15,16.4z"/>
			<path class="st4" d="M18.7,58.8c-0.8,0.4-0.6,1.2-0.8,1.9c-0.8,2-1,3.8,1,5.5c1.4,1.2-0.2,3,0.4,4.5c-1.3,0.7-2.8,0.5-4.2,0.6
				c-1.2-1.5-1.9-3-0.5-4.8c0.7-0.9-0.1-1.9-0.2-2.8c-0.2-2-0.7-4.1-1-6.1c0.7-1.1,0.4-2.3,0.5-3.5c0.1-0.6,0.3-1.2,0.4-1.8
				c0.2-1.8,1.2-2.2,2.9-2.1c3.5,0.4,4.3,2.4,2.4,6.2c-0.1,0.2-0.2,0.4-0.3,0.6C18.7,57.4,18.7,58.1,18.7,58.8z"/>
			<path class="st7" d="M32.2,15.3c-0.1-0.1-0.1-0.2-0.2-0.2c-4.5-0.9-4.5-0.9-4.3-5.5c4.7,0.9,9.3,0,13.8-1.4
				c2.5-0.1,2.6,2.1,3.3,3.6c0,0.2,0,0.4-0.1,0.5c-0.2,0-0.3,0.1-0.4,0.1c-1.2,0.1-2.2,0.6-3,1.6C38.3,14.1,35.2,14.5,32.2,15.3z"/>
			<path class="st8" d="M41.5,8.2c-4.5,1.4-9,2.3-13.8,1.4c-0.7,0-1.3-0.1-2-0.1c-0.4-0.2-0.7-0.4-1.1-0.7
				c5.2-3.1,10.7-2.7,16.2-1.5C41.2,7.3,41.3,7.9,41.5,8.2z"/>
			<path class="st9" d="M14.3,52.3c-0.1,0.6-0.3,1.2-0.4,1.8c-2.9-1.9-3.5-5.1-4.1-8.1c-0.4-2.5-0.4-5-0.6-7.5
				c0.6,0.1,1.1,0.1,1.7,0.2c0,4.1-0.3,8.3,2.3,11.9C13.3,51.3,13.8,51.8,14.3,52.3z"/>
			<path class="st7" d="M24.7,8.8c0.4,0.2,0.7,0.4,1.1,0.7c-0.3,1-0.7,2-0.9,3.1c-0.4,1.8-1.3,2-2.7,1C22.1,11.4,22.7,9.8,24.7,8.8z
				"/>
			<path class="st8" d="M44.4,12.5c0.1-0.1,0.3-0.1,0.4-0.1c0.3,0,0.5,0,0.8,0c2.9-0.7,5.3,0.2,6.4,2.4c-1.2-0.3-2.3-0.5-3.5-0.8
				C47.3,12.8,45.6,13.4,44.4,12.5z"/>
			<path class="st8" d="M20.4,14.4c-0.9,1.3-2.4,1.5-3.7,2.3c-0.8,0.5-1-0.1-1.1-0.7C17.1,14.9,18.2,13.1,20.4,14.4z"/>
			<path class="st5" d="M45.6,12.3c-0.3,0-0.5,0-0.8,0c0-0.2,0-0.4,0.1-0.5C45.1,12,45.3,12.1,45.6,12.3z"/>
			<path class="st10" d="M42.9,49.3c-1.6,0-3.2-0.2-4.7,0c-7.8,0.9-15.8-6.6-16.5-14.7c-0.8-8.9,5.1-16.6,13.9-18.1
				c5.7-1,11.4-1.1,17.1,0.1c8.6,1.8,13.5,9.6,12.5,19.4c-0.8,7.2-7.9,13.1-15.9,13.2C47.1,49.3,45,49.3,42.9,49.3
				C42.9,49.3,42.9,49.3,42.9,49.3z M43.6,46.1c2.2,0,4.4,0.2,6.5,0c6.4-0.7,11.2-6,11.7-12.6c0.5-5.9-3.7-11.7-9.7-13.3
				c-5.6-1.5-11.3-1.2-16.7,0.3c-4.8,1.4-7.9,5.1-8.8,9.9c-1,4.9,0.2,9.3,4.4,12.7C34.8,46.2,39.1,46.5,43.6,46.1z"/>
			<path class="st11" d="M30,49.9c0.2,0,0.3,0.1,0.5,0.1c0.2,0.2,0.5,0.3,0.7,0.5c8.5,1,17,1.5,25.5-0.6c-0.6,1.9-1.9,3.2-3.5,4.2
				c-5.6,3.9-12.2,3.7-18.5,4.8c-1,0-2-0.1-3-0.1c-2.8-1.4-5.1-3.6-8.2-4.6c-0.3-2.3-1.7-4.8,1.1-6.5C26.4,48.5,27.9,50,30,49.9z"/>
			<path class="st12" d="M30,49.9c-2.2,0.1-3.7-1.4-5.4-2.3c-5-3.5-7.1-8.5-7.2-14.4c0.2-5.3,2.1-9.9,6.6-13
				c0.1,0.8-0.1,1.5-0.7,2.2c-6.9,9.1-3.3,22,5.9,26.7C29.6,49.2,29.8,49.6,30,49.9z"/>
			<path class="st6" d="M34.7,58.8c6.3-1.1,12.9-0.9,18.5-4.8c1.6-1.1,2.9-2.3,3.5-4.2c0,0,0,0.1,0,0.1c0.2-0.2,0.4-0.4,0.6-0.6
				c0.6-0.5,0.9-1.3,1.8-1.2c-0.8,5.3-4.7,7.9-9.1,9.6c-4.1,1.7-8.4,2.6-12.9,2.3C36.3,59.6,35.5,59.2,34.7,58.8z"/>
			<path class="st5" d="M44.4,12.5c1.2,0.9,3,0.3,4.1,1.4c-2.4,0-4.7,0.1-7.1,0.1C42.1,13,43.2,12.6,44.4,12.5z"/>
			<path class="st11" d="M57.3,49.3c-0.2,0.2-0.4,0.4-0.6,0.6C56.9,49.7,57.1,49.5,57.3,49.3z"/>
			<path class="st12" d="M31.2,50.4c-0.2-0.2-0.5-0.3-0.7-0.5C30.8,50.1,31,50.3,31.2,50.4z"/>
			<path class="st4" d="M22.8,63c7.7,0,15.5,0,23.2-1.1c-1.3,2.2-3.8,3.9-2.7,7c0,1.6,0,3.2-0.1,4.8c-0.1,0.1-0.2,0.3-0.2,0.5
				c-2.3,1.2-3,0.2-3-2.1c0-1.4,0.7-3.3-0.3-4.2c-0.6-0.5-2.4,0.4-3.7,0.6c-2.4,0.2-4.7,0.1-7.3-0.9c0,1.7,0,3.2,0,4.6
				c0,0.9,0.1,1.8-0.9,2.3c-1.2,0.6-1.8-0.2-2.6-0.9c0-0.8,0-1.6-0.1-2.4c0.2-0.6,0.2-1.2,0-1.8C26.1,66.7,24.7,64.7,22.8,63z"/>
			<path class="st4" d="M22.4,62.5c0.2,0.2,0.3,0.3,0.5,0.5C22.7,62.8,22.6,62.7,22.4,62.5z"/>
			<path class="st9" d="M34.7,58.8c0.8,0.4,1.6,0.8,2.4,1.2c-6.2,1.2-12.4,0.7-18.4-1.2c0-0.7-0.1-1.4,0.5-1.8
				c4,1.6,8.2,1.6,12.4,1.8C32.7,58.7,33.7,58.8,34.7,58.8z"/>
			<path class="st10" d="M17.4,33.2c0.1,5.9,2.2,10.9,7.2,14.4c-2.8,1.8-1.4,4.3-1.1,6.5c-0.5,2.2-2.2,2.3-4,2.3
				c1.9-3.7,1.1-5.8-2.4-6.2c-1.6-0.2-2.7,0.3-2.9,2.1c-0.6-0.4-1-1-1-1.7c-0.2-2.5,0.5-4,3.4-3.7c0.9,0.1,2.4,0.2,1.5-1.5
				c-1.6-3.1-2-6.5-3.1-9.8c0-0.8,0-1.6,0-2.5C15.9,33.1,16.7,33.2,17.4,33.2z"/>
			<path class="st7" d="M15.1,35.6c1.1,3.3,1.5,6.7,3.1,9.8c0.9,1.7-0.6,1.6-1.5,1.5c-2.9-0.4-3.7,1.2-3.4,3.7
				c-2.7-3.6-2.3-7.8-2.3-11.9C10.7,35.4,13,35.6,15.1,35.6z"/>
			<path class="st12" d="M19.5,56.4c1.7,0,3.5-0.1,4-2.3c3,1,5.4,3.2,8.2,4.6c-4.2-0.1-8.4-0.2-12.4-1.8
				C19.4,56.8,19.5,56.6,19.5,56.4z"/>
			<path class="st4" d="M43.6,46.1c-4.5,0.5-8.8,0.1-12.6-2.9c-4.2-3.4-5.4-7.8-4.4-12.7c1-4.9,4-8.6,8.8-9.9
				c5.5-1.6,11.1-1.8,16.7-0.3c6.1,1.6,10.2,7.4,9.7,13.3c-0.5,6.7-5.3,12-11.7,12.6C48,46.2,45.8,46.1,43.6,46.1z M36.7,38.4
				c1.9,2.8,3.3,3,5.3,0.7c0.5,0,1,0,1.6,0c1.5,1.6,3,2.5,4.4,0c3.2,0.7,5.8-1,8.5-2.2c0.8-0.3,1.9-0.7,1.4-1.8
				c-0.5-1.2-1.6-0.4-2.3-0.1c-6,2.3-12.2,2.2-18.4,1.1c-1.7-0.3-3.3-0.8-4.9-1.2c-0.7-0.2-1.5-0.3-1.7,0.7
				c-0.2,0.9,0.5,1.2,1.2,1.4C33.5,37.5,35.1,37.9,36.7,38.4z M47.2,25.4c-0.2-0.1-0.5-0.3-0.7,0c-1.5,2-1.5,4.9,0.2,6.5
				c1.8,1.8,4.1,2.6,6.4,1.3c2.3-1.3,3.3-3.4,2.6-6c-0.6-2-1.9-3.4-4.1-3.8C49.6,23.1,48.2,23.8,47.2,25.4L47.2,25.4z M42.6,32.1
				c2.5-2.3,1.3-5.4-0.6-7.1c-2-1.8-5.4-1.6-7.2,0.4c-1.8,2-1.8,5.4,0.1,7.2c2.3,2.3,4.7,2.4,7.1,0.1C42.1,32.5,42.4,32.3,42.6,32.1
				z"/>
			<path class="st13" d="M41.9,32.7c-2.4,2.2-4.8,2.2-7.1-0.1c-1.8-1.9-1.9-5.3-0.1-7.2c1.8-1.9,5.2-2.1,7.2-0.4
				c1.9,1.7,3.1,4.9,0.6,7.1l0,0c0-0.5-0.1-0.9-0.1-1.4c-0.1-1.1-0.6-1.8-1.9-1.7c-1.1,0.1-1.6,0.6-1.7,1.7
				c-0.1,1.3,0.6,1.7,1.7,1.9C41,32.6,41.5,32.2,41.9,32.7L41.9,32.7z"/>
			<path class="st13" d="M47.2,25.4c1-1.7,2.4-2.3,4.4-2c2.2,0.4,3.5,1.8,4.1,3.8c0.8,2.6-0.3,4.7-2.6,6c-2.4,1.3-4.6,0.6-6.4-1.3
				c-1.6-1.6-1.6-4.6-0.2-6.5C46.7,25.1,47,25.3,47.2,25.4c0,0.4-0.1,0.8-0.1,1.1c-0.2,1.3,0,2.4,1.6,2.6c1.2,0.1,2-0.5,2-1.6
				c0.1-1.5-0.9-2.1-2.3-2C48,25.6,47.6,25.5,47.2,25.4z"/>
			<path class="st14" d="M43.7,39.1c-0.5,0-1,0-1.6,0c-1.7-0.7-3.5-0.6-5.3-0.7c-1.6-0.5-3.2-0.9-4.8-1.4c-0.7-0.2-1.4-0.5-1.2-1.4
				c0.2-0.9,1-0.8,1.7-0.7c1.6,0.4,3.2,0.9,4.9,1.2c6.2,1.1,12.4,1.2,18.4-1.1c0.7-0.3,1.8-1.1,2.3,0.1c0.5,1.1-0.6,1.5-1.4,1.8
				c-2.7,1.2-5.3,2.9-8.5,2.2C46.6,38.5,45.1,38.5,43.7,39.1z"/>
			<path class="st13" d="M36.7,38.4c1.8,0.1,3.6,0,5.3,0.7C40,41.4,38.6,41.2,36.7,38.4z"/>
			<path class="st15" d="M43.7,39.1c1.5-0.6,3-0.6,4.4,0C46.6,41.6,45.1,40.7,43.7,39.1z"/>
			<path class="st13" d="M42.6,32.1c-0.2,0.2-0.4,0.4-0.6,0.6c0,0,0,0,0,0C41.6,32,41.9,31.9,42.6,32.1L42.6,32.1z"/>
			<path class="st16" d="M42.5,32.1c-0.6-0.2-0.9-0.1-0.6,0.6c-0.4-0.5-0.9,0-1.3-0.1c-1.1-0.2-1.8-0.6-1.7-1.9
				c0.1-1,0.6-1.6,1.7-1.7c1.3-0.1,1.7,0.6,1.9,1.7C42.5,31.1,42.5,31.6,42.5,32.1z"/>
			<path class="st16" d="M47.2,25.4c0.4,0,0.8,0.1,1.2,0.1c1.4-0.1,2.4,0.5,2.3,2c-0.1,1.1-0.8,1.8-2,1.6C47,29,46.8,27.9,47,26.6
				C47.1,26.2,47.1,25.8,47.2,25.4C47.2,25.4,47.2,25.4,47.2,25.4z"/>
		</g>
	</g>
</g>
<g>
	<g>
		<g>
			<path class="st2" d="M61.9,72.1c2.8-5.8,6.8-10.3,13.2-12.2c0.4-0.1,0.7-0.4,0.9-0.7c2.9-4.6,7.4-5.5,12.3-5.6
				c5-0.1,10-0.5,13.6,4c0.5,0.6,1.9,0.5,2.8,0.9c3.6,1.3,6.8,3.2,8.9,6.5c-2.1,0-3.8-1.7-6-1.2c-1.1-2.3-3.5-3.2-6.4-2.4
				c-0.2-0.2-0.5-0.3-0.7-0.5c-0.8-1.5-0.8-3.7-3.3-3.6c-0.2-0.3-0.4-0.9-0.6-0.9c-5.6-1.1-11.1-1.6-16.2,1.5c-2,1-2.7,2.6-2.5,4.7
				c-0.5,0.4-1,0.9-1.8,0.9c-2.2-1.3-3.3,0.5-4.7,1.5c-0.2,0.2-0.4,0.4-0.7,0.5c-3.2,1.7-4.7,4.5-5.8,7.8c-1.6,4.8,0.3,9.5,0.1,14.3
				c0.2,2.5,0.2,5.1,0.6,7.5c0.6,3,1.2,6.2,4.1,8.1c-0.1,1.2,0.2,2.4-0.5,3.5c-3.6-2.8-5.4-6.6-6.1-11.1c-0.3-2.3,0.1-4.7-1.1-6.8
				C61.9,83.2,61.9,77.6,61.9,72.1z"/>
			<path class="st3" d="M107.6,63.7c2.2-0.5,3.9,1.2,6,1.2c4,3.7,7.6,7.6,8.9,13.1c0,2.6,0,5.2,0,7.7c-0.9,3-2.4,5.7-4,8.4
				c-1.6,0.6-2.4,2.1-3.8,2.9c-0.9,0-1.2,0.8-1.8,1.2c-0.2,0.2-0.4,0.4-0.6,0.6c0,0,0-0.1,0-0.1c-8.4,2.1-16.9,1.6-25.5,0.6
				c-0.2-0.2-0.5-0.3-0.7-0.5c-0.2,0-0.3,0-0.5-0.1c-0.2-0.3-0.4-0.7-0.8-0.9c-9.1-4.6-12.7-17.6-5.9-26.7c0.5-0.7,0.8-1.4,0.7-2.2
				c2.4-2.2,5.3-3.5,8.2-4.8c3-0.8,6-1.2,9.1-1.2c2.4,0,4.7-0.1,7.1-0.1C105.3,63.2,106.5,63.4,107.6,63.7z M98.6,98.3
				C98.6,98.3,98.6,98.3,98.6,98.3c2.1-0.1,4.2,0,6.2-0.1c8-0.1,15.2-6.1,15.9-13.2c1.1-9.8-3.8-17.6-12.5-19.4
				c-5.6-1.2-11.4-1.1-17.1-0.1c-8.7,1.5-14.6,9.2-13.9,18.1c0.7,8.1,8.7,15.6,16.5,14.7C95.4,98.1,97,98.3,98.6,98.3z"/>
			<path class="st2" d="M105.9,109.9c-1.4,0.3-2.8,0.6-4.2,0.9c-7.7,1.1-15.4,1.2-23.2,1.1c0,0,0.1,0,0.1,0
				c-0.2-0.2-0.3-0.3-0.5-0.5c-1.5-0.6-3-1.2-4.4-1.8c0.1-0.7,0-1.5,0.8-1.9c6,1.9,12.2,2.4,18.4,1.2c4.5,0.3,8.9-0.6,12.9-2.3
				c4.3-1.8,8.3-4.4,9.1-9.6c1.4-0.8,2.2-2.3,3.8-2.9c-0.4,6.4-4.4,10.4-9.1,14C108.3,108.8,107.1,109.3,105.9,109.9z"/>
			<path class="st4" d="M105.9,109.9c1.2-0.6,2.4-1.2,3.6-1.8c-0.1,1,0,2-0.2,2.9c-0.3,1.6-0.8,3,0.2,4.7c0.6,1,0.2,2.7-1.1,3.6
				c-1.4-0.1-2.7-0.2-4.1-0.3c0.2-2-1.1-4.4,1.5-6C106.3,112.7,105.9,111,105.9,109.9z"/>
			<path class="st5" d="M87.9,64.3c-2.9,1.4-5.8,2.6-8.2,4.8c-4.5,3.2-6.4,7.7-6.6,13c-0.8,0-1.5,0-2.3,0c0.2-2.7-1.1-5.3-0.5-7.9
				c0.7-2.9,0.5-5.9,0.3-8.8c0.2-0.2,0.4-0.4,0.7-0.5c0.1,0.6,0.2,1.2,1.1,0.7c1.2-0.7,2.8-1,3.7-2.3c0.7,0,1.3-0.4,1.8-0.9
				c1.4,1,2.3,0.8,2.7-1c0.2-1,0.6-2,0.9-3.1c0.7,0,1.3,0.1,2,0.1c-0.3,4.6-0.3,4.6,4.3,5.5C87.8,64.1,87.9,64.2,87.9,64.3z"/>
			<path class="st6" d="M70.7,65.4c0.1,2.9,0.3,5.9-0.3,8.8c-0.6,2.6,0.7,5.2,0.5,7.9c0,0.8,0,1.7,0,2.5c-2.1,0-4.5-0.2-4.2,3.1
				c-0.6-0.1-1.1-0.1-1.7-0.2c0.2-4.8-1.7-9.5-0.1-14.3C65.9,70,67.5,67.1,70.7,65.4z"/>
			<path class="st4" d="M74.4,107.8c-0.8,0.4-0.6,1.2-0.8,1.9c-0.8,2-1,3.8,1,5.5c1.4,1.2-0.2,3,0.4,4.5c-1.3,0.7-2.8,0.5-4.2,0.6
				c-1.2-1.5-1.9-3-0.5-4.8c0.7-0.9-0.1-1.9-0.2-2.8c-0.2-2-0.7-4.1-1-6.1c0.7-1.1,0.4-2.3,0.5-3.5c0.1-0.6,0.3-1.2,0.4-1.8
				c0.2-1.8,1.2-2.2,2.9-2.1c3.5,0.4,4.3,2.4,2.4,6.2c-0.1,0.2-0.2,0.4-0.3,0.6C74.3,106.4,74.4,107.1,74.4,107.8z"/>
			<path class="st7" d="M87.9,64.3c-0.1-0.1-0.1-0.2-0.2-0.2c-4.5-0.9-4.5-0.9-4.3-5.5c4.7,0.9,9.3,0,13.8-1.4
				c2.5-0.1,2.6,2.1,3.3,3.6c0,0.2,0,0.4-0.1,0.5c-0.2,0-0.3,0.1-0.4,0.1c-1.2,0.1-2.2,0.6-3,1.6C94,63.1,90.9,63.4,87.9,64.3z"/>
			<path class="st8" d="M97.2,57.2c-4.5,1.4-9,2.3-13.8,1.4c-0.7,0-1.3-0.1-2-0.1c-0.4-0.2-0.7-0.4-1.1-0.7
				c5.2-3.1,10.7-2.7,16.2-1.5C96.9,56.3,97,56.9,97.2,57.2z"/>
			<path class="st9" d="M70,101.3c-0.1,0.6-0.3,1.2-0.4,1.8c-2.9-1.9-3.5-5.1-4.1-8.1c-0.4-2.5-0.4-5-0.6-7.5
				c0.6,0.1,1.1,0.1,1.7,0.2c0,4.1-0.3,8.3,2.3,11.9C69,100.3,69.4,100.8,70,101.3z"/>
			<path class="st7" d="M80.4,57.8c0.4,0.2,0.7,0.4,1.1,0.7c-0.3,1-0.7,2-0.9,3.1c-0.4,1.8-1.3,2-2.7,1
				C77.7,60.4,78.4,58.7,80.4,57.8z"/>
			<path class="st8" d="M100.1,61.5c0.1-0.1,0.3-0.1,0.4-0.1c0.3,0,0.5,0,0.8,0c2.9-0.7,5.3,0.2,6.4,2.4c-1.2-0.3-2.3-0.5-3.5-0.8
				C103,61.7,101.3,62.4,100.1,61.5z"/>
			<path class="st8" d="M76.1,63.4c-0.9,1.3-2.4,1.5-3.7,2.3c-0.8,0.5-1-0.1-1.1-0.7C72.8,63.8,73.9,62,76.1,63.4z"/>
			<path class="st5" d="M101.3,61.3c-0.3,0-0.5,0-0.8,0c0-0.2,0-0.4,0.1-0.5C100.8,60.9,101,61.1,101.3,61.3z"/>
			<path class="st10" d="M98.6,98.3c-1.6,0-3.2-0.2-4.7,0c-7.8,0.9-15.8-6.6-16.5-14.7c-0.8-8.9,5.1-16.6,13.9-18.1
				c5.7-1,11.4-1.1,17.1,0.1c8.6,1.8,13.5,9.6,12.5,19.4c-0.8,7.2-7.9,13.1-15.9,13.2C102.8,98.3,100.7,98.3,98.6,98.3
				C98.6,98.3,98.6,98.3,98.6,98.3z M99.3,95c2.2,0,4.4,0.2,6.5,0c6.4-0.7,11.2-6,11.7-12.6c0.5-5.9-3.7-11.7-9.7-13.3
				c-5.6-1.5-11.3-1.2-16.7,0.3c-4.8,1.4-7.9,5.1-8.8,9.9c-1,4.9,0.2,9.3,4.4,12.7C90.5,95.2,94.8,95.5,99.3,95z"/>
			<path class="st11" d="M85.7,98.8c0.2,0,0.3,0.1,0.5,0.1c0.2,0.2,0.5,0.3,0.7,0.5c8.5,1,17,1.5,25.5-0.6c-0.6,1.9-1.9,3.2-3.5,4.2
				c-5.6,3.9-12.2,3.7-18.5,4.8c-1,0-2-0.1-3-0.1c-2.8-1.4-5.1-3.6-8.2-4.6c-0.3-2.3-1.7-4.8,1.1-6.5C82,97.5,83.5,98.9,85.7,98.8z"
				/>
			<path class="st12" d="M85.7,98.8c-2.2,0.1-3.7-1.4-5.4-2.3c-5-3.5-7.1-8.5-7.2-14.4c0.2-5.3,2.1-9.9,6.6-13
				c0.1,0.8-0.1,1.5-0.7,2.2c-6.9,9.1-3.3,22,5.9,26.7C85.3,98.1,85.5,98.5,85.7,98.8z"/>
			<path class="st6" d="M90.4,107.8c6.3-1.1,12.9-0.9,18.5-4.8c1.6-1.1,2.9-2.3,3.5-4.2c0,0,0,0.1,0,0.1c0.2-0.2,0.4-0.4,0.6-0.6
				c0.6-0.5,0.9-1.3,1.8-1.2c-0.8,5.3-4.7,7.9-9.1,9.6c-4.1,1.7-8.4,2.6-12.9,2.3C92,108.6,91.2,108.2,90.4,107.8z"/>
			<path class="st5" d="M100.1,61.5c1.2,0.9,3,0.3,4.1,1.4c-2.4,0-4.7,0.1-7.1,0.1C97.8,62,98.8,61.5,100.1,61.5z"/>
			<path class="st11" d="M113,98.3c-0.2,0.2-0.4,0.4-0.6,0.6C112.6,98.6,112.8,98.4,113,98.3z"/>
			<path class="st12" d="M86.9,99.4c-0.2-0.2-0.5-0.3-0.7-0.5C86.4,99.1,86.7,99.2,86.9,99.4z"/>
			<path class="st4" d="M78.5,111.9c7.7,0,15.5,0,23.2-1.1c-1.3,2.2-3.8,3.9-2.7,7c0,1.6,0,3.2-0.1,4.8c-0.1,0.1-0.2,0.3-0.2,0.5
				c-2.3,1.2-3,0.2-3-2.1c0-1.4,0.7-3.3-0.3-4.2c-0.6-0.5-2.4,0.4-3.7,0.6c-2.4,0.2-4.7,0.1-7.3-0.9c0,1.7,0,3.2,0,4.6
				c0,0.9,0.1,1.8-0.9,2.3c-1.2,0.6-1.8-0.2-2.6-0.9c0-0.8,0-1.6-0.1-2.4c0.2-0.6,0.2-1.2,0-1.8C81.8,115.7,80.4,113.7,78.5,111.9z"
				/>
			<path class="st4" d="M78.1,111.5c0.2,0.2,0.3,0.3,0.5,0.5C78.4,111.8,78.2,111.6,78.1,111.5z"/>
			<path class="st9" d="M90.4,107.8c0.8,0.4,1.6,0.8,2.4,1.2c-6.2,1.2-12.4,0.7-18.4-1.2c0-0.7-0.1-1.4,0.5-1.8
				c4,1.6,8.2,1.6,12.4,1.8C88.4,107.7,89.4,107.8,90.4,107.8z"/>
			<path class="st10" d="M73.1,82.1c0.1,5.9,2.2,10.9,7.2,14.4c-2.8,1.8-1.4,4.3-1.1,6.5c-0.5,2.2-2.2,2.3-4,2.3
				c1.9-3.7,1.1-5.8-2.4-6.2c-1.6-0.2-2.7,0.3-2.9,2.1c-0.6-0.4-1-1-1-1.7c-0.2-2.5,0.5-4,3.4-3.7c0.9,0.1,2.4,0.2,1.5-1.5
				c-1.6-3.1-2-6.5-3.1-9.8c0-0.8,0-1.6,0-2.5C71.6,82.1,72.4,82.1,73.1,82.1z"/>
			<path class="st7" d="M70.8,84.6c1.1,3.3,1.5,6.7,3.1,9.8c0.9,1.7-0.6,1.6-1.5,1.5c-2.9-0.4-3.7,1.2-3.4,3.7
				c-2.7-3.6-2.3-7.8-2.3-11.9C66.4,84.3,68.7,84.6,70.8,84.6z"/>
			<path class="st12" d="M75.2,105.4c1.7,0,3.5-0.1,4-2.3c3,1,5.4,3.2,8.2,4.6c-4.2-0.1-8.4-0.2-12.4-1.8
				C75,105.7,75.1,105.5,75.2,105.4z"/>
			<path class="st4" d="M99.3,95c-4.5,0.5-8.8,0.1-12.6-2.9c-4.2-3.4-5.4-7.8-4.4-12.7c1-4.9,4-8.6,8.8-9.9
				c5.5-1.6,11.1-1.8,16.7-0.3c6.1,1.6,10.2,7.4,9.7,13.3c-0.5,6.7-5.3,12-11.7,12.6C103.7,95.2,101.5,95,99.3,95z M92.4,87.4
				c1.9,2.8,3.3,3,5.3,0.7c0.5,0,1,0,1.6,0c1.5,1.6,3,2.5,4.4,0c3.2,0.7,5.8-1,8.5-2.2c0.8-0.3,1.9-0.7,1.4-1.8
				c-0.5-1.2-1.6-0.4-2.3-0.1c-6,2.3-12.2,2.2-18.4,1.1c-1.7-0.3-3.3-0.8-4.9-1.2c-0.7-0.2-1.5-0.3-1.7,0.7
				c-0.2,0.9,0.5,1.2,1.2,1.4C89.2,86.4,90.8,86.9,92.4,87.4z M102.9,74.4c-0.2-0.1-0.5-0.3-0.7,0c-1.5,2-1.5,4.9,0.2,6.5
				c1.8,1.8,4.1,2.6,6.4,1.3c2.3-1.3,3.3-3.4,2.6-6c-0.6-2-1.9-3.4-4.1-3.8C105.2,72.1,103.9,72.7,102.9,74.4L102.9,74.4z
				 M98.2,81.1c2.5-2.3,1.3-5.4-0.6-7.1c-2-1.8-5.4-1.6-7.2,0.4c-1.8,2-1.8,5.4,0.1,7.2c2.3,2.3,4.7,2.4,7.1,0.1
				C97.8,81.5,98,81.3,98.2,81.1z"/>
			<path class="st13" d="M97.6,81.6c-2.4,2.2-4.8,2.2-7.1-0.1c-1.8-1.9-1.9-5.3-0.1-7.2c1.8-1.9,5.2-2.1,7.2-0.4
				c1.9,1.7,3.1,4.9,0.6,7.1l0,0c0-0.5-0.1-0.9-0.1-1.4c-0.1-1.1-0.6-1.8-1.9-1.7c-1.1,0.1-1.6,0.6-1.7,1.7
				c-0.1,1.3,0.6,1.7,1.7,1.9C96.7,81.6,97.2,81.1,97.6,81.6L97.6,81.6z"/>
			<path class="st13" d="M102.9,74.4c1-1.7,2.4-2.3,4.4-2c2.2,0.4,3.5,1.8,4.1,3.8c0.8,2.6-0.3,4.7-2.6,6c-2.4,1.3-4.6,0.6-6.4-1.3
				c-1.6-1.6-1.6-4.6-0.2-6.5C102.4,74.1,102.6,74.3,102.9,74.4c0,0.4-0.1,0.8-0.1,1.1c-0.2,1.3,0,2.4,1.6,2.6c1.2,0.1,2-0.5,2-1.6
				c0.1-1.5-0.9-2.1-2.3-2C103.6,74.6,103.3,74.5,102.9,74.4z"/>
			<path class="st0" d="M99.3,88.1c-0.5,0-1,0-1.6,0c-1.7-0.7-3.5-0.6-5.3-0.7c-1.6-0.5-3.2-0.9-4.8-1.4c-0.7-0.2-1.4-0.5-1.2-1.4
				c0.2-0.9,1-0.8,1.7-0.7c1.6,0.4,3.2,0.9,4.9,1.2c6.2,1.1,12.4,1.2,18.4-1.1c0.7-0.3,1.8-1.1,2.3,0.1c0.5,1.1-0.6,1.5-1.4,1.8
				c-2.7,1.2-5.3,2.9-8.5,2.2C102.3,87.5,100.8,87.5,99.3,88.1z"/>
			<path class="st13" d="M92.4,87.4c1.8,0.1,3.6,0,5.3,0.7C95.7,90.4,94.3,90.2,92.4,87.4z"/>
			<path class="st15" d="M99.3,88.1c1.5-0.6,3-0.6,4.4,0C102.3,90.6,100.8,89.7,99.3,88.1z"/>
			<path class="st13" d="M98.2,81.1c-0.2,0.2-0.4,0.4-0.6,0.6c0,0,0,0,0,0C97.3,80.9,97.6,80.9,98.2,81.1L98.2,81.1z"/>
			<path class="st16" d="M98.2,81c-0.6-0.2-0.9-0.1-0.6,0.6c-0.4-0.5-0.9,0-1.3-0.1c-1.1-0.2-1.8-0.6-1.7-1.9c0.1-1,0.6-1.6,1.7-1.7
				c1.3-0.1,1.7,0.6,1.9,1.7C98.1,80.1,98.2,80.6,98.2,81z"/>
			<path class="st16" d="M102.9,74.4c0.4,0,0.8,0.1,1.2,0.1c1.4-0.1,2.4,0.5,2.3,2c-0.1,1.1-0.8,1.8-2,1.6c-1.6-0.2-1.8-1.3-1.6-2.6
				C102.8,75.2,102.8,74.8,102.9,74.4C102.9,74.4,102.9,74.4,102.9,74.4z"/>
		</g>
	</g>
</g>
</svg>
