<?xml version="1.0" encoding="utf-8"?>
<!-- Generator: Adobe Illustrator 17.0.0, SVG Export Plug-In . SVG Version: 6.00 Build 0)  -->
<!DOCTYPE svg PUBLIC "-//W3C//DTD SVG 1.1//EN" "http://www.w3.org/Graphics/SVG/1.1/DTD/svg11.dtd">
<svg version="1.1" id="Layer_1" xmlns="http://www.w3.org/2000/svg" xmlns:xlink="http://www.w3.org/1999/xlink" x="0px" y="0px"
	 width="128px" height="128px" viewBox="0 0 128 128" enable-background="new 0 0 128 128" xml:space="preserve">
<rect y="-0.052" fill="#0F304F" width="128" height="128"/>
<g>
	<g opacity="0.3">
		<polygon fill="#74BF44" points="92.941,44.854 92.941,71.215 100.911,71.215 100.911,76.372 92.941,76.372 92.941,80.002 
			128.09,80.002 128.09,44.854 		"/>
		<polygon fill="#42B549" points="92.941,62.428 92.941,73.045 103.655,73.045 103.655,76.372 92.941,76.372 92.941,80.002 
			128.09,80.002 128.09,62.428 		"/>
	</g>
	<g opacity="0.5">
		<polygon fill="#74BF44" points="85.121,44.854 85.121,71.215 93.091,71.215 93.091,76.372 85.121,76.372 85.121,80.002 
			120.269,80.002 120.269,44.854 		"/>
		<polygon fill="#42B549" points="85.121,62.428 85.121,73.045 95.835,73.045 95.835,76.372 85.121,76.372 85.121,80.002 
			120.269,80.002 120.269,62.428 		"/>
	</g>
	<g opacity="0.7">
		<polygon fill="#74BF44" points="79.121,44.854 79.121,71.215 87.091,71.215 87.091,76.372 79.121,76.372 79.121,80.002 
			114.269,80.002 114.269,44.854 		"/>
		<polygon fill="#42B549" points="79.121,62.428 79.121,73.045 89.835,73.045 89.835,76.372 79.121,76.372 79.121,80.002 
			114.269,80.002 114.269,62.428 		"/>
	</g>
	<g>
		<polygon fill="#74BF44" points="75.121,44.854 75.121,71.215 83.091,71.215 83.091,76.372 75.121,76.372 75.121,80.002 
			110.269,80.002 110.269,44.854 		"/>
		<polygon fill="#42B549" points="75.121,62.428 75.121,73.045 85.835,73.045 85.835,76.372 75.121,76.372 75.121,80.002 
			110.269,80.002 110.269,62.428 		"/>
	</g>
	<rect x="78.78" y="66.35" width="5.488" height="5.488"/>
	<line fill="none" stroke="#000000" stroke-miterlimit="10" x1="86.557" y1="63.194" x2="77.41" y2="66.154"/>
</g>
<g>
	<g opacity="0.8">
		<polygon opacity="0.3" fill="#EFE81D" points="10.624,7.702 10.624,47.912 22.781,47.912 22.781,55.778 10.624,55.778 
			10.624,61.316 64.238,61.316 64.238,7.702 		"/>
		<polygon opacity="0.5" fill="#EFE81D" points="10.624,18.105 10.624,58.316 22.781,58.316 22.781,66.182 10.624,66.182 
			10.624,71.719 64.238,71.719 64.238,18.105 		"/>
		<polygon opacity="0.7" fill="#EFE81D" points="10.784,26.947 10.545,67.156 22.702,67.229 22.655,75.094 10.499,75.022 
			10.466,80.56 64.079,80.878 64.397,27.265 		"/>
	</g>
	<polygon fill="#EFE81D" points="10.624,33.105 10.624,73.316 22.781,73.316 22.781,81.182 10.624,81.182 10.624,86.719 
		64.238,86.719 64.238,33.105 	"/>
	<rect x="10.624" y="59.912" fill="#BFA731" width="53.614" height="26.807"/>
	<polyline points="24.891,64.944 24.891,73.316 16.519,73.316 16.519,64.944 24.891,64.944 	"/>
	<polyline points="58.776,64.944 58.776,73.316 50.404,73.316 50.404,64.944 58.776,64.944 	"/>
</g>
<g>
	
		<rect x="28.321" y="100.848" transform="matrix(0.7071 -0.7071 0.7071 0.7071 -66.7887 58.6739)" fill="#FCB616" width="18.22" height="18.22"/>
	<polygon fill="#F29821" points="37.431,118.455 26.741,107.765 24.548,109.958 37.431,122.842 50.315,109.958 48.122,107.765 	"/>
</g>
</svg>
