<?xml version="1.0" encoding="utf-8"?>
<!-- Generator: Adobe Illustrator 19.0.0, SVG Export Plug-In . SVG Version: 6.00 Build 0)  -->
<svg version="1.1" id="Layer_1" xmlns="http://www.w3.org/2000/svg" xmlns:xlink="http://www.w3.org/1999/xlink" x="0px" y="0px"
	 viewBox="-297 356.9 128 128" style="enable-background:new -297 356.9 128 128;" xml:space="preserve">
<style type="text/css">
	.st0{fill:#982713;}
	.st1{fill:#F7A203;}
	.st2{fill:#FBA208;}
</style>
<rect x="-297" y="356.9" class="st0" width="128" height="128"/>
<path class="st1" d="M-253.3,477.3L-253.3,477.3c-1.2,0-2.2-1-2.2-2.2V366.3c0-1.2,1-2.2,2.2-2.2l0,0c1.2,0,2.2,1,2.2,2.2v108.8
	C-251.1,476.3-252.1,477.3-253.3,477.3z"/>
<path class="st1" d="M-213.5,477.5L-213.5,477.5c-1.2,0-2.2-1-2.2-2.2V366.5c0-1.2,1-2.2,2.2-2.2l0,0c1.2,0,2.2,1,2.2,2.2v108.8
	C-211.3,476.5-212.3,477.5-213.5,477.5z"/>
<path class="st1" d="M-289.6,401L-289.6,401c0-1.2,1-2.2,2.2-2.2h108.8c1.2,0,2.2,1,2.2,2.2l0,0c0,1.2-1,2.2-2.2,2.2h-108.8
	C-288.6,403.2-289.6,402.2-289.6,401z"/>
<path class="st1" d="M-289.8,440.8L-289.8,440.8c0-1.2,1-2.2,2.2-2.2h108.8c1.2,0,2.2,1,2.2,2.2l0,0c0,1.2-1,2.2-2.2,2.2h-108.8
	C-288.8,443-289.8,442-289.8,440.8z"/>
<g>
	<path class="st2" d="M-267.6,450.3c0.6-0.4,1.2-0.6,1.6-0.6c0.6,0,1,0.2,1.4,0.4c0.4,0.2,0.8,0.6,1,1.2c0.2,0.4,0.2,1,0,1.8
		c-0.2,0.6-0.6,1-1.2,1.6c-0.6,0.4-1,0.8-1.4,1.2c-0.6,0.6-1.2,1.2-1.8,1.8c-0.6,0.6-1.2,1.2-1.8,1.8c0.8,1,1.6,2,2.4,3
		s1.6,2,2.2,3.2c0.2,0.4,0.6,0.8,0.8,1.2c0.2,0.4,0.4,0.8,0.4,1.4c0,0.6,0,1.2-0.4,1.6c-0.4,0.4-0.8,0.8-1.2,1
		c-0.4,0.2-1,0.2-1.6,0.2c-0.6-0.2-1-0.4-1.4-1c-0.8-1.2-1.6-2.2-2.4-3.4c-0.8-1.2-1.6-2.2-2.4-3.2c-0.6,0.8-1.2,1.6-1.8,2.4
		c-0.6,0.8-1.2,1.6-1.6,2.4c-0.2,0.4-0.4,0.6-0.6,1c-0.2,0.4-0.4,0.6-0.6,0.8c-0.4,0.4-1,0.8-1.6,0.8c-0.6,0-1.2,0-1.6-0.2
		c-0.4-0.2-0.8-0.6-1-1.2c-0.2-0.6-0.2-1,0-1.8c0.2-0.6,0.6-1.4,1-2c0.4-0.8,1-1.4,1.6-2.2c0.6-0.8,1-1.4,1.6-2
		c0.6-0.6,1-1.2,1.4-1.8c-0.4-0.4-0.6-0.6-0.8-1c-0.2-0.2-0.4-0.4-0.6-0.6c-0.2-0.2-0.4-0.4-0.6-0.6c-0.2-0.2-0.4-0.4-0.8-0.8
		c-0.2-0.2-0.6-0.6-0.8-0.8c-0.4-0.2-0.6-0.6-0.8-0.8c-0.2-0.4-0.6-0.6-0.8-1c-0.2-0.4-0.4-0.6-0.6-1c-0.2-0.4-0.2-1,0-1.4
		c0.2-0.4,0.4-0.8,0.8-1c0.4-0.2,0.8-0.4,1.2-0.6c0.4-0.2,1,0,1.4,0.2c0.2,0.2,0.4,0.2,0.6,0.4c0.2,0.2,0.4,0.2,0.6,0.4
		c0.2,0.2,0.4,0.4,0.8,0.8c0.4,0.4,0.8,0.8,1.2,1.2c0.4,0.4,0.8,0.8,1.4,1.4c0.4,0.4,0.8,1,1.2,1.4c0.8-1,1.6-1.8,2.4-2.6
		c0.8-0.8,1.8-1.8,2.6-2.6L-267.6,450.3z"/>
</g>
<g>
	<path class="st2" d="M-188.6,410.8c0.6-0.4,1.2-0.6,1.6-0.6c0.6,0,1,0.2,1.4,0.4c0.4,0.2,0.8,0.6,1,1.2c0.2,0.4,0.2,1,0,1.8
		c-0.2,0.6-0.6,1-1.2,1.6c-0.6,0.4-1,0.8-1.4,1.2c-0.6,0.6-1.2,1.2-1.8,1.8c-0.6,0.6-1.2,1.2-1.8,1.8c0.8,1,1.6,2,2.4,3
		c0.8,1,1.6,2,2.2,3.2c0.2,0.4,0.6,0.8,0.8,1.2c0.2,0.4,0.4,0.8,0.4,1.4c0,0.6,0,1.2-0.4,1.6c-0.4,0.4-0.8,0.8-1.2,1
		c-0.4,0.2-1,0.2-1.6,0.2c-0.6-0.2-1-0.4-1.4-1c-0.8-1.2-1.6-2.2-2.4-3.4c-0.8-1.2-1.6-2.2-2.4-3.2c-0.6,0.8-1.2,1.6-1.8,2.4
		c-0.6,0.8-1.2,1.6-1.6,2.4c-0.2,0.4-0.4,0.6-0.6,1s-0.4,0.6-0.6,0.8c-0.4,0.4-1,0.8-1.6,0.8s-1.2,0-1.6-0.2c-0.4-0.2-0.8-0.6-1-1.2
		c-0.2-0.6-0.2-1,0-1.8c0.2-0.6,0.6-1.4,1-2c0.4-0.8,1-1.4,1.6-2.2c0.6-0.8,1-1.4,1.6-2c0.6-0.6,1-1.2,1.4-1.8
		c-0.4-0.4-0.6-0.6-0.8-1c-0.2-0.2-0.4-0.4-0.6-0.6c-0.2-0.2-0.4-0.4-0.6-0.6c-0.2-0.2-0.4-0.4-0.8-0.8c-0.2-0.2-0.6-0.6-0.8-0.8
		c-0.4-0.2-0.6-0.6-0.8-0.8c-0.2-0.4-0.6-0.6-0.8-1c-0.2-0.4-0.4-0.6-0.6-1c-0.2-0.4-0.2-1,0-1.4c0.2-0.4,0.4-0.8,0.8-1
		c0.4-0.2,0.8-0.4,1.2-0.6c0.4,0,1,0,1.4,0.2c0.2,0.2,0.4,0.2,0.6,0.4c0.2,0.2,0.4,0.2,0.6,0.4c0.2,0.2,0.4,0.4,0.8,0.8
		c0.4,0.4,0.8,0.8,1.2,1.2c0.4,0.4,0.8,0.8,1.4,1.4c0.4,0.4,0.8,1,1.2,1.4c0.8-1,1.6-1.8,2.4-2.6s1.8-1.8,2.6-2.6L-188.6,410.8z"/>
</g>
<g>
	<path class="st2" d="M-241.9,419.8c0.2-0.8,0.4-1.6,0.8-2.4c0.4-0.8,0.8-1.6,1.2-2.2c0.4-0.6,1-1.4,1.6-2c0.6-0.6,1.2-1,2-1.4
		c1.2-0.6,2.6-1,3.8-1c1.2,0,2.4,0.2,3.6,0.8c1.2,0.6,2,1.4,2.8,2.4c0.8,1,1.2,2.2,1.6,3.8c0.2,1,0.2,1.8,0.2,2.6
		c0,0.8,0,1.8-0.2,2.6c-0.2,1.2-0.8,2.6-1.6,3.8c-0.8,1.2-1.8,2.4-3,3.2c-1.2,0.8-2.4,1.4-3.8,1.8c-1.4,0.2-2.8,0-4.2-0.6
		c-0.6-0.4-1.2-0.6-1.8-1c-0.6-0.4-1-0.8-1.4-1.4c-0.4-0.6-0.8-1.2-1-2c-0.2-0.6-0.4-1.4-0.6-2c-0.2-0.8-0.2-1.6-0.2-2.4
		c0-0.8,0.2-1.6,0.2-2.2V419.8z M-236.9,420.6c0,0.4-0.2,0.8-0.2,1.4c0,0.4,0,0.8,0,1.4c0,0.6,0.2,1.2,0.6,1.8c0.2,0.6,0.6,1,1,1.2
		c0.4,0.4,1,0.4,1.4,0.4c0.6,0,1.2-0.2,1.8-0.6c0.8-0.4,1.4-1.2,2-2.2c0.6-1,1-2,1-3c0.2-1,0-2-0.4-3c-0.4-1-1-1.6-2.2-2
		c-0.6,0-1.4,0.2-2,0.4s-1,0.6-1.6,1c-0.4,0.4-0.8,1-1.2,1.6C-236.5,419.4-236.7,420-236.9,420.6z"/>
</g>
<g>
	<path class="st2" d="M-280.4,378.9c0.2-0.8,0.4-1.6,0.8-2.4c0.4-0.8,0.8-1.6,1.2-2.2c0.4-0.6,1-1.4,1.6-2c0.6-0.6,1.2-1,2-1.4
		c1.2-0.6,2.6-1,3.8-1s2.4,0.2,3.6,0.8c1.2,0.6,2,1.4,2.8,2.4s1.2,2.2,1.6,3.8c0.2,1,0.2,1.8,0.2,2.6s0,1.8-0.2,2.6
		c-0.2,1.2-0.8,2.6-1.6,3.8c-0.8,1.2-1.8,2.4-3,3.2s-2.4,1.4-3.8,1.8c-1.4,0.2-2.8,0-4.2-0.6c-0.6-0.4-1.2-0.6-1.8-1
		c-0.6-0.4-1-0.8-1.4-1.4c-0.4-0.6-0.8-1.2-1-2c-0.2-0.6-0.4-1.4-0.6-2c-0.2-0.8-0.2-1.6-0.2-2.4c0-0.8,0.2-1.6,0.2-2.2V378.9z
		 M-275.4,379.7c0,0.4-0.2,0.8-0.2,1.4c0,0.4,0,0.8,0,1.4c0,0.6,0.2,1.2,0.6,1.8c0.2,0.6,0.6,1,1,1.2c0.4,0.4,1,0.4,1.4,0.4
		c0.6,0,1.2-0.2,1.8-0.6c0.8-0.4,1.4-1.2,2-2.2c0.6-1,1-2,1-3c0.2-1,0-2-0.4-3c-0.4-1-1-1.6-2.2-2c-0.6,0-1.4,0.2-2,0.4
		c-0.6,0.2-1,0.6-1.6,1c-0.4,0.4-0.8,1-1.2,1.6C-275,378.5-275.2,379.1-275.4,379.7z"/>
</g>
</svg>
