<?xml version="1.0" encoding="utf-8"?>
<!-- Generator: Adobe Illustrator 19.0.0, SVG Export Plug-In . SVG Version: 6.00 Build 0)  -->
<svg version="1.1" id="Layer_1" xmlns="http://www.w3.org/2000/svg" xmlns:xlink="http://www.w3.org/1999/xlink" x="0px" y="0px"
	 viewBox="0 0 128 128" style="enable-background:new 0 0 128 128;" xml:space="preserve">
<style type="text/css">
	.st0{fill:#F29890;}
	.st1{fill:#F4D2B7;}
	.st2{fill:#5B2D25;}
	.st3{fill:#9B4D3F;}
	.st4{fill:#723324;}
	.st5{fill:#F8B283;}
	.st6{fill:#E0A049;}
	.st7{fill:#624C24;}
	.st8{fill:#955C39;}
	.st9{fill:#653F2D;}
	.st10{fill:#FFFFFF;}
</style>
<rect id="XMLID_1_" class="st0" width="128" height="128"/>
<path id="XMLID_6_" class="st1" d="M128,128V59.1c-24-8.3-48-14.4-71.1-16.6c-15.5-1.5-28.2,1.3-39.5,6.9c-6.2,3.1-11.9,7-17.4,11.5
	V128H128z"/>
<g id="XMLID_84_">
	<path id="XMLID_7_" class="st2" d="M34.7,94.2c-6,0.7-31.6-8.1-32.4,6.5c-0.2,4,24.2,8.2,25.6,11.9c1.4,3.6,4.4,6.7,9.6,6.6
		c5.3-0.1,7.2-11.5,7.3-15.5C44.9,99.6,39.5,93.6,34.7,94.2z"/>
	<path id="XMLID_9_" class="st1" d="M40.8,110.9c-2.9-1.3-4.8-0.6-7.1-0.9c-2.2-0.4-1.8-3.2-1.9-4.9c-0.1-1.8,0.6-5.8,0.9-7.1
		c0,0-14.7-2.1-14.4,0S18,107,16.6,109s-10-0.1-10.1,2.6c0,1,3.3,8,7.7,16.4h29.6C43,119,42,111.4,40.8,110.9z"/>
	<g id="XMLID_144_">
		<path id="XMLID_11_" class="st3" d="M76.2,98.5c0.2-11.9-6.9-27.2-6.6-32c0.3-3.9,2.6-8.6,3.6-11.1c0,0-17.9-2.5-18.5-2.6
			C54.1,52.7,37,97.3,37.3,99.6s-1.2,9.8-1.6,18.7c-0.1,2.1,0,5.6,0.4,9.7h32.4C70.9,120.9,75.9,111.2,76.2,98.5z"/>
		<path id="XMLID_19_" class="st4" d="M55.1,103.1c2.5-3.9,5.8-6.9,8-10.8c2.5-4.5,1.5-8,0.4-12.6c4.2,5.2,5.4,11.6,5.3,18.3
			c3.2-13.1-9-29.2,0.5-40.5c0.1,0.6-0.4-2-0.2-2.2c-3.1-2.2-5-3.6-8.2-1.3c-7.1,4.9-11,18.6-15.1,26C42,86.7,33.9,91.8,31.1,98.6
			c-1.6,3.9-0.4,9.6,0,13.5c0.5,5,2,10.6,3.9,15.9h11.1c0.2-0.8,0.4-1.5,0.7-2.2c0.1,0.7,0.2,1.5,0.4,2.2H49
			C48.4,119.3,50.4,110.5,55.1,103.1z"/>
		<path id="XMLID_20_" class="st4" d="M69.1,55.4C69.1,55.4,69.2,55.4,69.1,55.4C69.1,55.3,69.1,55.3,69.1,55.4z"/>
	</g>
	<g id="XMLID_115_">
		<path id="XMLID_22_" class="st1" d="M33.8,105c2.8,0.1,24.7-8.5,27.1-16.5c0.9-3-0.2-23,0.7-28c0.9-5,6.9-24.8-1.9-28.8
			c0,0-6-5.2-8.8-7.1c-2.8-1.9-41.8,1.2-50,2.8c-0.3,0.1-0.6,0.1-0.9,0.2v60.2C10.8,99.4,31.8,104.9,33.8,105z"/>
		<g id="XMLID_135_">
			<path id="XMLID_18_" class="st1" d="M62.9,54.5c-0.6,2.6-1.1,4.8-1.3,6.1c-0.9,5,0.3,25-0.7,28c-2.4,7.9-24.3,16.6-27.1,16.5
				c-1.3-0.1-10.5-2.4-19.7-7.1"/>
		</g>
		<path id="XMLID_25_" class="st5" d="M40.1,67.7c-0.6,1.4-0.8,6.5-0.6,7.8c0.4,3.2,2.5,5.3,4.1,4.1c1.5-1.1,0.1-2.6-1-4
			C40.6,73.1,40.3,69.7,40.1,67.7z"/>
		<g id="XMLID_120_">
			<path id="XMLID_26_" class="st6" d="M34,66.5c-1.4,0.3-1.2,2.1-1,2c1.9-0.8,13.2,1,14.5,1.6s-0.3-2-0.3-2
				C46.2,67.7,35.4,66.2,34,66.5z"/>
			<path id="XMLID_27_" class="st7" d="M8.3,57.6c-1.2,5.1,1.1,19.7,9.8,20.9c11.6,1.5,18.8-15,18.3-16.3C36,60.9,8.7,56,8.3,57.6z"
				/>
			<path id="XMLID_34_" class="st7" d="M45.4,63.8c-0.9,1.1,2.3,18.3,11.4,20.3s9.8-15.5,9.7-16.8C66.5,66,46.3,62.7,45.4,63.8z"/>
			<path id="XMLID_39_" class="st6" d="M36.7,61.1C32,59.9,17.1,57,10,56.3c-2.2-0.2-3-0.4-3.1,0.6c-0.1,0.9,0.4,1,2.8,1.1
				c7.2,0.3,22.5,3.8,26.5,4.8c0.8,0.2,2.5,0.8,2.7-0.1C39.1,61.6,38,61.5,36.7,61.1z"/>
			<path id="XMLID_40_" class="st6" d="M66.5,66c-1.1-0.4-12.3-3.1-19.2-3.3c-1.2,0-2.6,0.2-2.7,0.9s0.5,0.7,2.5,0.8
				c3.7,0.2,17.3,2.9,19.2,3.4c1,0.3,1.7,0.5,2-0.4C68.4,66.8,67.6,66.3,66.5,66z"/>
		</g>
		<path id="XMLID_43_" class="st0" d="M42.2,84.2c-0.9-0.9-3.9-1.2-5.8-1c-2.2,0.2-10,1.4-13.9,0.4c2.2,2.4,9.6,6.2,14.8,7.1
			c2.2,0.4,5.5-0.7,6.7-1.8l1.6-0.4C44.8,86.8,42.7,84.6,42.2,84.2z"/>
	</g>
	<g id="XMLID_108_">
		<path id="XMLID_45_" class="st3" d="M7.6,59.7c2.6-2.4,5.1-5.9,7.2-9.5C14,54.2,10.4,61,4.4,68.6c8.1-5.6,16.7-25.1,15.7-26.7
			c-1-1.6,0,0-1-0.3c0.8-2,1.4-3.7,1.7-5.1c0,0-10.6-4.4-20.8-7.5v45.6C0.3,68.8,3.5,63.6,7.6,59.7z"/>
		<path id="XMLID_46_" class="st3" d="M29.8,125.1C26.8,113.6,1.6,87.3,0.2,78.7C0.1,78,0,77.3,0,76.7V128h29.2
			c-3.7-7.9-6.1-12.1-10.8-18.5C20,111,25.6,118.1,29.8,125.1z"/>
		<g id="XMLID_109_">
			<path id="XMLID_48_" class="st4" d="M13.6,40.8c0.1,0.6,0.5-0.6,1-0.5c-3.3-3.8-9-5-14.6-5.5v15.9C4,46.6,9.1,43.3,13.6,40.8z"/>
			<path id="XMLID_49_" class="st4" d="M0,109.6v1.4c0.4,0.5,0.8,1.1,1.1,1.6C0.8,111.6,0.4,110.6,0,109.6z"/>
		</g>
	</g>
	<g id="XMLID_85_">
		<path id="XMLID_3_" class="st8" d="M92.7,54.7c-1-2.9-6.1-4.7-15.9-6.7c-0.5-0.1-1.6-0.2-3.2-0.4c-0.2-2.2-0.7-4.8-1.4-7.5
			c-0.9-4-3.8-11.7-5.5-15.3c-0.1-0.2-0.2-0.4-0.3-0.6c-1.3-1.9-4.5-9.8-6.3-11.8c-1.8-2-7.8-7-9.8-7.8c-1.9-1.7-36.7-6.2-48.6-4
			C1.1,0.7,0.6,0.9,0,1.1v38.4c2.7,0.6,4.6,1.1,5.3,1.3c1.2,0.4,4,1.1,7.7,1.9c12.2,4.8,27.6,9.8,36.2,12.4
			c12,3.5,30.3,5.2,38.1,4.2C90.7,58.9,93.5,57.2,92.7,54.7z"/>
		<g id="XMLID_94_">
			<g id="XMLID_24_">
				<g id="XMLID_31_">
					<path id="XMLID_32_" class="st9" d="M38.5,44.7c3.7,0.5,13.2,1.4,21.9,2.2c4.3,0.4,8.4,0.7,11.4,0.9c1.5,0.1,2.7,0.2,3.6,0.2
						c0.8,0.1,1.3,0.1,1.4,0c0.1-0.4-7.7-1.3-16.3-2.1c-8.6-0.8-18.2-1.8-21.8-2.2c-3.7-0.4-13.2-1.5-21.7-2.9
						c-1.1-0.2-2.1-0.4-3.1-0.5c-1-0.2-2-0.4-3-0.6c-1.9-0.3-3.6-0.8-5.1-1.1c-1.5-0.3-2.6-0.7-3.5-0.9c-0.8-0.2-1.3-0.3-1.3-0.3
						c0,0.1,0.4,0.3,1.2,0.6c0.8,0.3,2,0.8,3.4,1.2c1.5,0.4,3.2,0.9,5.1,1.3c1,0.2,1.9,0.4,3,0.6c1,0.2,2.1,0.4,3.1,0.6
						C25.3,43.2,34.9,44.3,38.5,44.7z"/>
				</g>
			</g>
		</g>
	</g>
</g>
<g id="XMLID_4_">
	<path id="XMLID_5_" class="st10" d="M110.4,52.8v1.7c0,0.8-0.1,1.6-0.4,2.3s-0.7,1.4-1.3,1.9c-0.6,0.5-1.3,1-2.1,1.3
		c-0.8,0.3-1.7,0.5-2.8,0.5s-1.9-0.2-2.7-0.5c-0.8-0.3-1.5-0.8-2-1.3c-0.5-0.6-1-1.2-1.2-1.9c-0.3-0.7-0.4-1.5-0.4-2.3v-6.2
		c0-1.6,0.2-2.7,0.7-3.5c0.5-0.8,1.2-1.4,2.2-1.9c0.3-0.1,0.7-0.3,1.2-0.4s0.9-0.3,1.5-0.4c0.5-0.1,1.1-0.3,1.7-0.4
		c0.6-0.1,1.1-0.3,1.6-0.5c3.1-1.2,4.7-3.4,4.7-6.8c0-0.8-0.2-1.5-0.5-2.2c-0.3-0.7-0.7-1.3-1.3-1.8c-0.5-0.5-1.1-0.9-1.8-1.2
		c-0.7-0.3-1.4-0.5-2.2-0.5c-1.4-0.1-2.6,0.1-3.6,0.5c-1,0.4-1.9,1-2.7,1.7c-0.8,0.7-1.4,1.4-1.9,2.2c-0.5,0.8-1,1.5-1.3,2.1
		c-1,1.4-2.4,2.2-4.3,2.2c-2.1,0-3.6-0.6-4.7-1.8s-1.5-2.6-1.5-4.4c0-3.9,2-7.3,5.9-10.4c4-3.1,8.7-4.7,14.2-4.7
		c2.7,0,5.3,0.5,7.8,1.4s4.6,2.2,6.4,3.8c1.8,1.6,3.3,3.6,4.4,6s1.6,4.9,1.6,7.7c0,2.3-0.3,4.4-1,6.4c-0.7,2-1.7,3.8-2.9,5.3
		c-1.3,1.5-2.8,2.8-4.7,3.8C114.8,51.7,112.7,52.4,110.4,52.8z M89.1,30.6c0,0.5,0.2,0.9,0.5,1.2c0.3,0.3,0.7,0.5,1.2,0.5
		c0.5,0,0.9-0.2,1.2-0.5s0.4-0.7,0.4-1.2s-0.1-0.9-0.4-1.2c-0.3-0.3-0.6-0.5-1.2-0.5c-0.5,0-0.9,0.2-1.2,0.5
		C89.3,29.7,89.1,30.1,89.1,30.6z M92.6,25.7c0,0.4,0.2,0.7,0.5,1c0.3,0.3,0.7,0.5,1.2,0.7c0.5,0,0.9-0.2,1.2-0.5
		c0.3-0.4,0.4-0.7,0.4-1.1c0-0.5-0.1-0.9-0.4-1.2c-0.3-0.3-0.6-0.5-1.2-0.5c-0.5,0-0.9,0.2-1.2,0.5C92.7,24.8,92.6,25.2,92.6,25.7z
		 M96.5,71.3c0-1,0.2-2,0.6-2.9c0.4-0.9,0.9-1.7,1.6-2.3c0.7-0.7,1.5-1.2,2.4-1.6c0.9-0.4,1.9-0.6,2.9-0.6c1,0,2,0.2,2.9,0.6
		s1.7,0.9,2.4,1.6c0.7,0.7,1.2,1.4,1.6,2.3c0.4,0.9,0.6,1.9,0.6,2.9c0,1-0.2,2-0.6,2.9c-0.4,0.9-0.9,1.7-1.6,2.4s-1.5,1.2-2.4,1.6
		s-1.9,0.6-2.9,0.6c-1,0-2-0.2-2.9-0.6c-0.9-0.4-1.7-0.9-2.4-1.6s-1.2-1.5-1.6-2.4C96.6,73.3,96.5,72.3,96.5,71.3z M98,22.9
		c0,0.5,0.2,0.9,0.5,1.2c0.4,0.3,0.7,0.5,1,0.5c0.5,0,1-0.2,1.3-0.5c0.3-0.3,0.5-0.7,0.5-1.2s-0.2-0.9-0.5-1.1
		c-0.3-0.3-0.7-0.4-1.3-0.4c-0.3,0-0.7,0.1-1,0.4C98.2,22,98,22.4,98,22.9z M101.7,71.3c0,0.6,0.2,1.1,0.7,1.5
		c0.4,0.4,0.9,0.7,1.5,0.7c0.6,0,1.2-0.2,1.6-0.7s0.7-0.9,0.7-1.5c0-0.6-0.2-1.2-0.7-1.6c-0.4-0.4-1-0.7-1.6-0.7
		c-0.6,0-1.1,0.2-1.5,0.7C102,70.1,101.7,70.7,101.7,71.3z M102.1,54.6c0,0.5,0.2,0.9,0.5,1.2s0.7,0.5,1.1,0.5c0.5,0,1-0.2,1.3-0.5
		s0.5-0.7,0.5-1.2c0-0.4-0.2-0.8-0.5-1.1c-0.3-0.3-0.7-0.5-1.3-0.5c-0.4,0-0.8,0.2-1.1,0.5C102.2,53.8,102.1,54.2,102.1,54.6z
		 M102.2,48.3c0,0.5,0.1,0.9,0.4,1.2c0.3,0.3,0.6,0.5,1.1,0.5c0.5,0,1-0.2,1.3-0.5c0.3-0.3,0.5-0.7,0.5-1.2c0-0.5-0.2-0.9-0.5-1.2
		c-0.3-0.3-0.7-0.4-1.3-0.4c-0.5,0-0.9,0.1-1.1,0.4C102.3,47.4,102.2,47.8,102.2,48.3z M104.2,22.1c0,0.5,0.2,0.9,0.5,1.2
		c0.3,0.3,0.7,0.5,1.2,0.5s0.9-0.2,1.1-0.5c0.3-0.3,0.4-0.7,0.4-1.2s-0.1-0.9-0.4-1.2c-0.3-0.3-0.6-0.5-1.1-0.5s-0.9,0.2-1.2,0.5
		C104.4,21.2,104.2,21.6,104.2,22.1z M107.9,46.9c0,0.4,0.2,0.8,0.5,1.1c0.3,0.4,0.7,0.5,1.2,0.5c0.4,0,0.8-0.2,1.1-0.5
		c0.3-0.4,0.5-0.7,0.5-1.1c0-0.5-0.2-0.9-0.5-1.2c-0.3-0.3-0.7-0.5-1.1-0.5c-0.5,0-0.9,0.2-1.2,0.5C108.1,46,107.9,46.4,107.9,46.9z
		 M110.1,23.5c0,0.5,0.2,0.9,0.5,1.2c0.3,0.3,0.7,0.5,1.2,0.5c0.5,0,0.9-0.2,1.2-0.5c0.3-0.3,0.4-0.7,0.4-1.2s-0.1-0.9-0.4-1.2
		c-0.3-0.3-0.7-0.5-1.2-0.5c-0.5,0-0.9,0.2-1.2,0.5C110.2,22.6,110.1,23,110.1,23.5z M113.4,43.8c0,0.4,0.2,0.8,0.5,1.1
		c0.3,0.4,0.7,0.5,1.2,0.5c0.5,0,0.9-0.2,1.2-0.5c0.3-0.4,0.5-0.7,0.5-1.1c0-0.5-0.2-0.9-0.5-1.2c-0.3-0.3-0.7-0.5-1.2-0.5
		c-0.5,0-0.9,0.2-1.2,0.5C113.5,42.9,113.4,43.3,113.4,43.8z M114.6,27.2c0,0.5,0.2,0.9,0.5,1.2c0.3,0.3,0.7,0.5,1.2,0.5
		c0.5,0,0.9-0.2,1.1-0.5c0.3-0.3,0.4-0.7,0.4-1.2c0-0.5-0.1-0.9-0.4-1.2c-0.3-0.3-0.7-0.4-1.1-0.4c-0.5,0-0.9,0.1-1.2,0.4
		C114.8,26.3,114.6,26.7,114.6,27.2z M116.7,38.9c0,0.5,0.1,0.9,0.4,1.1c0.3,0.3,0.6,0.4,1.1,0.4c0.5,0,1-0.1,1.3-0.4
		c0.3-0.3,0.5-0.7,0.5-1.1c0-0.5-0.2-1-0.5-1.3c-0.3-0.3-0.7-0.5-1.3-0.5c-0.5,0-0.9,0.2-1.1,0.5C116.8,37.9,116.7,38.4,116.7,38.9z
		 M116.9,32.8c0,0.4,0.2,0.8,0.5,1.1c0.3,0.4,0.7,0.5,1.2,0.5c0.5,0,0.9-0.2,1.2-0.5c0.3-0.4,0.4-0.7,0.4-1.1c0-0.5-0.1-0.9-0.4-1.2
		c-0.3-0.3-0.7-0.5-1.2-0.5c-0.5,0-0.9,0.2-1.2,0.5C117.1,31.9,116.9,32.3,116.9,32.8z"/>
</g>
</svg>
