<?xml version="1.0" encoding="utf-8"?>
<!-- Generator: Adobe Illustrator 19.0.0, SVG Export Plug-In . SVG Version: 6.00 Build 0)  -->
<svg version="1.1" xmlns="http://www.w3.org/2000/svg" xmlns:xlink="http://www.w3.org/1999/xlink" x="0px" y="0px"
	 viewBox="0 0 128 128" style="enable-background:new 0 0 128 128;" xml:space="preserve">
<style type="text/css">
	.st0{fill:#F8EDDD;}
	.st1{fill:#E37726;}
	.st2{fill:#1C1C1B;}
	.st3{fill:#F2A01F;}
</style>
<g id="Layer_2">
</g>
<g id="Layer_1">
	<rect id="XMLID_2_" class="st0" width="128" height="128"/>
	<g id="XMLID_4_">
		<path id="XMLID_12_" class="st1" d="M28.6,99.8c17.1,6.6,35.4,6.6,35.4,6.6c-16.4,0-29.6-18.6-29.6-41.5S47.6,23.3,64,23.3
			c0,0-18.7-0.6-35.8,5.6C22.4,38.7,19,50.8,19,64C19,77.5,22.6,89.9,28.6,99.8z"/>
		<rect id="XMLID_1_" x="2.2" y="55.9" class="st2" width="123.5" height="17.8"/>
		<path id="XMLID_11_" class="st3" d="M64,23.3c16.4,0,29.6,18.6,29.6,41.5S80.4,106.3,64,106.3c0,0-18.4,0-35.4-6.6
			c8.2,13.5,21,22.2,35.4,22.2c24.9,0,45-26,45-58c0-32-20.1-58-45-58c-14.6,0-27.6,9-35.8,22.9C45.3,22.8,64,23.3,64,23.3z"/>
	</g>
</g>
</svg>
