<?xml version="1.0" encoding="utf-8"?>
<!-- Generator: Adobe Illustrator 17.0.0, SVG Export Plug-In . SVG Version: 6.00 Build 0)  -->
<!DOCTYPE svg PUBLIC "-//W3C//DTD SVG 1.1//EN" "http://www.w3.org/Graphics/SVG/1.1/DTD/svg11.dtd">
<svg version="1.1" id="Layer_1" xmlns="http://www.w3.org/2000/svg" xmlns:xlink="http://www.w3.org/1999/xlink" x="0px" y="0px"
	 width="128px" height="128px" viewBox="0 0 128 128" enable-background="new 0 0 128 128" xml:space="preserve">
<rect fill="#04994A" width="128" height="128"/>
<path fill="#17AF5E" d="M60.79,52.555c0,4.519-3.664,8.183-8.183,8.183h-37.36c-4.519,0-8.183-3.664-8.183-8.183v-37.36
	c0-4.519,3.664-8.183,8.183-8.183h37.36c4.519,0,8.183,3.664,8.183,8.183V52.555z"/>
<path fill="#17AF5E" d="M120.812,52.555c0,4.519-3.664,8.183-8.183,8.183H75.27c-4.519,0-8.183-3.664-8.183-8.183v-37.36
	c0-4.519,3.664-8.183,8.183-8.183h37.36c4.519,0,8.183,3.664,8.183,8.183V52.555z"/>
<path fill="#17AF5E" d="M60.79,112.234c0,4.519-3.664,8.183-8.183,8.183h-37.36c-4.519,0-8.183-3.664-8.183-8.183v-37.36
	c0-4.519,3.664-8.183,8.183-8.183h37.36c4.519,0,8.183,3.664,8.183,8.183V112.234z"/>
<path fill="#17AF5E" d="M120.812,112.234c0,4.519-3.664,8.183-8.183,8.183H75.27c-4.519,0-8.183-3.664-8.183-8.183v-37.36
	c0-4.519,3.664-8.183,8.183-8.183h37.36c4.519,0,8.183,3.664,8.183,8.183V112.234z"/>
<g>
	<polygon fill="#FFFFFF" stroke="#000000" stroke-width="0.02" stroke-miterlimit="10" points="10.995,31.327 24.966,25.104 
		22.426,32.851 	"/>
	<polygon fill="#FFFFFF" stroke="#000000" stroke-width="0.02" stroke-miterlimit="10" points="33.857,19.643 32.079,33.613 
		44.906,34.884 38.493,15.451 	"/>
	<polygon fill="#FFFFFF" stroke="#000000" stroke-width="0.02" stroke-miterlimit="10" points="24.966,25.104 16.457,52.226 
		17.981,53.554 33.603,35.646 32.079,31.962 	"/>
	<polygon fill="#FFFFFF" stroke="#000000" stroke-width="0.02" stroke-miterlimit="10" points="44.906,34.884 51.257,55.078 
		50.241,55.729 33.603,35.646 32.791,33.684 	"/>
	<polygon fill="#FFFFFF" stroke="#000000" stroke-width="0.02" stroke-miterlimit="10" points="36.588,17.173 36.588,12.911 
		37.794,12.911 38.493,15.451 	"/>
	<polygon fill="#FFFFFF" stroke="#000000" stroke-width="0.02" stroke-miterlimit="10" points="25.613,25.727 28.014,25.104 
		32.466,30.566 32.239,32.351 	"/>
	<polygon fill="#FFFFFF" stroke="#000000" stroke-width="0.02" stroke-miterlimit="10" points="23.361,47.386 25.613,47.386 
		30.178,39.966 31.003,38.626 	"/>
	<polygon fill="#FFFFFF" stroke="#000000" stroke-width="0.02" stroke-miterlimit="10" points="34.619,43.006 30.178,39.966 
		33.603,35.646 37.109,39.878 	"/>
	<polygon fill="#FFFFFF" stroke="#000000" stroke-width="0.02" stroke-miterlimit="10" points="48.486,46.267 53.162,50.124 
		54.178,48.981 47.32,32.851 44.906,34.884 	"/>
	<polygon fill="#FFFFFF" stroke="#000000" stroke-width="0.02" stroke-miterlimit="10" points="34.619,43.006 37.109,39.878 
		38.084,41.055 	"/>
	<polygon fill="#FFFFFF" stroke="#000000" stroke-width="0.02" stroke-miterlimit="10" points="44.906,34.884 47.32,32.851 
		40.969,19.516 46.685,20.151 47.32,18.88 38.493,15.042 38.084,12.022 37.109,12.022 37.109,12.911 	"/>
</g>
<g>
	<polygon fill="#FFFFFF" stroke="#000000" stroke-width="0.02" stroke-miterlimit="10" points="70.534,91.652 84.505,85.428 
		81.965,93.176 	"/>
	<polygon fill="#FFFFFF" stroke="#000000" stroke-width="0.02" stroke-miterlimit="10" points="93.396,79.967 91.617,93.938 
		104.445,95.208 98.031,75.776 	"/>
	<polygon fill="#FFFFFF" stroke="#000000" stroke-width="0.02" stroke-miterlimit="10" points="84.505,85.428 75.995,112.551 
		77.52,113.878 93.142,95.97 91.617,92.287 	"/>
	<polygon fill="#FFFFFF" stroke="#000000" stroke-width="0.02" stroke-miterlimit="10" points="104.445,95.208 110.796,115.402 
		109.78,116.053 93.142,95.97 92.33,94.008 	"/>
	<polygon fill="#FFFFFF" stroke="#000000" stroke-width="0.02" stroke-miterlimit="10" points="96.127,77.498 96.127,73.235 
		97.333,73.235 98.031,75.776 	"/>
	<polygon fill="#FFFFFF" stroke="#000000" stroke-width="0.02" stroke-miterlimit="10" points="85.151,86.052 87.553,85.428 
		92.005,90.89 91.778,92.675 	"/>
	<polygon fill="#FFFFFF" stroke="#000000" stroke-width="0.02" stroke-miterlimit="10" points="82.9,107.711 85.151,107.711 
		89.717,100.291 90.542,98.95 	"/>
	<polygon fill="#FFFFFF" stroke="#000000" stroke-width="0.02" stroke-miterlimit="10" points="94.158,103.33 89.717,100.291 
		93.142,95.97 96.648,100.202 	"/>
	<polygon fill="#FFFFFF" stroke="#000000" stroke-width="0.02" stroke-miterlimit="10" points="108.025,106.591 112.701,110.449 
		113.717,109.306 106.858,93.176 104.445,95.208 	"/>
	<polygon fill="#FFFFFF" stroke="#000000" stroke-width="0.02" stroke-miterlimit="10" points="94.158,103.33 96.648,100.202 
		97.623,101.379 	"/>
	<polygon fill="#FFFFFF" stroke="#000000" stroke-width="0.02" stroke-miterlimit="10" points="104.445,95.208 106.858,93.176 
		100.508,79.84 106.223,80.475 106.858,79.205 98.031,75.367 97.623,72.346 96.648,72.346 96.648,73.235 	"/>
</g>
<g>
	<g>
		<polygon fill="#FFFFFF" stroke="#000000" stroke-width="0.02" stroke-miterlimit="10" points="16.521,83.759 22.447,79.239 
			22.447,81.047 		"/>
		<polygon fill="#FFFFFF" stroke="#000000" stroke-width="0.02" stroke-miterlimit="10" points="38.819,94.004 50.671,70.902 
			42.636,98.624 		"/>
		<polygon fill="#FFFFFF" stroke="#000000" stroke-width="0.02" stroke-miterlimit="10" points="16.119,84.836 24.707,88.058 
			26.138,92.497 		"/>
		<polygon fill="#FFFFFF" stroke="#000000" stroke-width="0.02" stroke-miterlimit="10" points="28.825,103.948 29.828,103.948 
			22.447,81.047 		"/>
		<polygon fill="#FFFFFF" stroke="#000000" stroke-width="0.02" stroke-miterlimit="10" points="16.119,84.836 28.214,101.754 
			25.58,92.296 		"/>
		<polygon fill="#FFFFFF" stroke="#000000" stroke-width="0.02" stroke-miterlimit="10" points="27.404,88.693 33.295,91.419 
			31.856,96.301 		"/>
		<polygon fill="#FFFFFF" stroke="#000000" stroke-width="0.02" stroke-miterlimit="10" points="34.5,88.566 31.81,95.238 
			34.5,99.833 43.54,99.428 		"/>
		<polygon fill="#FFFFFF" stroke="#000000" stroke-width="0.02" stroke-miterlimit="10" points="22.447,79.239 22.447,81.047 
			30.281,105.354 35.203,101.035 		"/>
		<polygon fill="#FFFFFF" stroke="#000000" stroke-width="0.02" stroke-miterlimit="10" points="48.16,114.193 29.371,102.529 
			28.825,99.833 43.54,99.428 44.745,101.135 		"/>
	</g>
	<polygon fill="#FFFFFF" stroke="#000000" stroke-width="0.02" stroke-miterlimit="10" points="34.5,88.566 30.673,93.295 
		31.81,95.238 	"/>
</g>
<g>
	<g>
		<polygon fill="#FFFFFF" stroke="#000000" stroke-width="0.02" stroke-miterlimit="10" points="76.267,26.857 82.193,22.337 
			82.193,24.145 		"/>
		<polygon fill="#FFFFFF" stroke="#000000" stroke-width="0.02" stroke-miterlimit="10" points="98.565,37.102 110.417,14 
			102.382,41.722 		"/>
		<polygon fill="#FFFFFF" stroke="#000000" stroke-width="0.02" stroke-miterlimit="10" points="75.866,27.934 84.453,31.156 
			85.884,35.595 		"/>
		<polygon fill="#FFFFFF" stroke="#000000" stroke-width="0.02" stroke-miterlimit="10" points="88.571,47.046 89.575,47.046 
			82.193,24.145 		"/>
		<polygon fill="#FFFFFF" stroke="#000000" stroke-width="0.02" stroke-miterlimit="10" points="75.866,27.934 87.961,44.852 
			85.326,35.394 		"/>
		<polygon fill="#FFFFFF" stroke="#000000" stroke-width="0.02" stroke-miterlimit="10" points="87.15,31.791 93.041,34.517 
			91.602,39.399 		"/>
		<polygon fill="#FFFFFF" stroke="#000000" stroke-width="0.02" stroke-miterlimit="10" points="94.246,31.664 91.557,38.336 
			94.246,42.932 103.286,42.526 		"/>
		<polygon fill="#FFFFFF" stroke="#000000" stroke-width="0.02" stroke-miterlimit="10" points="82.193,22.337 82.193,24.145 
			90.028,48.452 94.949,44.133 		"/>
		<polygon fill="#FFFFFF" stroke="#000000" stroke-width="0.02" stroke-miterlimit="10" points="107.906,57.291 89.117,45.627 
			88.571,42.932 103.286,42.526 104.491,44.233 		"/>
	</g>
	<polygon fill="#FFFFFF" stroke="#000000" stroke-width="0.02" stroke-miterlimit="10" points="94.246,31.664 90.42,36.393 
		91.557,38.336 	"/>
</g>
</svg>
