<?xml version="1.0" encoding="utf-8"?>
<!-- Generator: Adobe Illustrator 19.0.0, SVG Export Plug-In . SVG Version: 6.00 Build 0)  -->
<svg version="1.1" id="Layer_1" xmlns="http://www.w3.org/2000/svg" xmlns:xlink="http://www.w3.org/1999/xlink" x="0px" y="0px"
	 viewBox="0 0 128 128" style="enable-background:new 0 0 128 128;" xml:space="preserve">
<style type="text/css">
	.st0{fill:#DF5C5B;}
	.st1{fill:#261F18;}
	.st2{fill:#E9275B;}
	.st3{fill:#FCAF17;}
	.st4{fill:#EDACAC;}
</style>
<rect id="XMLID_1_" class="st0" width="128" height="128"/>
<path id="XMLID_6_" class="st1" d="M64,11c-29.3,0-53,23.7-53,53c0,29.3,23.7,53,53,53s53-23.7,53-53C117,34.7,93.3,11,64,11z
	 M64,101c-20.4,0-37-16.6-37-37c0-20.4,16.6-37,37-37s37,16.6,37,37C101,84.4,84.4,101,64,101z"/>
<path id="XMLID_2_" class="st2" d="M65.1,25.5L65.1,25.5c-1.2,0-2.1-1-2.1-2.1v-9c0-1.2,1-2.1,2.1-2.1l0,0c1.2,0,2.1,1,2.1,2.1v9
	C67.2,24.5,66.3,25.5,65.1,25.5z"/>
<circle id="XMLID_3_" class="st3" cx="108" cy="74.3" r="6"/>
<g id="XMLID_8_">
	<path id="XMLID_9_" class="st4" d="M65.9,43.6c0.9,0,1.7,0.1,2.3,0.3c0.6,0.2,1.1,0.4,1.4,0.6c0.3,0.2,0.6,0.6,0.7,1.1
		c0.2,0.5,0.3,1,0.3,1.3c0,0.3,0,0.9,0,1.6v30.3c0,0.8,0,1.5-0.1,1.9c-0.1,0.4-0.2,0.9-0.5,1.4c-0.3,0.5-0.8,0.9-1.5,1.1
		c-0.7,0.2-1.6,0.3-2.8,0.3c-1.1,0-2-0.1-2.7-0.3c-0.7-0.2-1.2-0.6-1.5-1.1c-0.3-0.5-0.5-1-0.5-1.5c-0.1-0.5-0.1-1.1-0.1-2V59.4
		L60.3,60c-1.5,1.1-2.7,1.7-3.7,1.7c-1.1,0-2.2-0.5-3.2-1.6c-1.3-1.5-2-2.7-2-3.7c0-0.9,0.7-2,2-3.2l8.9-8.1l0.2-0.1
		C63.5,44.1,64.6,43.6,65.9,43.6z"/>
</g>
</svg>
