<?xml version="1.0" encoding="utf-8"?>
<!-- Generator: Adobe Illustrator 19.0.0, SVG Export Plug-In . SVG Version: 6.00 Build 0)  -->
<svg version="1.1" xmlns="http://www.w3.org/2000/svg" xmlns:xlink="http://www.w3.org/1999/xlink" x="0px" y="0px"
	 viewBox="0 0 128 128" style="enable-background:new 0 0 128 128;" xml:space="preserve">
<style type="text/css">
	.st0{fill:#3E2765;}
	.st1{fill:#EDC43C;}
	.st2{fill:#F15F3C;}
	.st3{fill:#FFFFFF;}
</style>
<g id="Layer_1">
	<rect id="XMLID_2_" class="st0" width="128" height="128"/>
	<rect id="XMLID_3_" x="69.1" y="5.1" class="st1" width="53.9" height="53.9"/>
	<rect id="XMLID_4_" x="69.5" y="69.5" class="st2" width="53" height="53"/>
	<g id="XMLID_8_">
		<path id="XMLID_9_" class="st3" d="M48,89.1c-0.6-0.6-1.6-0.6-2.2,0l-1.1-1.1l2.2-2.2c8.7-8.7,10.8-25.9,0-36.8L29.6,31.8
			c-1.2-1.2-2.7-1.8-4.3-1.8c-1.6,0-3.2,0.6-4.3,1.8c-1.2,1.2-1.8,2.7-1.8,4.3c0,0.3,0,0.6,0.1,0.9l13.7,13.7l-1.7,1.7L20.3,41.5
			c-0.6,0.3-1.1,0.6-1.6,1.1c-1.2,1.2-1.8,2.7-1.8,4.3c0,0.3,0,0.7,0.1,1l14.2,14.2l-1.7,1.7L18.1,52.3c-0.5,0.3-1.1,0.6-1.5,1.1
			c-1.2,1.2-1.8,2.7-1.8,4.3c0,0.2,0,0.4,0.1,0.7L30,73.5l-1.7,1.7L15,62c-0.6,0.3-1.2,0.7-1.7,1.2c-1.2,1.2-1.8,2.7-1.8,4.3
			c0,1.6,0.6,3.2,1.8,4.3l27,27c1.2,1.2,2.7,1.8,4.3,1.8c1.6,0,3.2-0.6,4.3-1.8c1.2-1.2,1.8-2.7,1.8-4.3c0-1.6-0.6-3.2-1.8-4.3
			L48,89.1z"/>
	</g>
	<g id="XMLID_5_">
		<path id="XMLID_15_" class="st3" d="M85.4,44.7V27.2h-4.9v-3.8c1.1,0,2.3-0.4,3.4-1.1c1.2-0.7,2-1.9,2.5-3.6h1.5
			c0.8,0,1.4,0.3,1.9,0.8c0.5,0.5,0.8,1.1,0.8,1.9v23.3H85.4z"/>
		<path id="XMLID_17_" class="st3" d="M98.6,29.3c0.6-0.6,1.3-1,2.2-1.4c1.1-0.4,2-0.5,2.9-0.5c2.6,0,4.7,0.8,6.3,2.3
			c1.6,1.7,2.3,3.7,2.3,6.2c0,2.7-0.9,5-2.6,6.7c-1.7,1.6-4,2.4-6.9,2.4c-3.3,0-5.7-1.1-7.4-3.2c-1.6-2.1-2.4-5.3-2.4-9.6
			c0-4.6,0.9-8,2.6-10.4c1.8-2.4,4.4-3.6,7.8-3.6c2.4,0,4.3,0.6,5.7,1.8c1.4,1.3,2.2,2.9,2.4,4.9h-3.9c-0.5,0-0.9-0.2-1.2-0.5
			s-0.6-0.6-0.9-1c-0.3-0.3-0.7-0.5-1.1-0.8c-0.4-0.3-1-0.4-1.7-0.4c-1.3,0-2.3,0.6-3.1,1.7C99,25.3,98.6,27,98.6,29.3z M98.7,36.1
			c0,1.5,0.4,2.6,1.1,3.5c0.7,0.9,1.7,1.3,3.1,1.3c1.3,0,2.3-0.4,2.9-1.3c0.7-0.9,1.1-2,1.1-3.5c0-1.4-0.4-2.5-1.1-3.2
			c-0.7-0.8-1.7-1.1-3-1.1c-1.3,0-2.3,0.4-3,1.1C99,33.6,98.7,34.7,98.7,36.1z"/>
	</g>
	<g id="XMLID_6_">
		<path id="XMLID_7_" class="st3" d="M83.4,95.4c0.4-0.4,1-0.8,1.8-1.1c0.9-0.3,1.6-0.4,2.3-0.4c2.1,0,3.8,0.6,5.1,1.9
			c1.3,1.3,1.9,3,1.9,5c0,2.2-0.7,4-2.1,5.4c-1.4,1.3-3.2,2-5.6,2c-2.6,0-4.6-0.9-6-2.6c-1.3-1.7-2-4.3-2-7.8c0-3.7,0.7-6.5,2.1-8.4
			c1.5-2,3.6-2.9,6.3-2.9c1.9,0,3.5,0.5,4.6,1.5c1.1,1,1.8,2.3,2,4h-3.2c-0.4,0-0.7-0.1-0.9-0.4c-0.2-0.2-0.5-0.5-0.7-0.8
			c-0.2-0.2-0.5-0.4-0.9-0.6c-0.3-0.2-0.8-0.3-1.4-0.3c-1.1,0-1.9,0.5-2.5,1.4C83.8,92.1,83.4,93.5,83.4,95.4z M83.5,100.9
			c0,1.2,0.3,2.1,0.9,2.9c0.6,0.7,1.4,1,2.5,1c1.1,0,1.9-0.3,2.4-1c0.6-0.7,0.9-1.7,0.9-2.9c0-1.1-0.3-2-0.9-2.6
			c-0.6-0.6-1.4-0.9-2.4-0.9c-1,0-1.8,0.3-2.4,0.9C83.7,98.9,83.5,99.8,83.5,100.9z"/>
		<path id="XMLID_12_" class="st3" d="M106.4,107.8v-4.7h-9.2v-3.8l8-12.5h3.2c0.6,0,1.1,0.2,1.5,0.6c0.4,0.4,0.6,0.9,0.7,1.5v1.3
			v9.5h2.5v3.4h-2.5v4.7H106.4z M106.5,99.8v-9.3l-5.9,9.3H106.5z"/>
	</g>
</g>
<g id="Layer_2">
</g>
</svg>
