<?xml version="1.0" encoding="utf-8"?>
<!-- Generator: Adobe Illustrator 19.0.0, SVG Export Plug-In . SVG Version: 6.00 Build 0)  -->
<svg version="1.1" id="Layer_1" xmlns="http://www.w3.org/2000/svg" xmlns:xlink="http://www.w3.org/1999/xlink" x="0px" y="0px"
	 viewBox="-329 388.9 128 128" style="enable-background:new -329 388.9 128 128;" xml:space="preserve">
<style type="text/css">
	.st0{fill:#2C3E51;}
	.st1{fill:#FBFCFB;}
</style>
<rect x="-329" y="388.9" class="st0" width="128" height="128"/>
<g>
	<path class="st1" d="M-283,420.1v21.2h-5.8v-14.6l-4.2,1.8l-2.2-4.6l8.4-3.6h3.8V420.1z"/>
</g>
<g>
	<path class="st1" d="M-234.8,419.5c1.8,0,3.2,0.2,4.6,0.8c1.2,0.6,2.2,1.4,3,2.4c0.6,1,1,2.2,1,3.4c0,1-0.4,2-1,2.8
		c-0.6,1-1.2,1.6-2,2c0.8,0.4,1.6,1,2.2,2.2c0.6,1,1,2.2,1,3.4c0,1.4-0.4,2.6-1.2,3.8c-0.8,1.2-1.8,2-3.4,2.6s-3,1-5,1
		c-1.4,0-2.8-0.2-4.4-0.8c-1.6-0.4-3-1.2-4.2-2l3-3.8c1,0.6,2,1.2,2.8,1.4c0.8,0.2,1.8,0.4,2.8,0.4s1.8-0.2,2.6-0.8
		c0.6-0.6,1-1.2,1-2c0-1-0.4-1.6-1-2.2s-1.8-0.8-3-0.8h-2.8l-0.2-4.2h2.8c1.2,0,2.2-0.2,3-0.6s1.2-1,1.2-1.8c0-0.6-0.2-1.2-0.8-1.6
		c-0.6-0.4-1.4-0.6-2.4-0.6c-1.6,0-3.4,0.6-5.2,1.8l-2.8-4C-240.8,420.5-238,419.5-234.8,419.5z"/>
</g>
<g>
	<path class="st1" d="M-294,473.7c0-1.2,0.4-2.4,1-3.4c0.8-1,1.8-1.8,3-2.4s2.8-0.8,4.4-0.8s3,0.2,4.2,0.8c1.2,0.6,2.2,1.4,3,2.4
		c0.8,1,1.2,2.2,1.2,3.4c0,0.8-0.2,1.8-0.8,2.6c-0.6,0.8-1.2,1.4-2,2c1,0.4,1.8,1.2,2.6,2.4c0.8,1,1,2.2,1,3.2c0,1.4-0.4,2.8-1.2,4
		c-0.8,1.2-1.8,2-3.2,2.8c-1.4,0.6-3,1-5,1s-3.6-0.4-5-1c-1.4-0.6-2.6-1.6-3.2-2.6c-0.8-1.2-1.2-2.4-1.2-4c0-1.2,0.4-2.2,1-3.2
		c0.8-1,1.6-1.8,2.6-2.4c-0.8-0.4-1.4-1.2-2-2C-293.8,475.5-294,474.7-294,473.7z M-282,483.7c0-0.8-0.4-1.4-1-2.2
		c-0.6-0.6-1.6-1-2.6-1.2c-1.2,0.2-2,0.6-2.6,1.2c-0.6,0.6-1,1.4-1,2.2c0,0.8,0.4,1.6,1,2.2c0.8,0.6,1.6,0.8,2.6,0.8
		s1.8-0.2,2.6-0.8C-282.4,485.3-282,484.5-282,483.7z M-283,473.9c0-0.6-0.2-1-0.8-1.6c-0.4-0.4-1.2-0.6-2-0.6c-0.8,0-1.4,0.2-2,0.6
		c-0.4,0.4-0.8,1-0.8,1.6s0.2,1.2,0.8,1.6c0.4,0.4,1.2,0.8,2,0.8c0.8-0.2,1.6-0.4,2-0.8C-283.4,475.1-283,474.5-283,473.9z"/>
</g>
<g>
	<path class="st1" d="M-224,476.1c0,3.2-0.8,5.8-2.6,7.8c-1.8,2-3.8,3.6-6.2,4.6c-2.4,1-4.8,1.6-7.2,1.8l-0.6-5.2
		c2.2-0.4,4-1,5.6-1.6c1.6-0.6,2.8-1.4,3.6-2.6c-1,0.4-2,0.6-3,0.6c-1.6,0-3.2-0.4-4.4-1c-1.4-0.6-2.4-1.6-3.2-2.8
		c-0.8-1.2-1.2-2.4-1.2-4c0-1.6,0.4-2.8,1.2-4c0.8-1.2,1.8-2,3-2.8c1.2-0.8,2.8-1,4.6-1c2,0,3.8,0.4,5.4,1.2c1.6,0.8,2.8,2,3.6,3.4
		C-224.4,472.5-224,474.1-224,476.1z M-234,477.7c1.4,0,2.6-0.4,4-1.4c0-1.6-0.4-3-1.2-3.8c-0.8-0.8-1.8-1.4-3-1.4
		c-0.8,0-1.6,0.4-2.2,1c-0.6,0.6-1,1.4-1,2.2c0,1,0.4,1.8,1,2.4C-235.8,477.3-235,477.7-234,477.7z"/>
</g>
<path class="st1" d="M-286.4,406.1c-13.4,0-24.4,11-24.4,24.4s11,24.4,24.4,24.4s24.4-11,24.4-24.4S-272.8,406.1-286.4,406.1z
	 M-286.4,452.3c-12,0-21.8-9.8-21.8-21.8s9.8-21.8,21.8-21.8s21.8,9.8,21.8,21.8S-274.2,452.3-286.4,452.3z"/>
</svg>
