<?xml version="1.0" encoding="utf-8"?>
<!-- Generator: Adobe Illustrator 19.0.0, SVG Export Plug-In . SVG Version: 6.00 Build 0)  -->
<svg version="1.1" id="Layer_1" xmlns="http://www.w3.org/2000/svg" xmlns:xlink="http://www.w3.org/1999/xlink" x="0px" y="0px"
	 viewBox="-297 356.9 128 128" style="enable-background:new -297 356.9 128 128;" xml:space="preserve">
<style type="text/css">
	.st0{fill:#1AAF5F;}
	.st1{fill:#0A984A;}
	.st2{fill:#FFFFFF;}
	.st3{fill:#F9FFFF;}
	.st4{fill:#08994A;}
</style>
<rect x="-297" y="356.9" class="st0" width="128" height="128"/>
<g>
	<g>
		<path class="st1" d="M-242.6,410.7c0,2.6-0.6,5-2,7c-1.4,2-3.2,3.6-5.6,4.8c-2.4,1.2-5.4,1.8-8.6,1.8c-3.6,0-7-0.8-9.8-2.2
			c-2.8-1.4-5-3.6-6.6-6.2c-1.6-2.6-2.4-5.6-2.4-8.8c0-6,1.6-10.8,4.8-14.4c3.2-3.6,7-6.2,11.6-7.6c4.4-1.4,8.8-2.4,13.4-2.6
			l1.2,10.8l-2.4,0.4c-3.2,0.4-5.8,1-8,1.6s-4,1.8-5.4,3.4c1.4-0.6,2.8-0.8,4.2-0.8c3,0,5.8,0.6,8.2,1.6c2.4,1,4.2,2.6,5.6,4.6
			C-243.2,405.9-242.6,408.1-242.6,410.7z M-254.6,409.9c0-1.4-0.6-2.4-1.6-3.2c-1-0.8-2.2-1.2-3.8-1.2s-3.4,0.6-5.4,2
			c0.2,2.2,0.8,4,1.8,5.4s2.6,2,4.4,2c1.2,0,2.2-0.4,3.2-1.4C-255.2,412.3-254.6,411.1-254.6,409.9z"/>
	</g>
	<g>
		<path class="st1" d="M-247,431.1l22.4-23.2l7.4,2.8l-22.6,23.2L-247,431.1z"/>
	</g>
	<g>
		<path class="st1" d="M-186.6,435.3c0,6.4-1.8,11.4-5,15c-3.4,3.8-7.4,6.4-12,8c-4.6,1.6-9.2,2.4-14,2.8l-1.2-11.2l2.4-0.4
			c3.4-0.4,6.2-1,8.4-1.6c2.2-0.6,4.2-1.8,5.6-3.4c-1.4,0.6-2.8,0.8-4.4,0.8c-3.2,0-6-0.6-8.6-1.8c-2.6-1.2-4.4-2.8-6-4.8
			c-1.4-2-2.2-4.4-2.2-7.2c0-2.8,0.6-5.2,2-7.2c1.4-2.2,3.4-3.8,6-5c2.6-1.2,5.6-1.8,9-1.8c3.8,0,7.2,0.8,10.2,2.2
			c3,1.6,5.4,3.6,7,6.4C-187.4,428.9-186.6,431.9-186.6,435.3z M-205.2,437.1c1.8,0,3.6-0.8,5.6-2.2c-0.2-2.2-0.8-4.2-2-5.6
			c-1.2-1.4-2.6-2.2-4.6-2.2c-1.2,0-2.4,0.4-3.4,1.4s-1.4,2.2-1.4,3.6c0,1.4,0.6,2.6,1.6,3.4C-208,436.7-206.8,437.1-205.2,437.1z"
			/>
	</g>
</g>
<g>
	<g>
		<path class="st2" d="M-242.6,407.7c0,2.6-0.6,5-2,7c-1.4,2-3.2,3.6-5.6,4.8c-2.4,1.2-5.4,1.8-8.6,1.8c-3.6,0-7-0.8-9.8-2.2
			c-2.8-1.4-5-3.6-6.6-6.2c-1.6-2.6-2.4-5.6-2.4-8.8c0-6,1.6-10.8,4.8-14.4c3.2-3.6,7-6.2,11.6-7.6c4.4-1.4,8.8-2.4,13.4-2.6
			l1.2,10.8l-2.4,0.4c-3.2,0.4-5.8,1-8,1.6s-4,1.8-5.4,3.4c1.4-0.6,2.8-0.8,4.2-0.8c3,0,5.8,0.6,8.2,1.6c2.4,1,4.2,2.6,5.6,4.6
			C-243.2,402.9-242.6,405.1-242.6,407.7z M-254.8,406.7c0-1.4-0.6-2.4-1.6-3.2c-1-0.8-2.2-1.2-3.8-1.2c-1.6,0-3.4,0.6-5.4,2
			c0.2,2.2,0.8,4,1.8,5.4c1,1.4,2.6,2,4.4,2c1.2,0,2.2-0.4,3.2-1.4C-255.2,409.3-254.8,408.1-254.8,406.7z"/>
	</g>
	<g>
		<path class="st2" d="M-247.2,428.1l22.4-23.2l7.4,2.8l-22.4,23.2L-247.2,428.1z"/>
	</g>
	<g>
		<path class="st3" d="M-186.6,432.3c0,6.4-1.8,11.4-5,15c-3.4,3.8-7.4,6.4-12,8c-4.6,1.6-9.2,2.4-14,2.8l-1.4-11.4l2.4-0.4
			c3.4-0.4,6.2-1,8.4-1.6c2.2-0.6,4.2-1.8,5.6-3.4c-1.4,0.6-2.8,0.8-4.4,0.8c-3.2,0-6-0.6-8.6-1.8c-2.6-1.2-4.4-2.8-6-4.8
			c-1.4-2-2.2-4.4-2.2-7.2c0-2.8,0.6-5.2,2-7.2c1.4-2.2,3.4-3.8,6-5c2.6-1.2,5.6-1.8,9-1.8c3.8,0,7.2,0.8,10.2,2.2
			c3,1.6,5.4,3.6,7,6.4C-187.4,425.7-186.6,428.9-186.6,432.3z M-205.2,434.1c1.8,0,3.6-0.8,5.6-2.2c-0.2-2.2-0.8-4.2-2-5.6
			c-1.2-1.4-2.6-2.2-4.6-2.2c-1.2,0-2.4,0.4-3.4,1.4s-1.4,2.2-1.4,3.6c0,1.4,0.6,2.6,1.6,3.4C-208.2,433.7-206.8,434.1-205.2,434.1z
			"/>
	</g>
</g>
<g>
	<path class="st4" d="M-205.8,380.5c2-1.2,4.2-1.8,6.4-1.8c1.6,0,3,0.2,4.2,0.8c1.2,0.6,2.2,1.2,2.8,2.2c0.6,1,1,2,1,3.4
		c0,1.4-0.4,2.6-1.4,3.6s-2.4,2-4.6,2.6l-0.4,3.8l-4.8-1.4l-0.2-5.4c1.4-0.4,2.6-1,3.6-1.8c1-0.6,1.4-1.4,1.4-2c0-0.4-0.2-0.8-0.4-1
		c-0.4-0.2-0.8-0.4-1.2-0.4c-1.6,0-3.4,0.6-5.6,1.8L-205.8,380.5z M-203.6,399.1c0-0.8,0.2-1.6,0.8-2.2c0.6-0.6,1.4-0.8,2.2-0.8
		c0.8,0,1.6,0.2,2.2,0.8c0.6,0.6,0.8,1.4,0.8,2.2c0,0.8-0.2,1.6-0.8,2.2s-1.4,0.8-2.2,0.8c-0.8,0-1.6-0.2-2.2-0.8
		C-203.4,400.7-203.6,399.9-203.6,399.1z"/>
</g>
<g>
	<path class="st4" d="M-272,437.1c2-1.2,4.2-1.8,6.4-1.8c1.6,0,3,0.2,4.2,0.8c1.2,0.6,2.2,1.2,2.8,2.2s1,2,1,3.4
		c0,1.4-0.4,2.6-1.4,3.6s-2.4,2-4.6,2.6l-0.4,3.8l-5-1l-0.2-5.4c1.4-0.4,2.6-1,3.6-1.8c1-0.6,1.4-1.4,1.4-2c0-0.4-0.2-0.8-0.4-1
		c-0.4-0.2-0.8-0.4-1.2-0.4c-1.6,0-3.4,0.6-5.6,1.8L-272,437.1z M-270,455.7c0-0.8,0.2-1.6,0.8-2.2c0.6-0.6,1.4-0.8,2.2-0.8
		s1.6,0.2,2.2,0.8c0.6,0.6,0.8,1.4,0.8,2.2c0,0.8-0.2,1.6-0.8,2.2c-0.6,0.6-1.4,0.8-2.2,0.8s-1.6-0.2-2.2-0.8
		C-269.8,457.3-270,456.5-270,455.7z"/>
</g>
</svg>
