<?xml version="1.0" encoding="utf-8"?>
<!-- Generator: Adobe Illustrator 19.0.0, SVG Export Plug-In . SVG Version: 6.00 Build 0)  -->
<svg version="1.1" id="Layer_1" xmlns="http://www.w3.org/2000/svg" xmlns:xlink="http://www.w3.org/1999/xlink" x="0px" y="0px"
	 viewBox="-297 356.9 128 128" style="enable-background:new -297 356.9 128 128;" xml:space="preserve">
<style type="text/css">
	.st0{fill:#00A4F1;}
	.st1{fill:#FFC602;}
	.st2{fill:#E9134E;}
	.st3{fill:#FBF9FD;}
</style>
<rect x="-297" y="356.9" class="st0" width="128" height="128"/>
<rect x="-297" y="399.3" class="st1" width="128" height="43.6"/>
<rect x="-297" y="356.9" class="st2" width="128" height="43.6"/>
<g>
	<path class="st3" d="M-257.4,372.9l-4.8,12.4v5.8h-4.4v-5.8l-4.4-11.6l4.2-1.2l2.4,7.4l2.4-7H-257.4z"/>
	<path class="st3" d="M-250.2,372.3c1.2,0,2.4,0.2,3.2,0.8s1.6,1.4,2,2.4s0.6,2,0.6,3.2v1.4h-7.6c0.2,0.6,0.4,1,1,1.2
		c0.4,0.2,1,0.4,1.8,0.4c1.2,0,2.4-0.2,3.4-0.8l1.4,3.2c-0.6,0.4-1.2,0.6-2.2,1s-2,0.4-3,0.4c-1.4,0-2.8-0.2-3.8-0.8s-2-1.2-2.6-2.2
		s-1-2.2-1-3.6c0-1.4,0.2-2.6,0.8-3.6c0.6-1,1.4-1.8,2.4-2.4C-252.6,372.7-251.4,372.3-250.2,372.3z M-250.2,376.1
		c-0.4,0-0.8,0.2-1.2,0.6c-0.4,0.4-0.4,0.8-0.4,1.2h3.2c0-0.4-0.2-0.8-0.4-1.2C-249.4,376.3-249.8,376.1-250.2,376.1z"/>
	<path class="st3" d="M-237.6,367.1v18h-4.6v-17.6L-237.6,367.1z"/>
	<path class="st3" d="M-229.8,367.1v18h-4.6v-17.6L-229.8,367.1z"/>
	<path class="st3" d="M-220.8,385.5c-2,0-3.8-0.6-5-1.6s-2-2.8-2-4.8c0-1.4,0.4-2.6,1-3.6s1.4-1.8,2.6-2.2c1-0.6,2.2-0.8,3.6-0.8
		s2.6,0.2,3.6,0.8s1.8,1.2,2.4,2.2s0.8,2.2,0.8,3.6s-0.4,2.6-1,3.4c-0.6,1-1.4,1.8-2.6,2.2C-218.6,385.1-219.6,385.5-220.8,385.5z
		 M-218.6,379.1c0-0.8-0.2-1.6-0.6-2c-0.4-0.6-1-0.8-1.6-0.8c-0.8,0-1.2,0.2-1.6,0.8c-0.4,0.4-0.6,1.2-0.6,2c0,0.8,0.2,1.6,0.6,2
		s1,0.8,1.6,0.8c0.8,0,1.2-0.2,1.6-0.6S-218.6,379.9-218.6,379.1z"/>
	<path class="st3" d="M-192.8,372.9l-4.2,12.4h-4.2l-2-6.4l-2,6.4h-4.2l-3.6-11.8l4.2-1.2l1.8,7.4l1.8-6.8h4.4l1.8,7l1.6-7H-192.8z"
		/>
</g>
<g>
	<path class="st3" d="M-244.2,423.9c0,2.2-0.6,3.8-1.8,5c-1.2,1.2-2.8,1.6-4.8,1.6c-1.2,0-2.2-0.4-3.2-1l-0.8,0.8h-2.2v-17.8
		l4.6-0.2v5.6c0.6-0.2,1.2-0.4,1.8-0.4c2,0,3.4,0.6,4.6,1.6S-244.2,421.7-244.2,423.9z M-249,423.9c0-1-0.2-1.6-0.6-2.2
		c-0.4-0.6-1-0.8-1.6-0.8c-0.4,0-0.8,0.2-1.2,0.4v5.2c0.4,0.2,1,0.4,1.4,0.4c0.6,0,1-0.2,1.4-0.8C-249.2,425.5-249,424.7-249,423.9z
		"/>
	<path class="st3" d="M-237.6,412.1v18h-4.6v-17.8L-237.6,412.1z"/>
	<path class="st3" d="M-228.8,426.9c0.2,0,0.6,0,1.2-0.2c0.4-0.2,1-0.4,1.4-0.4v-8.4h4.6v12.4h-2.2l-1.6-1.4c-1.8,1.2-3.4,1.6-5,1.6
		c-1.4,0-2.6-0.4-3.4-1.4c-0.8-0.8-1.2-2-1.2-3.4v-8h4.6v7.6c0,0.4,0.2,0.8,0.4,1C-229.8,426.5-229.4,426.9-228.8,426.9z"/>
	<path class="st3" d="M-213.2,417.3c1.2,0,2.4,0.2,3.2,0.8c0.8,0.6,1.6,1.4,2,2.4c0.4,1,0.6,2,0.6,3.2v1.4h-7.6c0.2,0.6,0.4,1,1,1.2
		c0.4,0.2,1,0.4,1.8,0.4c1.2,0,2.4-0.2,3.4-0.8l1.4,3.2c-0.6,0.4-1.2,0.6-2.2,1s-2,0.4-3,0.4c-1.4,0-2.8-0.2-3.8-0.8s-2-1.2-2.6-2.2
		c-0.6-1-1-2.2-1-3.6c0-1.4,0.2-2.6,0.8-3.6s1.4-1.8,2.4-2.4C-215.6,417.7-214.6,417.3-213.2,417.3z M-213.4,421.1
		c-0.4,0-0.8,0.2-1.2,0.6c-0.2,0.2-0.4,0.8-0.4,1.2h3.2c0-0.4-0.2-0.8-0.4-1.2C-212.4,421.3-213,421.1-213.4,421.1z"/>
</g>
<g>
	<path class="st3" d="M-245.4,464.9c0,2.2-0.6,3.8-1.8,5c-1.2,1.2-2.8,1.6-4.8,1.6c-0.6,0-1.2,0-1.6-0.2v5.8h-4.6v-18.2h2.4l0.8,0.8
		c0.6-0.4,1-0.6,1.6-0.8c0.6-0.2,1.2-0.4,1.8-0.4c2,0,3.4,0.6,4.6,1.6C-246,461.1-245.4,462.7-245.4,464.9z M-250.2,464.9
		c0-1-0.2-1.6-0.6-2.2c-0.4-0.6-1-0.8-1.6-0.8c-0.4,0-0.8,0.2-1.2,0.4v5.2c0.4,0.2,1,0.4,1.4,0.4c0.6,0,1-0.2,1.4-0.8
		C-250.4,466.5-250.2,465.7-250.2,464.9z"/>
	<path class="st3" d="M-238.8,454.7c0,0.6-0.2,1.2-0.8,1.8c-0.6,0.4-1.2,0.8-1.8,0.8c-0.6,0-1.2-0.2-1.8-0.8c-0.4-0.4-0.8-1-0.8-1.8
		c0-0.6,0.2-1.2,0.8-1.8c0.4-0.6,1-0.8,1.8-0.8c0.6,0,1.2,0.2,1.8,0.8C-239,453.3-238.8,453.9-238.8,454.7z M-239,458.9v12.4h-4.6
		v-12.4H-239z"/>
	<path class="st3" d="M-229.2,462.1c-0.2,0-0.6,0-1.2,0.2c-0.4,0.2-1,0.4-1.4,0.4v8.4h-4.6v-12.2h2.8l0.8,1.2c1.8-1.2,3.4-1.6,5-1.6
		c1.4,0,2.6,0.4,3.4,1.4c0.8,0.8,1.2,2,1.2,3.4v8h-4.6v-7.6c0-0.4-0.2-0.8-0.4-1C-228.4,462.5-228.8,462.1-229.2,462.1z"/>
	<path class="st3" d="M-216,467.3v4h-4.6v-17.8l4.6-0.2v9.2l4.6-4l2.8,3.2l-3.2,2.4l4.2,7h-5l-2.4-4.6L-216,467.3z"/>
</g>
</svg>
