<?xml version="1.0" encoding="utf-8"?>
<!-- Generator: Adobe Illustrator 19.0.0, SVG Export Plug-In . SVG Version: 6.00 Build 0)  -->
<svg version="1.1" id="Layer_1" xmlns="http://www.w3.org/2000/svg" xmlns:xlink="http://www.w3.org/1999/xlink" x="0px" y="0px"
	 viewBox="-297 356.9 128 128" style="enable-background:new -297 356.9 128 128;" xml:space="preserve">
<style type="text/css">
	.st0{fill:#682F9C;}
	.st1{fill:#DCC6E2;}
</style>
<rect x="-297" y="356.9" class="st0" width="128" height="128"/>
<polygon class="st1" points="-259,374.5 -252,388.5 -236.8,390.7 -247.8,401.5 -245.2,416.7 -259,409.5 -272.6,416.7 -270,401.5 
	-281.2,390.7 -265.8,388.5 "/>
<polygon class="st1" points="-259,423.7 -252,437.7 -236.8,439.9 -247.8,450.7 -245.2,465.9 -259,458.7 -272.6,465.9 -270,450.7 
	-281.2,439.9 -265.8,437.7 "/>
<circle class="st1" cx="-207.2" cy="395.7" r="17.6"/>
<polygon class="st1" points="-207.2,423.7 -200.4,437.5 -185,439.9 -196.2,450.7 -193.6,465.9 -207.2,458.7 -221,465.9 
	-218.4,450.7 -229.4,439.9 -214.2,437.5 "/>
</svg>
