<?xml version="1.0" encoding="utf-8"?>
<!-- Generator: Adobe Illustrator 19.0.0, SVG Export Plug-In . SVG Version: 6.00 Build 0)  -->
<svg version="1.1" id="Layer_1" xmlns="http://www.w3.org/2000/svg" xmlns:xlink="http://www.w3.org/1999/xlink" x="0px" y="0px"
	 viewBox="0 13.7 128 102.3" style="enable-background:new 0 13.7 128 102.3;" xml:space="preserve">
<style type="text/css">
	.st0{fill:#00AA8D;}
	.st1{fill:#432918;}
	.st2{fill:#F2BA49;}
	.st3{fill:#FFD34D;}
	.st4{fill:#2E2D7C;}
	.st5{fill:#3F3F8E;}
	.st6{fill:#1F1F63;}
</style>
<g id="XMLID_87_">
	<g id="XMLID_92_">
		<g id="XMLID_184_">
			<path id="XMLID_64_" class="st0" d="M50.3,91.3c0,0,3.4,1.2,4.5,3.8c1.4,3.4,0.8,6.2,0.8,6.2s-3.4-1.8-4.5-3.6
				C49.5,95.2,50.3,91.3,50.3,91.3z"/>
			<path id="XMLID_63_" class="st0" d="M44.4,106c0,0,3.4,1,5.9-0.5c3.1-1.9,4.3-4.5,4.3-4.5s-3.8-0.6-5.7,0.2
				C46,102.4,44.4,106,44.4,106z"/>
		</g>
		<g id="XMLID_181_">
			<path id="XMLID_62_" class="st0" d="M45.1,88.4c0,0,3,1.7,3.7,4.5c0.8,3.5-0.3,6.1-0.3,6.1s-3-2.3-3.7-4.2
				C43.6,92,45.1,88.4,45.1,88.4z"/>
			<path id="XMLID_61_" class="st0" d="M36.8,101.6c0,0,3.1,1.6,5.8,0.5c3.3-1.3,4.9-3.6,4.9-3.6s-3.5-1.2-5.6-0.7
				C39,98.4,36.8,101.6,36.8,101.6z"/>
		</g>
		<g id="XMLID_178_">
			<path id="XMLID_60_" class="st0" d="M40.3,84.6c0,0,2.7,2.1,2.8,4.9c0.2,3.5-1.3,5.8-1.3,5.8s-2.4-2.6-2.9-4.6
				C38.3,87.9,40.3,84.6,40.3,84.6z"/>
			<path id="XMLID_59_" class="st0" d="M30.2,96c0,0,2.7,2.1,5.5,1.5c3.4-0.7,5.3-2.7,5.3-2.7s-3.2-1.7-5.3-1.7
				C32.8,93.3,30.2,96,30.2,96z"/>
		</g>
		<g id="XMLID_175_">
			<path id="XMLID_58_" class="st0" d="M36.4,80.1c0,0,2.2,2.5,1.8,5.2c-0.4,3.4-2.2,5.4-2.2,5.4s-1.9-3-2-5
				C33.9,82.9,36.4,80.1,36.4,80.1z"/>
			<path id="XMLID_57_" class="st0" d="M24.6,89.3c0,0,2.3,2.5,5,2.4c3.4-0.1,5.6-1.7,5.6-1.7s-2.8-2.2-4.8-2.5
				C27.6,87.1,24.6,89.3,24.6,89.3z"/>
		</g>
		<g id="XMLID_172_">
			<path id="XMLID_56_" class="st0" d="M33.2,74.9c0,0,1.7,2.8,0.9,5.4c-1,3.2-3.1,4.8-3.1,4.8s-1.3-3.2-1.1-5.2
				C30.3,77.2,33.2,74.9,33.2,74.9z"/>
			<path id="XMLID_55_" class="st0" d="M20.3,81.8c0,0,1.8,2.8,4.4,3.2c3.3,0.5,5.7-0.7,5.7-0.7s-2.3-2.6-4.2-3.2
				C23.6,80.3,20.3,81.8,20.3,81.8z"/>
		</g>
		<g id="XMLID_169_">
			<path id="XMLID_54_" class="st0" d="M31,69.3c0,0,1.2,3-0.1,5.3c-1.5,2.9-3.8,4.1-3.8,4.1s-0.7-3.4-0.1-5.2
				C27.9,71,31,69.3,31,69.3z"/>
			<path id="XMLID_53_" class="st0" d="M17.4,73.8c0,0,1.3,3,3.7,3.8c3.1,1,5.6,0.3,5.6,0.3s-1.8-2.9-3.5-3.8
				C20.8,72.8,17.4,73.8,17.4,73.8z"/>
		</g>
		<g id="XMLID_166_">
			<path id="XMLID_52_" class="st0" d="M29.8,63.5c0,0,0.6,3.1-1,5.1c-2,2.6-4.4,3.3-4.4,3.3s-0.1-3.4,0.7-5
				C26.5,64.6,29.8,63.5,29.8,63.5z"/>
			<path id="XMLID_51_" class="st0" d="M15.9,65.5c0,0,0.7,3.1,3,4.3c2.8,1.5,5.4,1.3,5.4,1.3s-1.3-3.2-2.8-4.4
				C19.4,65.1,15.9,65.5,15.9,65.5z"/>
		</g>
		<g id="XMLID_163_">
			<path id="XMLID_50_" class="st0" d="M29.6,57.4c0,0,0.1,3.1-1.8,4.8c-2.3,2.2-4.8,2.5-4.8,2.5s0.4-3.3,1.6-4.7
				C26.2,57.9,29.6,57.4,29.6,57.4z"/>
			<path id="XMLID_49_" class="st0" d="M15.9,57c0,0,0.2,3.1,2.1,4.7c2.5,2,4.9,2.1,4.9,2.1s-0.7-3.2-1.9-4.6
				C19.3,57.2,15.9,57,15.9,57z"/>
		</g>
		<g id="XMLID_160_">
			<path id="XMLID_48_" class="st0" d="M30.5,51.3c0,0-0.5,3-2.6,4.3c-2.6,1.7-5,1.6-5,1.6s1-3.1,2.3-4.3
				C27.1,51.2,30.5,51.3,30.5,51.3z"/>
			<path id="XMLID_47_" class="st0" d="M17.3,48.5c0,0-0.4,3,1.3,4.9c2,2.3,4.4,2.9,4.4,2.9s-0.1-3.2-1-4.8
				C20.6,49.3,17.3,48.5,17.3,48.5z"/>
		</g>
		<g id="XMLID_157_">
			<path id="XMLID_46_" class="st0" d="M32.4,45.3c0,0-1,2.8-3.2,3.7c-2.8,1.2-5.1,0.7-5.1,0.7s1.5-2.8,3-3.7
				C29.2,44.6,32.4,45.3,32.4,45.3z"/>
			<path id="XMLID_45_" class="st0" d="M20.2,40.3c0,0-0.9,2.8,0.4,4.9c1.6,2.6,3.8,3.6,3.8,3.6s0.5-3.1-0.2-4.8
				C23.2,41.7,20.2,40.3,20.2,40.3z"/>
		</g>
		<g id="XMLID_154_">
			<path id="XMLID_44_" class="st0" d="M35.4,39.7c0,0-1.4,2.5-3.7,3.1c-2.9,0.6-5.1-0.2-5.1-0.2s1.9-2.5,3.5-3.1
				C32.4,38.5,35.4,39.7,35.4,39.7z"/>
			<path id="XMLID_43_" class="st0" d="M24.4,32.9c0,0-1.3,2.6-0.5,4.8c1.1,2.8,3,4.1,3,4.1s1-2.9,0.6-4.7
				C27.1,34.7,24.4,32.9,24.4,32.9z"/>
		</g>
		<g id="XMLID_151_">
			<path id="XMLID_42_" class="st0" d="M39.3,34.7c0,0-1.8,2.2-4.1,2.3c-2.9,0.1-4.8-1.1-4.8-1.1s2.2-2.1,3.9-2.4
				C36.7,33.1,39.3,34.7,39.3,34.7z"/>
			<path id="XMLID_41_" class="st0" d="M29.9,26.3c0,0-1.7,2.3-1.3,4.6c0.6,2.8,2.2,4.4,2.2,4.4s1.5-2.7,1.4-4.4
				C32.2,28.5,29.9,26.3,29.9,26.3z"/>
		</g>
		<g id="XMLID_148_">
			<path id="XMLID_40_" class="st0" d="M44,30.6c0,0-2.1,1.8-4.4,1.5c-2.8-0.4-4.5-1.9-4.5-1.9s2.5-1.6,4.2-1.7
				C41.7,28.5,44,30.6,44,30.6z"/>
			<path id="XMLID_39_" class="st0" d="M36.4,20.8c0,0-2,1.9-2,4.2c0.1,2.8,1.4,4.7,1.4,4.7s1.9-2.3,2.1-4
				C38.2,23.3,36.4,20.8,36.4,20.8z"/>
		</g>
		<g id="XMLID_145_">
			<path id="XMLID_38_" class="st0" d="M49.4,27.3c0,0-2.3,1.4-4.5,0.7c-2.7-0.8-4-2.6-4-2.6s2.7-1.1,4.3-0.9
				C47.5,24.9,49.4,27.3,49.4,27.3z"/>
			<path id="XMLID_37_" class="st0" d="M43.6,16.6c0,0-2.3,1.5-2.6,3.7c-0.4,2.8,0.6,4.7,0.6,4.7s2.2-1.9,2.7-3.5
				C44.9,19.3,43.6,16.6,43.6,16.6z"/>
		</g>
		<g id="XMLID_142_">
			<path id="XMLID_36_" class="st0" d="M55.1,25.1c0,0-2.5,1-4.4,0c-2.4-1.3-3.4-3.2-3.4-3.2s2.7-0.7,4.2-0.2
				C53.7,22.4,55.1,25.1,55.1,25.1z"/>
			<path id="XMLID_35_" class="st0" d="M51.3,13.7c0,0-2.5,1-3.2,3.1c-0.9,2.6-0.3,4.7-0.3,4.7s2.4-1.5,3.2-2.9
				C52.2,16.6,51.3,13.7,51.3,13.7z"/>
		</g>
		<path id="XMLID_34_" class="st0" d="M51.5,20.1c0,0,1.8,1,3.5,0.5c2-0.7,3-2.1,3-2.1s-2.1-0.8-3.4-0.6
			C52.9,18.2,51.5,20.1,51.5,20.1z"/>
		<g id="XMLID_138_">
			<path id="XMLID_33_" class="st0" d="M79.7,91.3c0,0-3.4,1.2-4.5,3.8c-1.4,3.4-0.8,6.2-0.8,6.2s3.4-1.8,4.5-3.6
				C80.5,95.2,79.7,91.3,79.7,91.3z"/>
			<path id="XMLID_32_" class="st0" d="M85.6,106c0,0-3.4,1-5.9-0.5c-3.1-1.9-4.3-4.5-4.3-4.5s3.8-0.6,5.7,0.2
				C84,102.4,85.6,106,85.6,106z"/>
		</g>
		<g id="XMLID_135_">
			<path id="XMLID_31_" class="st0" d="M85,88.4c0,0-3.1,1.7-3.7,4.5c-0.8,3.5,0.3,6.1,0.3,6.1s3-2.3,3.7-4.2
				C86.4,92,85,88.4,85,88.4z"/>
			<path id="XMLID_30_" class="st0" d="M93.2,101.6c0,0-3.1,1.6-5.8,0.5c-3.3-1.3-4.9-3.6-4.9-3.6s3.5-1.2,5.6-0.7
				C91,98.4,93.2,101.6,93.2,101.6z"/>
		</g>
		<g id="XMLID_132_">
			<path id="XMLID_29_" class="st0" d="M89.7,84.6c0,0-2.7,2.1-2.8,4.9c-0.2,3.5,1.3,5.8,1.3,5.8s2.5-2.7,2.9-4.7
				C91.7,87.9,89.7,84.6,89.7,84.6z"/>
			<path id="XMLID_28_" class="st0" d="M99.8,96c0,0-2.7,2.1-5.5,1.5c-3.4-0.7-5.3-2.7-5.3-2.7s3.2-1.7,5.3-1.7
				C97.2,93.3,99.8,96,99.8,96z"/>
		</g>
		<g id="XMLID_129_">
			<path id="XMLID_27_" class="st0" d="M93.6,80.1c0,0-2.2,2.5-1.8,5.2c0.4,3.4,2.2,5.4,2.2,5.4s1.9-3,2-5
				C96.1,82.9,93.6,80.1,93.6,80.1z"/>
			<path id="XMLID_26_" class="st0" d="M105.4,89.3c0,0-2.3,2.5-5,2.4C97,91.6,94.8,90,94.8,90s2.8-2.2,4.8-2.5
				C102.4,87.1,105.4,89.3,105.4,89.3z"/>
		</g>
		<g id="XMLID_126_">
			<path id="XMLID_25_" class="st0" d="M96.8,74.9c0,0-1.7,2.8-0.9,5.4c1,3.2,3.1,4.8,3.1,4.8s1.3-3.2,1.1-5.2
				C99.7,77.2,96.8,74.9,96.8,74.9z"/>
			<path id="XMLID_24_" class="st0" d="M109.7,81.8c0,0-1.8,2.8-4.4,3.2c-3.3,0.5-5.7-0.7-5.7-0.7s2.3-2.6,4.2-3.2
				C106.4,80.3,109.7,81.8,109.7,81.8z"/>
		</g>
		<g id="XMLID_123_">
			<path id="XMLID_23_" class="st0" d="M99,69.3c0,0-1.2,3,0.1,5.3c1.5,2.9,3.8,4.1,3.8,4.1s0.7-3.4,0.1-5.2
				C102.1,71,99,69.3,99,69.3z"/>
			<path id="XMLID_22_" class="st0" d="M112.6,73.8c0,0-1.3,3-3.7,3.8c-3.1,1-5.6,0.3-5.6,0.3s1.8-2.9,3.5-3.8
				C109.2,72.8,112.6,73.8,112.6,73.8z"/>
		</g>
		<g id="XMLID_120_">
			<path id="XMLID_21_" class="st0" d="M100.2,63.5c0,0-0.6,3.1,1,5.1c2,2.6,4.4,3.3,4.4,3.3s0.1-3.4-0.7-5
				C103.5,64.6,100.2,63.5,100.2,63.5z"/>
			<path id="XMLID_20_" class="st0" d="M114.1,65.5c0,0-0.7,3.1-3,4.3c-2.8,1.5-5.4,1.3-5.4,1.3s1.2-3.1,2.7-4.3
				C110.6,65.1,114.1,65.5,114.1,65.5z"/>
		</g>
		<g id="XMLID_117_">
			<path id="XMLID_19_" class="st0" d="M100.4,57.4c0,0-0.1,3.1,1.8,4.8c2.3,2.1,4.8,2.5,4.8,2.5s-0.4-3.3-1.6-4.7
				C103.8,57.9,100.4,57.4,100.4,57.4z"/>
			<path id="XMLID_18_" class="st0" d="M114.1,57c0,0-0.2,3.1-2.1,4.7c-2.5,2-4.9,2.1-4.9,2.1s0.7-3.2,1.9-4.6
				C110.7,57.2,114.1,57,114.1,57z"/>
		</g>
		<g id="XMLID_114_">
			<path id="XMLID_17_" class="st0" d="M99.5,51.3c0,0,0.5,3,2.6,4.3c2.6,1.7,5,1.6,5,1.6s-1-3.1-2.3-4.3
				C102.9,51.2,99.5,51.3,99.5,51.3z"/>
			<path id="XMLID_16_" class="st0" d="M112.7,48.5c0,0,0.4,3-1.3,4.9c-2,2.3-4.4,2.9-4.4,2.9s0.1-3.2,1-4.8
				C109.4,49.3,112.7,48.5,112.7,48.5z"/>
		</g>
		<g id="XMLID_111_">
			<path id="XMLID_15_" class="st0" d="M97.6,45.3c0,0,1,2.8,3.2,3.7c2.8,1.2,5.1,0.7,5.1,0.7s-1.5-2.8-3-3.7
				C100.8,44.6,97.6,45.3,97.6,45.3z"/>
			<path id="XMLID_14_" class="st0" d="M109.8,40.3c0,0,0.9,2.8-0.4,4.9c-1.6,2.6-3.8,3.6-3.8,3.6s-0.5-3.1,0.2-4.8
				C106.8,41.7,109.8,40.3,109.8,40.3z"/>
		</g>
		<g id="XMLID_108_">
			<path id="XMLID_13_" class="st0" d="M94.6,39.7c0,0,1.4,2.5,3.7,3.1c2.9,0.6,5.1-0.2,5.1-0.2s-1.9-2.5-3.5-3.1
				C97.6,38.5,94.6,39.7,94.6,39.7z"/>
			<path id="XMLID_12_" class="st0" d="M105.6,32.9c0,0,1.3,2.6,0.5,4.8c-1.1,2.8-3,4.1-3,4.1s-1-2.9-0.6-4.7
				C102.9,34.7,105.6,32.9,105.6,32.9z"/>
		</g>
		<g id="XMLID_105_">
			<path id="XMLID_11_" class="st0" d="M90.7,34.7c0,0,1.8,2.2,4.1,2.3c2.9,0.1,4.8-1.1,4.8-1.1s-2.2-2.1-3.9-2.4
				C93.3,33.1,90.7,34.7,90.7,34.7z"/>
			<path id="XMLID_10_" class="st0" d="M100.1,26.3c0,0,1.7,2.3,1.3,4.6c-0.6,2.8-2.2,4.4-2.2,4.4s-1.5-2.7-1.4-4.4
				C97.8,28.5,100.1,26.3,100.1,26.3z"/>
		</g>
		<g id="XMLID_102_">
			<path id="XMLID_9_" class="st0" d="M86,30.6c0,0,2.1,1.8,4.4,1.5c2.8-0.4,4.5-1.9,4.5-1.9s-2.5-1.6-4.2-1.7
				C88.3,28.5,86,30.6,86,30.6z"/>
			<path id="XMLID_8_" class="st0" d="M93.6,20.8c0,0,2,1.9,2,4.2c-0.1,2.8-1.4,4.7-1.4,4.7s-1.9-2.3-2.1-4
				C91.8,23.3,93.6,20.8,93.6,20.8z"/>
		</g>
		<g id="XMLID_99_">
			<path id="XMLID_7_" class="st0" d="M80.6,27.3c0,0,2.3,1.4,4.5,0.7c2.7-0.8,4-2.6,4-2.6s-2.7-1.1-4.3-0.9
				C82.5,24.9,80.6,27.3,80.6,27.3z"/>
			<path id="XMLID_6_" class="st0" d="M86.4,16.6c0,0,2.3,1.5,2.6,3.7c0.4,2.8-0.6,4.7-0.6,4.7s-2.2-1.9-2.7-3.5
				C85.1,19.3,86.4,16.6,86.4,16.6z"/>
		</g>
		<g id="XMLID_96_">
			<path id="XMLID_5_" class="st0" d="M74.9,25.1c0,0,2.5,1,4.4,0c2.4-1.3,3.4-3.2,3.4-3.2s-2.7-0.7-4.2-0.2
				C76.3,22.4,74.9,25.1,74.9,25.1z"/>
			<path id="XMLID_4_" class="st0" d="M78.7,13.7c0,0,2.5,1,3.2,3.1c0.9,2.6,0.3,4.7,0.3,4.7S79.8,20,79,18.6
				C77.8,16.6,78.7,13.7,78.7,13.7z"/>
		</g>
		<path id="XMLID_3_" class="st0" d="M78.5,20.1c0,0-1.8,1-3.5,0.5c-2-0.7-3-2.1-3-2.1s2.1-0.8,3.4-0.6
			C77.1,18.2,78.5,20.1,78.5,20.1z"/>
	</g>
	<g id="XMLID_90_">
		<path id="XMLID_2_" class="st1" d="M71.5,110.1c0,0-5.3-6.4-17.6-8.5c-12-2.8-26.5-14.5-30.3-31c-4.3-16.3,2.9-33.3,12.2-41.3
			c9.2-8.4,17.9-9.7,17.7-9.8c0.2,0.2-8.4,1.7-17.4,10.1c-9.1,8-16,24.8-11.6,40.7c3.8,16,18,27.2,29.6,29.9
			c2.8,0.4,5.3,1.1,7.4,1.9c8.3,2.9,11.5,6.6,11.5,6.6L71.5,110.1z"/>
	</g>
	<g id="XMLID_88_">
		<path id="XMLID_1_" class="st1" d="M58.5,110.1c0,0,5.3-6.4,17.6-8.5c12-2.8,26.5-14.5,30.3-31c4.3-16.3-2.9-33.3-12.2-41.3
			c-9.2-8.4-17.9-9.7-17.7-9.8c-0.2,0.2,8.4,1.7,17.3,10.1c9.1,8,16,24.8,11.6,40.7c-3.8,16-18,27.2-29.6,29.9
			c-2.8,0.4-5.3,1.1-7.4,1.9c-8.2,2.9-11.4,6.6-11.4,6.6L58.5,110.1z"/>
	</g>
</g>
<g id="XMLID_80_">
	<g id="XMLID_95_">
		<path id="XMLID_78_" class="st2" d="M54.9,80.6C34.7,71.1,29.7,61.2,31.6,55c1.6-4.9,7.2-7.3,14.5-6l-0.9,5.3
			c-4.4-0.8-7.7,0.2-8.4,2.3c-1.1,3.3,3.5,11.2,20.4,19.1L54.9,80.6z"/>
	</g>
	<g id="XMLID_93_">
		<path id="XMLID_77_" class="st2" d="M73.9,80.6l-2.3-4.9C88.5,67.8,93.1,60,92,56.6c-0.7-2.2-4.1-3.1-8.4-2.3L82.7,49
			c7.2-1.3,12.9,1.1,14.5,6C99.1,61.2,94,71.2,73.9,80.6z"/>
	</g>
	<rect id="XMLID_76_" x="61.9" y="73.8" class="st2" width="5" height="27.8"/>
	<path id="XMLID_75_" class="st3" d="M37.8,42.8l13.1,35.5c2.1,5.6,7.5,9.4,13.5,9.4s11.4-3.7,13.4-9.4l13.1-35.5
		C90.9,42.8,37.8,42.8,37.8,42.8z"/>
	<path id="XMLID_74_" class="st3" d="M67.3,101.6h-5.8c-5.3,0-9.6,4.3-9.6,9.6h24.9C76.8,105.8,72.6,101.6,67.3,101.6z"/>
	<rect id="XMLID_73_" x="50.5" y="111.1" class="st2" width="27.8" height="5"/>
	<polygon id="XMLID_72_" class="st2" points="64.4,48.6 67.3,57.8 77,57.8 69.2,63.4 72.2,72.6 64.4,66.9 56.6,72.6 59.5,63.4 
		51.7,57.8 61.4,57.8 	"/>
	<polygon id="XMLID_71_" class="st2" points="47.1,86.4 47.1,83.7 45.6,83.7 45.6,86.4 42.9,86.4 42.9,87.9 45.6,87.9 45.6,90.6 
		47.1,90.6 47.1,87.9 49.8,87.9 49.8,86.4 	"/>
	<circle id="XMLID_70_" class="st3" cx="39.5" cy="79.8" r="1.8"/>
	<polygon id="XMLID_69_" class="st2" points="57,37.4 57,35.3 55.8,35.3 55.8,37.4 53.7,37.4 53.7,38.6 55.8,38.6 55.8,40.8 
		57,40.8 57,38.6 59.2,38.6 59.2,37.4 	"/>
	<circle id="XMLID_68_" class="st3" cx="80.8" cy="86.3" r="1.4"/>
	<circle id="XMLID_67_" class="st3" cx="96.8" cy="43.1" r="1.6"/>
	<circle id="XMLID_66_" class="st3" cx="76.1" cy="34.1" r="2.2"/>
	<circle id="XMLID_65_" class="st2" cx="81.8" cy="36.6" r="1.4"/>
</g>
<g id="XMLID_84_">
	<polygon id="XMLID_83_" class="st4" points="4,91.5 12.7,102.2 4,112.9 4,113.1 31.6,113.1 31.6,91.5 	"/>
	<polygon id="XMLID_82_" class="st4" points="125,91.5 116.3,102.2 125,112.9 125,113.1 97.4,113.1 97.4,91.5 	"/>
	<rect id="XMLID_81_" x="21.7" y="83.6" class="st5" width="85.5" height="23.4"/>
	<polygon id="XMLID_79_" class="st6" points="107.2,107 97.4,113.1 97.4,107 	"/>
	<polygon id="XMLID_85_" class="st6" points="21.8,107 31.7,113.1 31.7,107 	"/>
</g>
<path id="XMLID_86_" class="st3" d="M70.9,104.1c-0.2,0-0.4-0.1-0.6-0.2l-4.7-2.5l-4.7,2.5c-0.2,0.1-0.5,0.2-0.6,0.2
	c-0.2,0-0.3-0.1-0.4-0.2c-0.1-0.2-0.2-0.5-0.1-0.9l0.9-5.2l-3.8-3.7c-0.3-0.3-0.5-0.6-0.4-0.9s0.4-0.4,0.8-0.5l5.2-0.8l2.3-4.7
	c0.2-0.4,0.5-0.6,0.7-0.6c0.3,0,0.5,0.2,0.7,0.6l2.3,4.7l5.2,0.8c0.4,0.1,0.8,0.2,0.8,0.5c0.1,0.2-0.1,0.6-0.4,0.9l-3.8,3.7l0.9,5.2
	c0.1,0.4,0,0.7-0.1,0.9C71.2,104,71,104.1,70.9,104.1L70.9,104.1z"/>
<path id="XMLID_89_" class="st3" d="M90.8,102.9c-0.2,0-0.3-0.1-0.5-0.2l-4-2.1l-4,2.1c-0.2,0.1-0.4,0.2-0.5,0.2
	c-0.2,0-0.3-0.1-0.3-0.2c-0.1-0.2-0.2-0.4-0.1-0.8l0.8-4.5l-3.3-3.2c-0.3-0.3-0.4-0.5-0.3-0.8c0.1-0.3,0.3-0.3,0.7-0.4l4.5-0.7l2-4
	c0.2-0.3,0.4-0.5,0.6-0.5c0.3,0,0.4,0.2,0.6,0.5l2,4l4.5,0.7c0.3,0.1,0.7,0.2,0.7,0.4c0.1,0.2-0.1,0.5-0.3,0.8l-3.3,3.2l0.8,4.5
	c0.1,0.3,0,0.6-0.1,0.8C91.1,102.8,90.9,102.9,90.8,102.9L90.8,102.9z"/>
<path id="XMLID_91_" class="st3" d="M49.7,102.7c-0.2,0-0.3-0.1-0.5-0.2l-3.9-2.1l-3.9,2.1c-0.2,0.1-0.4,0.2-0.5,0.2
	c-0.2,0-0.3-0.1-0.3-0.2c-0.1-0.2-0.2-0.4-0.1-0.8l0.8-4.4L38,94.3c-0.3-0.3-0.4-0.5-0.3-0.8c0.1-0.3,0.3-0.3,0.7-0.4l4.4-0.7
	l1.9-3.9c0.2-0.3,0.4-0.5,0.6-0.5c0.3,0,0.4,0.2,0.6,0.5l1.9,3.9l4.4,0.7c0.3,0.1,0.7,0.2,0.7,0.4c0.1,0.2-0.1,0.5-0.3,0.8l-3.2,3.1
	l0.8,4.4c0.1,0.3,0,0.6-0.1,0.8C50,102.6,49.8,102.7,49.7,102.7L49.7,102.7z"/>
</svg>
