<?xml version="1.0" encoding="utf-8"?>
<!-- Generator: Adobe Illustrator 19.0.0, SVG Export Plug-In . SVG Version: 6.00 Build 0)  -->
<svg version="1.1" id="Layer_1" xmlns="http://www.w3.org/2000/svg" xmlns:xlink="http://www.w3.org/1999/xlink" x="0px" y="0px"
	 viewBox="-297 356.9 128 128" style="enable-background:new -297 356.9 128 128;" xml:space="preserve">
<style type="text/css">
	.st0{fill:#2C2B7B;}
	.st1{fill:#F3711E;}
	.st2{fill:#FAD601;}
</style>
<rect x="-297" y="356.9" class="st0" width="128" height="128"/>
<g>
	<path class="st1" d="M-278,377.7h19.4l0.6,4.8h-7.2v17.8h-6v-17.8h-6.6v-4.8H-278z"/>
	<path class="st1" d="M-235.8,395.5l0.6,4.8h-16.6v-22.6h16l0.6,4.8h-10.4v4.2h7l0.6,4.8h-7.6v4.2h9.8V395.5z"/>
	<path class="st1" d="M-222.8,400.7c-1.2,0-2.4-0.2-4-0.6c-1.4-0.4-2.6-0.8-3.4-1.2l2-4.6c0.6,0.4,1.4,0.6,2.4,1s2,0.4,2.8,0.4
		s1.6-0.2,2.2-0.6s0.8-0.8,0.8-1.2c0-0.2-0.2-0.6-0.6-0.8s-1-0.6-1.8-1.2l-1-0.6c-1.6-0.8-2.6-1.6-3.6-2.2s-1.6-1.4-2.2-2.2
		c-0.6-1-1-2-1-3.2s0.4-2.4,1-3.4s1.6-1.8,3-2.4c1.2-0.6,2.8-0.8,4.4-0.8c1.2,0,2.4,0.2,3.6,0.4c1.2,0.4,2.2,0.8,3.2,1.4l-1.8,4
		c-1.2-0.4-2-0.6-2.8-0.8s-1.4-0.2-2-0.2s-1.2,0.2-1.6,0.4c-0.4,0.4-0.6,0.6-0.6,1.2c0,0.4,0.2,0.6,0.6,0.8s1,0.6,1.8,1l1.2,0.6
		c1.4,0.8,2.6,1.6,3.4,2.2c1,0.6,1.8,1.4,2.4,2.4s1,2,1,3.2s-0.4,2.4-1,3.4c-0.8,1-1.8,1.8-3.2,2.4
		C-219.4,400.3-221,400.7-222.8,400.7z"/>
	<path class="st1" d="M-209.4,377.7h19.4l0.6,4.8h-7.2v17.8h-6v-17.8h-6.6v-4.8H-209.4z"/>
</g>
<g>
	<path class="st2" d="M-263.8,413.7v47.4h-12.6v-47.4H-263.8z"/>
	<path class="st2" d="M-205.6,453.3l4.2,4.6l-7.8,6.8l-4.6-4.8c-3.2,1.4-6.8,2.2-11,2.2c-5,0-9.2-1-13-3.2c-3.6-2.2-6.6-5-8.6-8.8
		s-3-7.8-3-12.4c0-4.8,1-9,3.2-12.8s5-6.8,8.8-8.8c3.8-2.2,8-3.2,12.6-3.2c5,0,9.4,1,13,3.2s6.6,5,8.4,8.8c2,3.8,3,7.8,3,12.4
		c0,3.2-0.4,6.2-1.4,8.8C-202.6,448.7-203.8,451.3-205.6,453.3z M-222.2,451.3l-5.8-6l8.4-7.2l5.2,5.8c0.6-1.8,1-4,1-6.6
		c0-4-1-7.4-3-10s-4.8-3.8-8.2-3.8c-2.2,0-4,0.6-5.8,1.8s-3.2,2.8-4.2,5s-1.6,4.6-1.6,7.4c0,4,1,7.4,3,10s4.8,4,8.4,4
		C-223.8,451.5-222.8,451.5-222.2,451.3z"/>
</g>
</svg>
