<?xml version="1.0" encoding="utf-8"?>
<!-- Generator: Adobe Illustrator 19.0.0, SVG Export Plug-In . SVG Version: 6.00 Build 0)  -->
<svg version="1.1" id="Layer_1" xmlns="http://www.w3.org/2000/svg" xmlns:xlink="http://www.w3.org/1999/xlink" x="0px" y="0px"
	 viewBox="0 0 128 128" style="enable-background:new 0 0 128 128;" xml:space="preserve">
<style type="text/css">
	.st0{fill:#2C3E50;}
	.st1{fill:#24AE5F;}
	.st2{fill:#FFFFFF;}
</style>
<rect id="XMLID_4_" class="st0" width="128" height="128"/>
<rect id="XMLID_1_" y="64" class="st1" width="32" height="64"/>
<rect id="XMLID_2_" x="64" class="st1" width="64" height="32"/>
<rect id="XMLID_3_" x="64" y="96" class="st1" width="64" height="32"/>
<circle id="XMLID_5_" class="st2" cx="34" cy="28.8" r="6"/>
<path id="XMLID_6_" class="st2" d="M24.6,47.9L24.6,47.9c-1-0.5-1.5-1.8-0.9-2.9l8.7-17.4c0.5-1,1.8-1.5,2.9-0.9l0,0
	c1,0.5,1.5,1.8,0.9,2.9l-8.7,17.4C26.9,48,25.6,48.4,24.6,47.9z"/>
<path id="XMLID_7_" class="st2" d="M33.2,54.1L33.2,54.1c-0.6,0.6-1.5,0.6-2.1,0l-7.2-7.2c-0.6-0.6-0.6-1.5,0-2.1h0
	c0.6-0.6,1.5-0.6,2.1,0l7.2,7.2C33.8,52.5,33.8,53.5,33.2,54.1z"/>
<path id="XMLID_8_" class="st2" d="M33.2,51.8L33.2,51.8c0.6,0.6,0.6,1.5,0,2.1l-7.2,7.2c-0.6,0.6-1.5,0.6-2.1,0l0,0
	c-0.6-0.6-0.6-1.5,0-2.1l7.2-7.2C31.6,51.2,32.6,51.2,33.2,51.8z"/>
<path id="XMLID_10_" class="st2" d="M19.9,53.4L19.9,53.4c-0.7-0.4-0.9-1.4-0.5-2.1l5.4-8.7c0.4-0.7,1.4-0.9,2.1-0.5h0
	c0.7,0.4,0.9,1.4,0.5,2.1L22,52.9C21.5,53.6,20.6,53.8,19.9,53.4z"/>
<path id="XMLID_9_" class="st2" d="M22,52.8L22,52.8c-0.4,0.7-1.4,0.9-2.1,0.5L11.3,48c-0.7-0.4-0.9-1.4-0.5-2.1l0,0
	c0.4-0.7,1.4-0.9,2.1-0.5l8.7,5.4C22.3,51.2,22.5,52.1,22,52.8z"/>
<path id="XMLID_11_" class="st2" d="M32.7,42.9L32.7,42.9c-0.6,0.2-1.2-0.1-1.4-0.7l-1.6-5c-0.2-0.6,0.1-1.2,0.7-1.4h0
	c0.6-0.2,1.2,0.1,1.4,0.7l1.6,5C33.6,42.1,33.3,42.7,32.7,42.9z"/>
<path id="XMLID_12_" class="st2" d="M31.7,42.4L31.7,42.4c-0.3-0.5-0.1-1.2,0.4-1.5l4.5-2.7c0.5-0.3,1.2-0.1,1.5,0.4l0,0
	c0.3,0.5,0.1,1.2-0.4,1.5l-4.5,2.7C32.7,43.1,32,43,31.7,42.4z"/>
<path id="XMLID_14_" class="st2" d="M24.3,33.5L24.3,33.5c0.3-0.6,1-0.8,1.5-0.5l4.7,2.4c0.6,0.3,0.8,1,0.5,1.5v0
	c-0.3,0.6-1,0.8-1.5,0.5L24.8,35C24.2,34.7,24,34,24.3,33.5z"/>
<path id="XMLID_13_" class="st2" d="M25.4,33.1L25.4,33.1c0.6,0.2,1,0.8,0.8,1.4l-1.3,5.1c-0.2,0.6-0.8,1-1.4,0.8h0
	c-0.6-0.2-1-0.8-0.8-1.4L24,34C24.1,33.4,24.8,33,25.4,33.1z"/>
</svg>
