<?xml version="1.0" encoding="utf-8"?>
<!-- Generator: Adobe Illustrator 19.0.0, SVG Export Plug-In . SVG Version: 6.00 Build 0)  -->
<svg version="1.1" id="Layer_1" xmlns="http://www.w3.org/2000/svg" xmlns:xlink="http://www.w3.org/1999/xlink" x="0px" y="0px"
	 viewBox="-297 356.9 128 128" style="enable-background:new -297 356.9 128 128;" xml:space="preserve">
<style type="text/css">
	.st0{fill:#F2C501;}
	.st1{fill:#F2AF00;}
	.st2{fill:#F59D01;}
	.st3{fill:#D45500;}
	.st4{fill:#E87F03;}
	.st5{fill:#F8FFFF;}
</style>
<rect id="XMLID_13_" x="-297" y="356.9" class="st0" width="128" height="128"/>
<path id="XMLID_12_" class="st1" d="M-185.2,416.1h-34.4c-4.4,0-8.2-3.6-8.2-8.2v-34.4c0-4.4,3.6-8.2,8.2-8.2h34.4
	c4.4,0,8.2,3.6,8.2,8.2v34.4C-177.2,412.5-180.8,416.1-185.2,416.1z"/>
<path id="XMLID_11_" class="st2" d="M-244.8,416.1h-34.6c-4.4,0-8-3.6-8-8v-34.6c0-4.4,3.6-8,8-8h34.6c4.4,0,8,3.6,8,8v34.6
	C-236.8,412.5-240.4,416.1-244.8,416.1z"/>
<path id="XMLID_10_" class="st3" d="M-185.2,475.7h-34.6c-4.4,0-8-3.6-8-8v-34.6c0-4.4,3.6-8,8-8h34.6c4.4,0,8,3.6,8,8v34.6
	C-177.2,472.1-180.8,475.7-185.2,475.7z"/>
<path id="XMLID_9_" class="st4" d="M-244.8,475.7h-34.6c-4.4,0-8-3.6-8-8v-34.6c0-4.4,3.6-8,8-8h34.6c4.4,0,8,3.6,8,8v34.6
	C-236.8,472.1-240.4,475.7-244.8,475.7z"/>
<g id="XMLID_74_">
	<g id="XMLID_52_">
		<path id="XMLID_53_" class="st5" d="M-270,402.3v-4.4l8.8-8c0.6-0.6,1-1,1.4-1.6c0.4-0.6,0.6-1.2,0.6-1.8c0-0.8-0.2-1.4-0.8-2
			c-0.6-0.4-1.2-0.8-2-0.8s-1.6,0.4-2.2,1c-0.6,0.6-0.8,1.4-1,2.4l-5.2-0.8c0.2-1.2,0.4-2.2,1-3c0.4-0.8,1.2-1.6,1.8-2.2
			c0.6-0.6,1.6-1.2,2.6-1.4c1-0.4,2-0.4,3.2-0.4c1,0,2,0.2,3,0.4c1,0.2,1.8,0.8,2.6,1.2c0.8,0.4,1.4,1.2,1.8,2.2
			c0.4,0.8,0.6,1.8,0.6,3c0,0.8-0.2,1.6-0.4,2.2c-0.2,0.6-0.6,1.2-0.8,1.8c-0.2,0.6-0.8,1-1.2,1.6c-0.4,0.4-1,1-1.4,1.4l-5.4,4.6
			h9.2v4.6C-253.8,402.3-270,402.3-270,402.3z"/>
	</g>
</g>
<g id="XMLID_60_">
	<g id="XMLID_65_">
		<path id="XMLID_66_" class="st5" d="M-193.6,391.1c0,1.6-0.2,3.2-0.4,4.6c-0.4,1.4-0.8,2.8-1.6,3.8c-0.8,1-1.6,2-2.8,2.6
			c-1.2,0.6-2.4,1-4,1c-1.6,0-3-0.4-4-1c-1.2-0.6-2-1.6-2.8-2.6c-0.8-1-1.2-2.4-1.6-3.8c-0.4-1.4-0.4-3-0.4-4.6
			c0-1.6,0.2-3.2,0.4-4.6c0.4-1.4,0.8-2.6,1.6-3.8c0.8-1.2,1.6-2,2.8-2.6c1.2-0.6,2.4-1,4-1c1.6,0,3,0.4,4,1c1.2,0.6,2,1.4,2.8,2.6
			c0.8,1.2,1.2,2.4,1.6,3.8C-193.8,387.9-193.6,389.5-193.6,391.1z M-199,391.1c0-0.8,0-1.4-0.2-2.4c0-0.8-0.2-1.6-0.4-2.4
			c-0.2-0.8-0.6-1.4-1-1.8c-0.4-0.4-1-0.8-1.8-0.8c-0.8,0-1.2,0.2-1.8,0.8c-0.4,0.4-0.8,1.2-1,1.8c-0.2,0.6-0.4,1.6-0.4,2.4
			c0,0.8-0.2,1.6-0.2,2.4c0,0.8,0,1.6,0.2,2.4c0,0.8,0.2,1.6,0.4,2.4c0.2,0.8,0.6,1.4,1,1.8c0.4,0.4,1,0.8,1.8,0.8
			c0.8,0,1.2-0.2,1.8-0.8c0.4-0.4,0.8-1.2,1-1.8c0.2-0.6,0.4-1.6,0.4-2.4C-199.2,392.5-199,391.7-199,391.1z"/>
	</g>
</g>
<g id="XMLID_40_">
	<g id="XMLID_69_">
		<path id="XMLID_70_" class="st5" d="M-256.4,457.3v4.4h-5v-4.4H-272v-4.4l9.2-13.6h6.4v13.8h3.2v4.4h-3.2V457.3z M-261.2,444.7
			L-261.2,444.7l-5.4,8.4h5.4V444.7z"/>
	</g>
</g>
<g id="XMLID_15_">
	<g id="XMLID_84_">
		<path id="XMLID_85_" class="st5" d="M-194,455.3c0,1.2-0.2,2.2-0.6,3.2c-0.4,0.8-1,1.6-1.8,2.2c-0.8,0.6-1.6,1-2.8,1.4
			c-1.2,0.4-2,0.4-3.2,0.4c-1.2,0-2.2-0.2-3.2-0.4c-1-0.2-2-0.8-2.6-1.2c-0.8-0.6-1.4-1.2-1.8-2.2c-0.4-0.8-0.6-2-0.6-3.2
			c0-0.6,0.2-1.4,0.4-1.8c0.2-0.4,0.6-1.2,0.8-1.6c0.2-0.4,0.8-0.8,1.2-1.2c0.4-0.4,1-0.6,1.6-0.8l0,0c-1-0.4-1.8-1-2.4-1.8
			c-0.6-0.8-1-1.8-1-3.2c0-1,0.2-2,0.6-2.8c0.4-0.8,1-1.4,1.8-2c0.8-0.6,1.6-1,2.6-1.2c1-0.2,2-0.4,3-0.4s2,0.2,3,0.4
			c1,0.2,1.8,0.6,2.4,1.2c0.8,0.6,1.2,1.2,1.8,2c0.4,0.8,0.6,1.8,0.6,2.8c0,1.2-0.4,2.4-1,3.2c-0.6,0.8-1.4,1.4-2.4,1.8l0,0
			c0.6,0.2,1,0.4,1.6,0.8c0.4,0.4,1,0.8,1.2,1.2c0.4,0.4,0.6,1,0.8,1.6C-194.2,454.1-194,454.7-194,455.3z M-199.4,455.1
			c0-0.8-0.2-1.6-0.8-2.2c-0.6-0.6-1.4-0.8-2.2-0.8c-1,0-1.6,0.2-2.2,0.8c-0.6,0.6-0.8,1.4-0.8,2.2c0,1,0.2,1.6,0.8,2.2
			s1.4,0.8,2.2,0.8c1,0,1.6-0.2,2.2-0.8C-199.6,456.7-199.4,456.1-199.4,455.1z M-199.8,445.3c0-0.8-0.2-1.4-0.8-1.8s-1.2-0.8-2-0.8
			s-1.4,0.2-2,0.8c-0.4,0.4-0.8,1.2-0.8,1.8c0,0.8,0.2,1.4,0.8,1.8c0.4,0.6,1.2,0.8,2,0.8s1.4-0.2,2-0.8
			C-200,446.7-199.8,446.1-199.8,445.3z"/>
	</g>
</g>
</svg>
