<?xml version="1.0" encoding="utf-8"?>
<!-- Generator: Adobe Illustrator 19.0.0, SVG Export Plug-In . SVG Version: 6.00 Build 0)  -->
<svg version="1.1" id="Layer_1" xmlns="http://www.w3.org/2000/svg" xmlns:xlink="http://www.w3.org/1999/xlink" x="0px" y="0px"
	 viewBox="-297 356.9 128 128" style="enable-background:new -297 356.9 128 128;" xml:space="preserve">
<style type="text/css">
	.st0{fill:#FABA00;}
	.st1{fill:#970D03;}
	.st2{enable-background:new    ;}
	.st3{fill:#FFF8FF;}
</style>
<g>
	<rect x="-297" y="356.9" class="st0" width="128" height="128"/>
	<circle class="st1" cx="-262.4" cy="392.7" r="24.4"/>
	<circle class="st1" cx="-204.6" cy="392.7" r="24.4"/>
	<circle class="st1" cx="-262.4" cy="450.3" r="24.4"/>
	<circle class="st1" cx="-204.6" cy="450.3" r="24.4"/>
	<g class="st2">
		<path class="st3" d="M-259.6,381.9v19.8h-4.2v-9.8l0.2-5.6h-0.2l-2.6,2.2l-1.6,1l-2.4-3.4l6.2-4h4.6V381.9z"/>
	</g>
	<g class="st2">
		<path class="st3" d="M-202.4,391.3c1.8,0.2,3.6,1.2,3.6,4.2c0,4.2-2.8,6.4-7.2,6.4c-3.6,0-5.8-2-6.6-4.2l4-1.8
			c0.4,1,1.2,2.4,3,2.4c1.6,0,2.4-0.8,2.4-2.6c0-1.4-1-2.4-3.4-2.4h-1.4v-3.6h1.2c1.8,0,2.6-0.8,2.6-2.6c0-1.4-0.6-2.2-2-2.2
			c-1.2,0-2,0.8-2,2.2l-4.2-0.4c0.2-3,2.2-5.4,6.2-5.4c4.2,0,6.2,1.8,6.2,5.4C-199.4,389.1-200.6,390.7-202.4,391.3L-202.4,391.3z"
			/>
	</g>
	<g class="st2">
		<path class="st3" d="M-264.2,456.9l3.6-0.2h4.2v3.6h-12.2l-0.8-3.6c3-3,5.4-5.4,6.8-7.2c1-1.2,1.4-2.4,1.4-3.4
			c0-1.6-0.8-2.2-1.8-2.2c-1.4,0-1.8,1.2-2,2.6l-4.4-0.8c0.4-3,2.2-5.6,6.6-5.6c3.8,0,6,2,6,5.2c0,2.2-0.6,4-2.4,6.2
			c-0.8,0.8-1.6,1.8-2.6,3C-262.4,455.3-263.2,455.9-264.2,456.9L-264.2,456.9z"/>
	</g>
	<g class="st2">
		<path class="st3" d="M-211.6,456.3l4.2-1.8c0.4,1.4,1.2,2.4,2.8,2.4c1.6,0,2.4-1.2,2.4-3c0-2-1-3.2-2.6-3.2c-1,0-1.6,0.4-2.2,1
			l-3.6-1.2l0.8-10h10.8v3.6h-7l-0.4,4.2h0.2c0.4-0.4,1.6-0.8,2.6-0.8c4,0,5.8,2.2,5.8,6c0,4.2-2.6,7.2-7,7.2
			C-209.2,460.5-211,458.5-211.6,456.3z"/>
	</g>
</g>
</svg>
