<?xml version="1.0" encoding="utf-8"?>
<!-- Generator: Adobe Illustrator 19.0.0, SVG Export Plug-In . SVG Version: 6.00 Build 0)  -->
<svg version="1.1" id="Layer_1" xmlns="http://www.w3.org/2000/svg" xmlns:xlink="http://www.w3.org/1999/xlink" x="0px" y="0px"
	 viewBox="-297 356.9 128 128" style="enable-background:new -297 356.9 128 128;" xml:space="preserve">
<style type="text/css">
	.st0{fill:#37519E;}
	.st1{fill:#66C5ED;}
	.st2{fill:#4EB2DB;}
</style>
<rect x="-297" y="356.9" class="st0" width="128" height="128"/>
<path class="st1" d="M-255.4,418.5h-14c-10.4,0-18.6-8.4-18.6-18.6v-14c0-10.4,8.4-18.6,18.6-18.6h14c10.4,0,18.6,8.4,18.6,18.6v14
	C-236.8,410.1-245,418.5-255.4,418.5z"/>
<path class="st2" d="M-196.8,418.5h-14c-10.4,0-18.6-8.4-18.6-18.6v-14c0-10.4,8.4-18.6,18.6-18.6h14c10.4,0,18.6,8.4,18.6,18.6v14
	C-178,410.1-186.4,418.5-196.8,418.5z"/>
<path class="st2" d="M-255.4,476.1h-14c-10.4,0-18.6-8.4-18.6-18.6v-14c0-10.4,8.4-18.6,18.6-18.6h14c10.4,0,18.6,8.4,18.6,18.6v14
	C-236.8,467.7-245,476.1-255.4,476.1z"/>
<path class="st2" d="M-196.8,476.1h-14c-10.4,0-18.6-8.4-18.6-18.6v-14c0-10.4,8.4-18.6,18.6-18.6h14c10.4,0,18.6,8.4,18.6,18.6v14
	C-178,467.7-186.4,476.1-196.8,476.1z"/>
</svg>
