<?xml version="1.0" encoding="utf-8"?>
<!-- Generator: Adobe Illustrator 19.0.0, SVG Export Plug-In . SVG Version: 6.00 Build 0)  -->
<svg version="1.1" id="Layer_1" xmlns="http://www.w3.org/2000/svg" xmlns:xlink="http://www.w3.org/1999/xlink" x="0px" y="0px"
	 viewBox="282.9 345.4 551.1 151.5" style="enable-background:new 282.9 345.4 551.1 151.5;" xml:space="preserve">
<style type="text/css">
	.st0{fill:#FFFFFF;}
	.st1{fill:#F27421;}
</style>
<g id="XMLID_26_">
	<path id="XMLID_27_" class="st0" d="M300.1,449.1l-0.4,22.2l-16.1-0.6l0.6-21.6h-1.6v-15.9h2l1-40l15.8,0.6l-0.9,39.4h28.3
		l-0.9-39.4l15.8-0.6l1,40h1.8v15.9h-1.4l0.6,21.6l-16.1,0.6l-0.4-22.2H300.1z"/>
	<path id="XMLID_29_" class="st0" d="M354.3,446.8c-1.3-4.3-2-8.5-2-13.2c0-3.3,0.3-6.7,1.1-10l-0.3-0.1l1.4-4.1l0.1-0.1
		c0-0.3,0.1-0.6,0.3-0.9c1.7-4.4,4.1-8.5,7.4-12.1c3.3-3.6,7-6.4,11.2-8.4c4.6-2.1,9.2-3,14.1-3h0.1c5,0,9.7,0.9,14.1,3
		c4.3,2,8.1,4.8,11.2,8.4c3.4,3.6,6,7.8,7.7,12.4l0.1,0.4c0,0.1,0,0.3,0.1,0.3l0.3,0.9l1.1,3.3l-0.4,0.1c0.9,3.1,1.3,6.4,1.3,10
		c0,4.7-0.7,9-2.1,13.2l-0.9,2.8c-1.7,4.1-4.3,8-7.3,11.4c-3.1,3.4-7,6.3-11.2,8.3c-4.6,2.1-9.2,3.3-14.1,3.3h-0.1
		c-4.7,0-9.4-1.1-13.9-3.3c-4.4-2-8.1-4.8-11.4-8.3c-3-3.4-5.4-7.3-7.1-11.4l-0.1-0.6L354.3,446.8z M374.1,449.6
		c3.7,4.1,8.5,6.3,13.7,6.3c5.3,0,10.2-2.1,13.9-6.3c4-4.4,6-10,6-16.1c0-6.1-2.1-11.7-6-15.9c-3.7-4.3-8.7-6.4-13.9-6.4
		c-5.1,0-10,2.1-13.7,6.4c-4,4.3-6.1,9.8-6.1,15.9C368,439.7,370.1,445.2,374.1,449.6z"/>
	<path id="XMLID_41_" class="st0" d="M451.8,410.8h-22.6v-15.9h61.2v15.9h-22.6l-0.3,60.6l-15.8-0.3L451.8,410.8z"/>
	<path id="XMLID_43_" class="st0" d="M627,464.7l4.8-12v-13.7h5.8l17.8-43.3h12l17.1,43.3h5.4v13.7l5,12.7l-13.4,5.3l-6.8-17.1
		h-27.3L640,471L627,464.7z M661.1,419.8l-8,19.4h15.7L661.1,419.8z"/>
	<path id="XMLID_46_" class="st0" d="M700.5,470.4l3-75.8l29,35l28.7-35l3.1,75.8l-14.8,0.6l-1.6-36.9l-15.5,19.2l-15.9-19.2
		L715,471L700.5,470.4z"/>
	<path id="XMLID_48_" class="st0" d="M772.5,411.9l-2.1,0.1l-0.3-16.1l63.5-1.1l0.4,15.9l-45.5,0.9v13.9h28.3v15.9h-28.3v13.1
		l45.5,0.9l-0.4,15.9l-63.5-1l0.3-15.8h2.1V411.9z"/>
</g>
<g id="XMLID_3_">
	<circle id="XMLID_15_" class="st1" cx="558" cy="433.6" r="15.6"/>
	
		<rect id="XMLID_14_" x="501.5" y="436.1" transform="matrix(0.9659 -0.2588 0.2588 0.9659 -97.178 149.6407)" class="st1" width="36.5" height="15.5"/>
	<polygon id="XMLID_12_" class="st1" points="611.4,399.4 575.2,409.1 571.1,394.1 617.1,381.8 	"/>
	<g id="XMLID_5_">
		<path id="XMLID_9_" class="st1" d="M540,373.7l3.4-0.9C542.3,373.1,541.1,373.4,540,373.7z"/>
		<path id="XMLID_8_" class="st1" d="M539.7,373.8L539.7,373.8c0.1,0,0.2-0.1,0.4-0.1L539.7,373.8z"/>
		<path id="XMLID_7_" class="st1" d="M543.9,389.8l5.4-1.4C547.5,388.7,545.7,389.2,543.9,389.8L543.9,389.8z"/>
		<path id="XMLID_6_" class="st1" d="M619.9,425.1c-0.7-5.1-2-10.2-4-15l-16.1,4.3l-22,5.9l4,15l22-5.9c1.2,13.2-3.2,26.8-13.3,36.8
			c-18,18-47.2,18-65.2,0c-18-18-18-47.2,0-65.2c5.4-5.4,11.7-9.1,18.5-11.3c1.8-0.6,3.6-1,5.4-1.4l37.7-10.1l35.9-9.6l23.4-23.4
			l-103,27.6l-3.4,0.9c-0.1,0-0.2,0.1-0.3,0.1c-9.5,2.9-18.4,8.1-25.9,15.6c-24.4,24.4-24.4,64,0,88.4c24.4,24.4,64,24.4,88.4,0
			C616.6,463.5,622.5,443.8,619.9,425.1z"/>
	</g>
</g>
</svg>
