<?xml version="1.0" encoding="utf-8"?>
<!-- Generator: Adobe Illustrator 19.0.0, SVG Export Plug-In . SVG Version: 6.00 Build 0)  -->
<svg version="1.1" id="Layer_1" xmlns="http://www.w3.org/2000/svg" xmlns:xlink="http://www.w3.org/1999/xlink" x="0px" y="0px"
	 viewBox="0 0 128 102.3" style="enable-background:new 0 0 128 102.3;" xml:space="preserve">
<style type="text/css">
	.st0{fill:#00AA8D;}
	.st1{fill:#432918;}
	.st2{fill:#F2BA49;}
	.st3{fill:#FFD34D;}
	.st4{fill:#2E2D7C;}
	.st5{fill:#3F3F8E;}
	.st6{fill:#1F1F63;}
</style>
<g id="XMLID_87_">
	<g id="XMLID_92_">
		<g id="XMLID_184_">
			<path id="XMLID_64_" class="st0" d="M50.3,77.6c0,0,3.4,1.2,4.5,3.8c1.4,3.4,0.8,6.2,0.8,6.2s-3.4-1.8-4.5-3.6
				C49.5,81.5,50.3,77.6,50.3,77.6z"/>
			<path id="XMLID_63_" class="st0" d="M44.4,92.3c0,0,3.4,1,5.9-0.5c3.1-1.9,4.3-4.5,4.3-4.5s-3.8-0.6-5.7,0.2
				C46,88.7,44.4,92.3,44.4,92.3z"/>
		</g>
		<g id="XMLID_181_">
			<path id="XMLID_62_" class="st0" d="M45.1,74.7c0,0,3,1.7,3.7,4.5c0.8,3.5-0.3,6.1-0.3,6.1s-3-2.3-3.7-4.2
				C43.6,78.3,45.1,74.7,45.1,74.7z"/>
			<path id="XMLID_61_" class="st0" d="M36.8,87.9c0,0,3.1,1.6,5.8,0.5c3.3-1.3,4.9-3.6,4.9-3.6s-3.5-1.2-5.6-0.7
				C39,84.7,36.8,87.9,36.8,87.9z"/>
		</g>
		<g id="XMLID_178_">
			<path id="XMLID_60_" class="st0" d="M40.3,70.9c0,0,2.7,2.1,2.8,4.9c0.2,3.5-1.3,5.8-1.3,5.8S39.4,79,38.9,77
				C38.3,74.2,40.3,70.9,40.3,70.9z"/>
			<path id="XMLID_59_" class="st0" d="M30.2,82.3c0,0,2.7,2.1,5.5,1.5c3.4-0.7,5.3-2.7,5.3-2.7s-3.2-1.7-5.3-1.7
				C32.8,79.6,30.2,82.3,30.2,82.3z"/>
		</g>
		<g id="XMLID_175_">
			<path id="XMLID_58_" class="st0" d="M36.4,66.4c0,0,2.2,2.5,1.8,5.2C37.8,75,36,77,36,77s-1.9-3-2-5
				C33.9,69.2,36.4,66.4,36.4,66.4z"/>
			<path id="XMLID_57_" class="st0" d="M24.6,75.6c0,0,2.3,2.5,5,2.4c3.4-0.1,5.6-1.7,5.6-1.7s-2.8-2.2-4.8-2.5
				C27.6,73.4,24.6,75.6,24.6,75.6z"/>
		</g>
		<g id="XMLID_172_">
			<path id="XMLID_56_" class="st0" d="M33.2,61.2c0,0,1.7,2.8,0.9,5.4c-1,3.2-3.1,4.8-3.1,4.8s-1.3-3.2-1.1-5.2
				C30.3,63.5,33.2,61.2,33.2,61.2z"/>
			<path id="XMLID_55_" class="st0" d="M20.3,68.1c0,0,1.8,2.8,4.4,3.2c3.3,0.5,5.7-0.7,5.7-0.7s-2.3-2.6-4.2-3.2
				C23.6,66.6,20.3,68.1,20.3,68.1z"/>
		</g>
		<g id="XMLID_169_">
			<path id="XMLID_54_" class="st0" d="M31,55.6c0,0,1.2,3-0.1,5.3c-1.5,2.9-3.8,4.1-3.8,4.1s-0.7-3.4-0.1-5.2
				C27.9,57.3,31,55.6,31,55.6z"/>
			<path id="XMLID_53_" class="st0" d="M17.4,60.1c0,0,1.3,3,3.7,3.8c3.1,1,5.6,0.3,5.6,0.3s-1.8-2.9-3.5-3.8
				C20.8,59.1,17.4,60.1,17.4,60.1z"/>
		</g>
		<g id="XMLID_166_">
			<path id="XMLID_52_" class="st0" d="M29.8,49.8c0,0,0.6,3.1-1,5.1c-2,2.6-4.4,3.3-4.4,3.3s-0.1-3.4,0.7-5
				C26.5,50.9,29.8,49.8,29.8,49.8z"/>
			<path id="XMLID_51_" class="st0" d="M15.9,51.8c0,0,0.7,3.1,3,4.3c2.8,1.5,5.4,1.3,5.4,1.3S23,54.2,21.5,53
				C19.4,51.4,15.9,51.8,15.9,51.8z"/>
		</g>
		<g id="XMLID_163_">
			<path id="XMLID_50_" class="st0" d="M29.6,43.7c0,0,0.1,3.1-1.8,4.8C25.5,50.7,23,51,23,51s0.4-3.3,1.6-4.7
				C26.2,44.2,29.6,43.7,29.6,43.7z"/>
			<path id="XMLID_49_" class="st0" d="M15.9,43.3c0,0,0.2,3.1,2.1,4.7c2.5,2,4.9,2.1,4.9,2.1s-0.7-3.2-1.9-4.6
				C19.3,43.5,15.9,43.3,15.9,43.3z"/>
		</g>
		<g id="XMLID_160_">
			<path id="XMLID_48_" class="st0" d="M30.5,37.6c0,0-0.5,3-2.6,4.3c-2.6,1.7-5,1.6-5,1.6s1-3.1,2.3-4.3
				C27.1,37.5,30.5,37.6,30.5,37.6z"/>
			<path id="XMLID_47_" class="st0" d="M17.3,34.8c0,0-0.4,3,1.3,4.9c2,2.3,4.4,2.9,4.4,2.9s-0.1-3.2-1-4.8
				C20.6,35.6,17.3,34.8,17.3,34.8z"/>
		</g>
		<g id="XMLID_157_">
			<path id="XMLID_46_" class="st0" d="M32.4,31.6c0,0-1,2.8-3.2,3.7c-2.8,1.2-5.1,0.7-5.1,0.7s1.5-2.8,3-3.7
				C29.2,30.9,32.4,31.6,32.4,31.6z"/>
			<path id="XMLID_45_" class="st0" d="M20.2,26.6c0,0-0.9,2.8,0.4,4.9c1.6,2.6,3.8,3.6,3.8,3.6s0.5-3.1-0.2-4.8
				C23.2,28,20.2,26.6,20.2,26.6z"/>
		</g>
		<g id="XMLID_154_">
			<path id="XMLID_44_" class="st0" d="M35.4,26c0,0-1.4,2.5-3.7,3.1c-2.9,0.6-5.1-0.2-5.1-0.2s1.9-2.5,3.5-3.1
				C32.4,24.8,35.4,26,35.4,26z"/>
			<path id="XMLID_43_" class="st0" d="M24.4,19.2c0,0-1.3,2.6-0.5,4.8c1.1,2.8,3,4.1,3,4.1s1-2.9,0.6-4.7
				C27.1,21,24.4,19.2,24.4,19.2z"/>
		</g>
		<g id="XMLID_151_">
			<path id="XMLID_42_" class="st0" d="M39.3,21c0,0-1.8,2.2-4.1,2.3c-2.9,0.1-4.8-1.1-4.8-1.1s2.2-2.1,3.9-2.4
				C36.7,19.4,39.3,21,39.3,21z"/>
			<path id="XMLID_41_" class="st0" d="M29.9,12.6c0,0-1.7,2.3-1.3,4.6c0.6,2.8,2.2,4.4,2.2,4.4s1.5-2.7,1.4-4.4
				C32.2,14.8,29.9,12.6,29.9,12.6z"/>
		</g>
		<g id="XMLID_148_">
			<path id="XMLID_40_" class="st0" d="M44,16.9c0,0-2.1,1.8-4.4,1.5c-2.8-0.4-4.5-1.9-4.5-1.9s2.5-1.6,4.2-1.7
				C41.7,14.8,44,16.9,44,16.9z"/>
			<path id="XMLID_39_" class="st0" d="M36.4,7.1c0,0-2,1.9-2,4.2c0.1,2.8,1.4,4.7,1.4,4.7s1.9-2.3,2.1-4
				C38.2,9.6,36.4,7.1,36.4,7.1z"/>
		</g>
		<g id="XMLID_145_">
			<path id="XMLID_38_" class="st0" d="M49.4,13.6c0,0-2.3,1.4-4.5,0.7c-2.7-0.8-4-2.6-4-2.6s2.7-1.1,4.3-0.9
				C47.5,11.2,49.4,13.6,49.4,13.6z"/>
			<path id="XMLID_37_" class="st0" d="M43.6,2.9c0,0-2.3,1.5-2.6,3.7c-0.4,2.8,0.6,4.7,0.6,4.7s2.2-1.9,2.7-3.5
				C44.9,5.6,43.6,2.9,43.6,2.9z"/>
		</g>
		<g id="XMLID_142_">
			<path id="XMLID_36_" class="st0" d="M55.1,11.4c0,0-2.5,1-4.4,0c-2.4-1.3-3.4-3.2-3.4-3.2S50,7.5,51.5,8
				C53.7,8.7,55.1,11.4,55.1,11.4z"/>
			<path id="XMLID_35_" class="st0" d="M51.3,0c0,0-2.5,1-3.2,3.1c-0.9,2.6-0.3,4.7-0.3,4.7s2.4-1.5,3.2-2.9C52.2,2.9,51.3,0,51.3,0
				z"/>
		</g>
		<path id="XMLID_34_" class="st0" d="M51.5,6.4c0,0,1.8,1,3.5,0.5C57,6.2,58,4.8,58,4.8S55.9,4,54.6,4.2
			C52.9,4.5,51.5,6.4,51.5,6.4z"/>
		<g id="XMLID_138_">
			<path id="XMLID_33_" class="st0" d="M79.7,77.6c0,0-3.4,1.2-4.5,3.8c-1.4,3.4-0.8,6.2-0.8,6.2s3.4-1.8,4.5-3.6
				C80.5,81.5,79.7,77.6,79.7,77.6z"/>
			<path id="XMLID_32_" class="st0" d="M85.6,92.3c0,0-3.4,1-5.9-0.5c-3.1-1.9-4.3-4.5-4.3-4.5s3.8-0.6,5.7,0.2
				C84,88.7,85.6,92.3,85.6,92.3z"/>
		</g>
		<g id="XMLID_135_">
			<path id="XMLID_31_" class="st0" d="M85,74.7c0,0-3.1,1.7-3.7,4.5c-0.8,3.5,0.3,6.1,0.3,6.1s3-2.3,3.7-4.2
				C86.4,78.3,85,74.7,85,74.7z"/>
			<path id="XMLID_30_" class="st0" d="M93.2,87.9c0,0-3.1,1.6-5.8,0.5c-3.3-1.3-4.9-3.6-4.9-3.6s3.5-1.2,5.6-0.7
				C91,84.7,93.2,87.9,93.2,87.9z"/>
		</g>
		<g id="XMLID_132_">
			<path id="XMLID_29_" class="st0" d="M89.7,70.9c0,0-2.7,2.1-2.8,4.9c-0.2,3.5,1.3,5.8,1.3,5.8s2.5-2.7,2.9-4.7
				C91.7,74.2,89.7,70.9,89.7,70.9z"/>
			<path id="XMLID_28_" class="st0" d="M99.8,82.3c0,0-2.7,2.1-5.5,1.5c-3.4-0.7-5.3-2.7-5.3-2.7s3.2-1.7,5.3-1.7
				C97.2,79.6,99.8,82.3,99.8,82.3z"/>
		</g>
		<g id="XMLID_129_">
			<path id="XMLID_27_" class="st0" d="M93.6,66.4c0,0-2.2,2.5-1.8,5.2C92.2,75,94,77,94,77s1.9-3,2-5
				C96.1,69.2,93.6,66.4,93.6,66.4z"/>
			<path id="XMLID_26_" class="st0" d="M105.4,75.6c0,0-2.3,2.5-5,2.4c-3.4-0.1-5.6-1.7-5.6-1.7s2.8-2.2,4.8-2.5
				C102.4,73.4,105.4,75.6,105.4,75.6z"/>
		</g>
		<g id="XMLID_126_">
			<path id="XMLID_25_" class="st0" d="M96.8,61.2c0,0-1.7,2.8-0.9,5.4c1,3.2,3.1,4.8,3.1,4.8s1.3-3.2,1.1-5.2
				C99.7,63.5,96.8,61.2,96.8,61.2z"/>
			<path id="XMLID_24_" class="st0" d="M109.7,68.1c0,0-1.8,2.8-4.4,3.2c-3.3,0.5-5.7-0.7-5.7-0.7s2.3-2.6,4.2-3.2
				C106.4,66.6,109.7,68.1,109.7,68.1z"/>
		</g>
		<g id="XMLID_123_">
			<path id="XMLID_23_" class="st0" d="M99,55.6c0,0-1.2,3,0.1,5.3c1.5,2.9,3.8,4.1,3.8,4.1s0.7-3.4,0.1-5.2
				C102.1,57.3,99,55.6,99,55.6z"/>
			<path id="XMLID_22_" class="st0" d="M112.6,60.1c0,0-1.3,3-3.7,3.8c-3.1,1-5.6,0.3-5.6,0.3s1.8-2.9,3.5-3.8
				C109.2,59.1,112.6,60.1,112.6,60.1z"/>
		</g>
		<g id="XMLID_120_">
			<path id="XMLID_21_" class="st0" d="M100.2,49.8c0,0-0.6,3.1,1,5.1c2,2.6,4.4,3.3,4.4,3.3s0.1-3.4-0.7-5
				C103.5,50.9,100.2,49.8,100.2,49.8z"/>
			<path id="XMLID_20_" class="st0" d="M114.1,51.8c0,0-0.7,3.1-3,4.3c-2.8,1.5-5.4,1.3-5.4,1.3s1.2-3.1,2.7-4.3
				C110.6,51.4,114.1,51.8,114.1,51.8z"/>
		</g>
		<g id="XMLID_117_">
			<path id="XMLID_19_" class="st0" d="M100.4,43.7c0,0-0.1,3.1,1.8,4.8c2.3,2.1,4.8,2.5,4.8,2.5s-0.4-3.3-1.6-4.7
				C103.8,44.2,100.4,43.7,100.4,43.7z"/>
			<path id="XMLID_18_" class="st0" d="M114.1,43.3c0,0-0.2,3.1-2.1,4.7c-2.5,2-4.9,2.1-4.9,2.1s0.7-3.2,1.9-4.6
				C110.7,43.5,114.1,43.3,114.1,43.3z"/>
		</g>
		<g id="XMLID_114_">
			<path id="XMLID_17_" class="st0" d="M99.5,37.6c0,0,0.5,3,2.6,4.3c2.6,1.7,5,1.6,5,1.6s-1-3.1-2.3-4.3
				C102.9,37.5,99.5,37.6,99.5,37.6z"/>
			<path id="XMLID_16_" class="st0" d="M112.7,34.8c0,0,0.4,3-1.3,4.9c-2,2.3-4.4,2.9-4.4,2.9s0.1-3.2,1-4.8
				C109.4,35.6,112.7,34.8,112.7,34.8z"/>
		</g>
		<g id="XMLID_111_">
			<path id="XMLID_15_" class="st0" d="M97.6,31.6c0,0,1,2.8,3.2,3.7c2.8,1.2,5.1,0.7,5.1,0.7s-1.5-2.8-3-3.7
				C100.8,30.9,97.6,31.6,97.6,31.6z"/>
			<path id="XMLID_14_" class="st0" d="M109.8,26.6c0,0,0.9,2.8-0.4,4.9c-1.6,2.6-3.8,3.6-3.8,3.6s-0.5-3.1,0.2-4.8
				C106.8,28,109.8,26.6,109.8,26.6z"/>
		</g>
		<g id="XMLID_108_">
			<path id="XMLID_13_" class="st0" d="M94.6,26c0,0,1.4,2.5,3.7,3.1c2.9,0.6,5.1-0.2,5.1-0.2s-1.9-2.5-3.5-3.1
				C97.6,24.8,94.6,26,94.6,26z"/>
			<path id="XMLID_12_" class="st0" d="M105.6,19.2c0,0,1.3,2.6,0.5,4.8c-1.1,2.8-3,4.1-3,4.1s-1-2.9-0.6-4.7
				C102.9,21,105.6,19.2,105.6,19.2z"/>
		</g>
		<g id="XMLID_105_">
			<path id="XMLID_11_" class="st0" d="M90.7,21c0,0,1.8,2.2,4.1,2.3c2.9,0.1,4.8-1.1,4.8-1.1s-2.2-2.1-3.9-2.4
				C93.3,19.4,90.7,21,90.7,21z"/>
			<path id="XMLID_10_" class="st0" d="M100.1,12.6c0,0,1.7,2.3,1.3,4.6c-0.6,2.8-2.2,4.4-2.2,4.4s-1.5-2.7-1.4-4.4
				C97.8,14.8,100.1,12.6,100.1,12.6z"/>
		</g>
		<g id="XMLID_102_">
			<path id="XMLID_9_" class="st0" d="M86,16.9c0,0,2.1,1.8,4.4,1.5c2.8-0.4,4.5-1.9,4.5-1.9s-2.5-1.6-4.2-1.7
				C88.3,14.8,86,16.9,86,16.9z"/>
			<path id="XMLID_8_" class="st0" d="M93.6,7.1c0,0,2,1.9,2,4.2c-0.1,2.8-1.4,4.7-1.4,4.7s-1.9-2.3-2.1-4
				C91.8,9.6,93.6,7.1,93.6,7.1z"/>
		</g>
		<g id="XMLID_99_">
			<path id="XMLID_7_" class="st0" d="M80.6,13.6c0,0,2.3,1.4,4.5,0.7c2.7-0.8,4-2.6,4-2.6s-2.7-1.1-4.3-0.9
				C82.5,11.2,80.6,13.6,80.6,13.6z"/>
			<path id="XMLID_6_" class="st0" d="M86.4,2.9c0,0,2.3,1.5,2.6,3.7c0.4,2.8-0.6,4.7-0.6,4.7s-2.2-1.9-2.7-3.5
				C85.1,5.6,86.4,2.9,86.4,2.9z"/>
		</g>
		<g id="XMLID_96_">
			<path id="XMLID_5_" class="st0" d="M74.9,11.4c0,0,2.5,1,4.4,0c2.4-1.3,3.4-3.2,3.4-3.2S80,7.5,78.5,8
				C76.3,8.7,74.9,11.4,74.9,11.4z"/>
			<path id="XMLID_4_" class="st0" d="M78.7,0c0,0,2.5,1,3.2,3.1c0.9,2.6,0.3,4.7,0.3,4.7s-2.4-1.5-3.2-2.9C77.8,2.9,78.7,0,78.7,0z
				"/>
		</g>
		<path id="XMLID_3_" class="st0" d="M78.5,6.4c0,0-1.8,1-3.5,0.5C73,6.2,72,4.8,72,4.8s2.1-0.8,3.4-0.6C77.1,4.5,78.5,6.4,78.5,6.4
			z"/>
	</g>
	<g id="XMLID_90_">
		<path id="XMLID_2_" class="st1" d="M71.5,96.4c0,0-5.3-6.4-17.6-8.5c-12-2.8-26.5-14.5-30.3-31c-4.3-16.3,2.9-33.3,12.2-41.3
			C45,7.2,53.7,5.9,53.5,5.8c0.2,0.2-8.4,1.7-17.4,10.1c-9.1,8-16,24.8-11.6,40.7c3.8,16,18,27.2,29.6,29.9c2.8,0.4,5.3,1.1,7.4,1.9
			C69.8,91.3,73,95,73,95L71.5,96.4z"/>
	</g>
	<g id="XMLID_88_">
		<path id="XMLID_1_" class="st1" d="M58.5,96.4c0,0,5.3-6.4,17.6-8.5c12-2.8,26.5-14.5,30.3-31c4.3-16.3-2.9-33.3-12.2-41.3
			C85,7.2,76.3,5.9,76.5,5.8C76.3,6,84.9,7.5,93.8,15.9c9.1,8,16,24.8,11.6,40.7c-3.8,16-18,27.2-29.6,29.9
			c-2.8,0.4-5.3,1.1-7.4,1.9C60.2,91.3,57,95,57,95L58.5,96.4z"/>
	</g>
</g>
<g id="XMLID_80_">
	<g id="XMLID_95_">
		<path id="XMLID_78_" class="st2" d="M54.9,66.9c-20.2-9.5-25.2-19.4-23.3-25.6c1.6-4.9,7.2-7.3,14.5-6l-0.9,5.3
			c-4.4-0.8-7.7,0.2-8.4,2.3c-1.1,3.3,3.5,11.2,20.4,19.1L54.9,66.9z"/>
	</g>
	<g id="XMLID_93_">
		<path id="XMLID_77_" class="st2" d="M73.9,66.9l-2.3-4.9C88.5,54.1,93.1,46.3,92,42.9c-0.7-2.2-4.1-3.1-8.4-2.3l-0.9-5.3
			c7.2-1.3,12.9,1.1,14.5,6C99.1,47.5,94,57.5,73.9,66.9z"/>
	</g>
	<rect id="XMLID_76_" x="61.9" y="60.1" class="st2" width="5" height="27.8"/>
	<path id="XMLID_75_" class="st3" d="M37.8,29.1l13.1,35.5C53,70.2,58.4,74,64.4,74s11.4-3.7,13.4-9.4l13.1-35.5H37.8z"/>
	<path id="XMLID_74_" class="st3" d="M67.3,87.9h-5.8c-5.3,0-9.6,4.3-9.6,9.6h24.9C76.8,92.1,72.6,87.9,67.3,87.9z"/>
	<rect id="XMLID_73_" x="50.5" y="97.4" class="st2" width="27.8" height="5"/>
	<polygon id="XMLID_72_" class="st2" points="64.4,34.9 67.3,44.1 77,44.1 69.2,49.7 72.2,58.9 64.4,53.2 56.6,58.9 59.5,49.7 
		51.7,44.1 61.4,44.1 	"/>
	<polygon id="XMLID_71_" class="st2" points="47.1,72.7 47.1,70 45.6,70 45.6,72.7 42.9,72.7 42.9,74.2 45.6,74.2 45.6,76.9 
		47.1,76.9 47.1,74.2 49.8,74.2 49.8,72.7 	"/>
	<circle id="XMLID_70_" class="st3" cx="39.5" cy="66.1" r="1.8"/>
	<polygon id="XMLID_69_" class="st2" points="57,23.7 57,21.6 55.8,21.6 55.8,23.7 53.7,23.7 53.7,24.9 55.8,24.9 55.8,27.1 
		57,27.1 57,24.9 59.2,24.9 59.2,23.7 	"/>
	<circle id="XMLID_68_" class="st3" cx="80.8" cy="72.6" r="1.4"/>
	<circle id="XMLID_67_" class="st3" cx="96.8" cy="29.4" r="1.6"/>
	<circle id="XMLID_66_" class="st3" cx="76.1" cy="20.4" r="2.2"/>
	<circle id="XMLID_65_" class="st2" cx="81.8" cy="22.9" r="1.4"/>
</g>
<g id="XMLID_84_">
	<polygon id="XMLID_83_" class="st4" points="4,77.8 12.7,88.5 4,99.2 4,99.4 31.6,99.4 31.6,77.8 	"/>
	<polygon id="XMLID_82_" class="st4" points="125,77.8 116.3,88.5 125,99.2 125,99.4 97.4,99.4 97.4,77.8 	"/>
	<rect id="XMLID_81_" x="21.7" y="69.9" class="st5" width="85.5" height="23.4"/>
	<polygon id="XMLID_79_" class="st6" points="107.2,93.3 97.4,99.4 97.4,93.3 	"/>
	<polygon id="XMLID_85_" class="st6" points="21.8,93.3 31.7,99.4 31.7,93.3 	"/>
</g>
<path id="XMLID_86_" class="st3" d="M70.3,90.2c-0.2,0-0.4-0.1-0.6-0.2L65,87.5L60.3,90c-0.2,0.1-0.5,0.2-0.6,0.2
	c-0.2,0-0.3-0.1-0.4-0.2c-0.1-0.2-0.2-0.5-0.1-0.9l0.9-5.2l-3.8-3.7c-0.3-0.3-0.5-0.6-0.4-0.9s0.4-0.4,0.8-0.5l5.2-0.8l2.3-4.7
	c0.2-0.4,0.5-0.6,0.7-0.6c0.3,0,0.5,0.2,0.7,0.6l2.3,4.7l5.2,0.8c0.4,0.1,0.8,0.2,0.8,0.5c0.1,0.2-0.1,0.6-0.4,0.9l-3.8,3.7l0.9,5.2
	c0.1,0.4,0,0.7-0.1,0.9C70.6,90.1,70.4,90.2,70.3,90.2L70.3,90.2z"/>
</svg>
