<?xml version="1.0" encoding="utf-8"?>
<!-- Generator: Adobe Illustrator 19.0.0, SVG Export Plug-In . SVG Version: 6.00 Build 0)  -->
<svg version="1.1" id="Layer_1" xmlns="http://www.w3.org/2000/svg" xmlns:xlink="http://www.w3.org/1999/xlink" x="0px" y="0px"
	 viewBox="0 0 862.2 788.2" style="enable-background:new 0 0 862.2 788.2;" xml:space="preserve">
<style type="text/css">
	.st0{opacity:0.5;fill:#231F20;}
	.st1{fill:#FFFFFF;}
	.st2{fill:#2B2E7B;}
	.st3{fill:#FF7300;}
</style>
<path class="st0" d="M826.7,383.4v-56.8c0.7-20.8,2-41.1,3.8-61c1.9-19.9,4.3-39.6,7.3-59.3c3-19.6,6.5-39.3,10.4-58.9
	c3.9-19.6,8.3-39.7,13.2-60.3c-5.9-0.7-12.2-1.7-18.7-3c3-6.2,4.8-13.2,4.8-20.5c0-25.7-20.9-46.6-46.6-46.6
	c-13.3,0-25.2,5.6-33.7,14.5c-1.2-2.5-2.4-5.1-3.4-7.8H763v-0.5c-4.4-1.6-8.8-2.7-13.2-3.3c-4.4-0.6-8.8-0.9-13.2-0.9
	c-9.9,0-19.6,1.7-28.9,5c-9.4,3.4-17.7,8.3-25,14.9c-7.3,6.6-13.4,14.9-18.4,25c-5,10.1-8.1,21.7-9.5,34.8
	c-38.6-9.7-76.9-17-115.1-22c-38.1-5-75.3-7.5-111.6-7.5c-36.7,0-73.5,2.5-110.2,7.5c-36.7,5-74.4,12.3-113,22
	c-1.4-13.2-4.5-24.8-9.4-34.8c-4.9-10-11-18.4-18.4-25c-7.4-6.6-15.7-11.6-25-14.9c-9.2-3.3-18.9-5-29.1-5c-4.4,0-8.8,0.3-13.2,0.9
	c-4.4,0.6-8.8,1.7-13.2,3.3V24c-1.1,2.7-2.3,5.3-3.5,7.9c-8.5-9.1-20.6-14.8-34-14.8c-25.7,0-46.6,20.9-46.6,46.6
	c0,7.4,1.7,14.4,4.8,20.6c-6.4,1.3-12.5,2.2-18.3,2.9c4.9,20.6,9.2,40.7,13.2,60.3c3.9,19.6,7.4,39.3,10.4,58.9
	c3,19.6,5.4,39.4,7.3,59.3c1.8,19.9,3.1,40.2,3.8,61v56.8c-1.4,41.8-5.1,82.6-11.1,122.3c-6,39.7-13.9,79.9-23.6,120.6
	c8.3,0.9,17,2.5,26,4.7c5.8,1.4,11.4,3.4,17,5.8c-5.6,10.5-8.8,22.6-8.8,35.4c0,41.6,33.7,75.3,75.3,75.3c14.1,0,27.2-3.9,38.5-10.6
	c3.9,8,6.8,16.2,8.8,24.6c2.2,9.5,3.8,18.4,4.7,26.7c20.6-4.9,40.7-9.2,60.3-13.2c19.6-3.9,39.3-7.4,58.9-10.4
	c19.6-3,39.4-5.4,59.3-7.3c19.9-1.8,40.2-3.1,61-3.8h56.8c41.8,1.4,82.6,5.1,122.3,11.1c39.7,6,79.9,13.9,120.6,23.6
	c0.9-8.3,2.5-17,4.7-26c1.9-8,4.9-15.8,8.8-23.5c10.5,5.6,22.5,8.8,35.2,8.8c41.6,0,75.3-33.7,75.3-75.3c0-12.3-3-23.9-8.2-34.2
	c6.5-3,13.1-5.3,19.8-6.9c9-2.2,17.7-3.8,26-4.7c-9.7-40.7-17.6-80.9-23.6-120.6C831.8,466,828.1,425.3,826.7,383.4z"/>
<path class="st1" d="M827.5,366.4v-56.8c0.7-20.8,2-41.1,3.8-61c1.9-19.9,4.3-39.6,7.3-59.3c3-19.6,6.5-39.3,10.4-58.9
	c3.9-19.6,8.3-39.7,13.2-60.3c-5.9-0.7-12.2-1.7-18.7-3c3-6.2,4.8-13.2,4.8-20.5c0-25.7-20.9-46.6-46.6-46.6
	c-13.3,0-25.2,5.6-33.7,14.5c-1.2-2.5-2.4-5.1-3.4-7.8h-0.7V6.2c-4.4-1.6-8.8-2.7-13.2-3.3c-4.4-0.6-8.8-0.9-13.2-0.9
	c-9.9,0-19.6,1.7-28.9,5c-9.4,3.4-17.7,8.3-25,14.9c-7.3,6.6-13.4,14.9-18.4,25c-5,10.1-8.1,21.7-9.5,34.8
	c-38.6-9.7-76.9-17-115.1-22c-38.1-5-75.3-7.5-111.6-7.5c-36.7,0-73.5,2.5-110.2,7.5c-36.7,5-74.4,12.3-113,22
	c-1.4-13.2-4.5-24.8-9.4-34.8c-4.9-10-11-18.4-18.4-25c-7.4-6.6-15.7-11.6-25-14.9c-9.2-3.3-18.9-5-29.1-5c-4.4,0-8.8,0.3-13.2,0.9
	c-4.4,0.6-8.8,1.7-13.2,3.3v0.7c-1.1,2.7-2.3,5.3-3.5,7.9C85.6,5.7,73.6,0,60.1,0C34.4,0,13.5,20.9,13.5,46.6
	c0,7.4,1.7,14.4,4.8,20.6C11.9,68.5,5.8,69.4,0,70.1c4.9,20.6,9.2,40.7,13.2,60.3c3.9,19.6,7.4,39.3,10.4,58.9
	c3,19.6,5.4,39.4,7.3,59.3c1.8,19.9,3.1,40.2,3.8,61v56.8c-1.4,41.8-5.1,82.6-11.1,122.3c-6,39.7-13.9,79.9-23.6,120.6
	c8.3,0.9,17,2.5,26,4.7c5.8,1.4,11.4,3.4,17,5.8c-5.6,10.5-8.8,22.6-8.8,35.4c0,41.6,33.7,75.3,75.3,75.3c14.1,0,27.2-3.9,38.5-10.6
	c3.9,8,6.8,16.2,8.8,24.6c2.2,9.5,3.8,18.4,4.7,26.7c20.6-4.9,40.7-9.2,60.3-13.2c19.6-3.9,39.3-7.4,58.9-10.4
	c19.6-3,39.4-5.4,59.3-7.3c19.9-1.8,40.2-3.1,61-3.8h56.8c41.8,1.4,82.6,5.1,122.3,11.1c39.7,6,79.9,13.9,120.6,23.6
	c0.9-8.3,2.5-17,4.7-26c1.9-8,4.9-15.8,8.8-23.5c10.5,5.6,22.5,8.8,35.2,8.8c41.6,0,75.3-33.7,75.3-75.3c0-12.3-3-23.9-8.2-34.2
	c6.5-3,13.1-5.3,19.8-6.9c9-2.2,17.7-3.8,26-4.7c-9.7-40.7-17.6-80.9-23.6-120.6C832.6,449,828.9,408.2,827.5,366.4z"/>
<g>
	<path class="st1" d="M169.8,758.9c-0.9-5.4-2-11-3.3-16.7c-2.1-9-5.3-17.9-9.5-26.7l-4.8-9.8l-9.4,5.6c-10.1,6-21.6,9.2-33.3,9.2
		c-36,0-65.3-29.3-65.3-65.3c0-10.7,2.6-21.3,7.7-30.7l5.1-9.6l-10-4.3c-6.3-2.7-12.5-4.8-18.6-6.3c-5.5-1.3-10.8-2.4-16.1-3.3
		c8.6-37.2,15.7-74.4,21.2-110.7c6-39.9,9.8-81.5,11.2-123.5l0-0.3v-57l0-0.2c-0.7-20.9-2-41.6-3.9-61.6c-1.9-20-4.3-40.1-7.3-59.8
		c-3-19.7-6.5-39.7-10.5-59.4c-3.3-16.3-6.9-33.1-10.8-49.9c2.6-0.4,5.3-0.9,8.1-1.5l12.8-2.5l-5.8-11.7c-2.5-5.1-3.8-10.5-3.8-16.2
		C23.5,26.4,40,10,60.1,10c10.2,0,19.7,4.1,26.7,11.6l9.9,10.6l6.4-13c0.8-1.7,1.6-3.3,2.3-5c2.2-0.6,4.5-1.1,6.7-1.4
		c4-0.5,8-0.8,11.9-0.8c8.9,0,17.6,1.5,25.7,4.4c8,2.9,15.3,7.3,21.7,13c6.4,5.7,11.8,13,16,21.8c4.3,9,7.2,19.6,8.4,31.5l1.2,11.5
		l11.2-2.8c38-9.6,75.6-16.9,111.9-21.8c36.1-4.9,72.7-7.4,108.9-7.4c35.7,0,72.8,2.5,110.3,7.4c37.6,4.9,75.9,12.2,113.9,21.8
		l11.2,2.8l1.2-11.5c1.3-11.9,4.1-22.5,8.5-31.4c4.4-8.9,9.8-16.3,16.1-22c6.3-5.7,13.5-10,21.6-12.9c8.2-2.9,16.8-4.4,25.6-4.4
		c3.9,0,7.9,0.3,11.9,0.8c1.5,0.2,3,0.5,4.5,0.8l4.1,3.1c0.3,0.7,0.7,1.4,1,2.2l6.3,13l9.9-10.4c7-7.3,16.4-11.4,26.5-11.4
		c20.2,0,36.6,16.4,36.6,36.6c0,5.7-1.3,11.1-3.7,16.1l-5.7,11.7l12.7,2.6c2.9,0.6,5.7,1.1,8.5,1.6c-3.9,16.8-7.5,33.6-10.8,49.9
		c-3.9,19.7-7.5,39.7-10.5,59.4c-3,19.7-5.5,39.9-7.3,59.8c-1.9,20-3.2,40.7-3.8,61.6l0,0.3v57l0,0.2c1.4,42,5.2,83.6,11.2,123.5
		c5.5,36.4,12.6,73.6,21.2,110.7c-5.3,0.9-10.7,2-16.1,3.3c-7.3,1.8-14.6,4.3-21.6,7.6l-9.4,4.4l4.7,9.3c4.7,9.3,7.1,19.2,7.1,29.7
		c0,36-29.3,65.3-65.3,65.3c-10.8,0-21.1-2.6-30.5-7.6l-9-4.8l-4.6,9.1c-4.3,8.4-7.5,17.1-9.6,25.6c-1.3,5.5-2.4,10.8-3.3,16.1
		c-37.1-8.6-74.3-15.7-110.7-21.2c-39.9-6-81.5-9.8-123.5-11.2l-0.3,0h-57l-0.2,0c-20.9,0.7-41.6,2-61.6,3.9
		c-20,1.9-40.1,4.3-59.8,7.3c-19.7,3-39.7,6.5-59.4,10.5C203.4,751.4,186.7,755,169.8,758.9z"/>
	<g>
		<g>
			<path class="st2" d="M169,760.1l-0.2-1.1c-0.2-1-0.3-2-0.5-2.9l2-0.3c0.1,0.6,0.2,1.3,0.3,1.9l1.9-0.4l0.4,1.9L169,760.1z"/>
		</g>
		<g>
			<path class="st2" d="M167.3,750.7c-0.4-1.8-0.7-3.6-1.2-5.5l2-0.4c0.4,1.8,0.8,3.7,1.2,5.5L167.3,750.7z M164.8,739.8
				c-0.5-1.8-1-3.6-1.5-5.3l1.9-0.6c0.5,1.8,1.1,3.6,1.5,5.4L164.8,739.8z M161.6,729.2c-0.6-1.7-1.3-3.5-2-5.2l1.9-0.8
				c0.7,1.7,1.4,3.5,2,5.3L161.6,729.2z M157.4,718.9c-0.5-1-0.9-2-1.4-3l-1-2l1.8-0.9l1,2c0.5,1,1,2,1.4,3L157.4,718.9z"/>
		</g>
		<g>
			<polygon class="st2" points="152.6,708.8 151.7,707.1 150.1,708.1 149.1,706.4 152.6,704.3 154.4,708 			"/>
		</g>
		<g>
			<path class="st2" d="M109.6,721.4c-1.7,0-3.4-0.1-5.1-0.2l0.1-2c1.6,0.1,3.3,0.2,5,0.2c0.3,0,0.6,0,0.9,0l0,2
				C110.2,721.4,109.9,721.4,109.6,721.4z M116.6,721l-0.2-2c1.9-0.2,3.9-0.5,5.8-0.9l0.4,2C120.6,720.5,118.6,720.8,116.6,721z
				 M98.5,720.5c-2-0.3-4-0.8-5.9-1.3l0.5-1.9c1.9,0.5,3.8,0.9,5.7,1.2L98.5,720.5z M128.5,718.7l-0.6-1.9c1.9-0.6,3.7-1.2,5.5-1.9
				l0.7,1.9C132.3,717.4,130.4,718.1,128.5,718.7z M86.8,717.4c-1.9-0.7-3.8-1.5-5.6-2.3l0.9-1.8c1.8,0.8,3.6,1.6,5.4,2.3
				L86.8,717.4z M139.7,714.1l-0.9-1.8c1.2-0.6,2.4-1.3,3.5-1.9l1.6-1l1,1.7l-1.6,1C142.1,712.8,140.9,713.5,139.7,714.1z
				 M75.8,712.2c-1.7-1-3.4-2.1-5.1-3.3l1.2-1.6c1.6,1.1,3.2,2.2,4.9,3.2L75.8,712.2z M66,705.1c-1.5-1.3-3-2.7-4.4-4.2l1.4-1.4
				c1.3,1.4,2.8,2.8,4.3,4.1L66,705.1z M57.6,696.4c-1.3-1.6-2.5-3.2-3.6-4.9l1.7-1.1c1.1,1.6,2.2,3.2,3.5,4.8L57.6,696.4z
				 M51,686.3c-0.9-1.8-1.8-3.6-2.6-5.5l1.8-0.8c0.8,1.8,1.6,3.6,2.5,5.3L51,686.3z M46.3,675.1c-0.6-1.9-1.1-3.9-1.6-5.9l2-0.4
				c0.4,1.9,0.9,3.8,1.5,5.7L46.3,675.1z M43.7,663.3c-0.2-2-0.4-4-0.5-6l2-0.1c0.1,2,0.2,3.9,0.5,5.9L43.7,663.3z M45.3,651.3
				l-2-0.1c0.1-2,0.3-4,0.6-6l2,0.3C45.6,647.4,45.4,649.4,45.3,651.3z M47.1,639.7l-1.9-0.5c0.5-2,1.1-3.9,1.7-5.8l1.9,0.7
				C48.1,635.9,47.5,637.8,47.1,639.7z M50.9,628.6l-1.8-0.8c0.6-1.3,1.2-2.5,1.9-3.8l0.9-1.6l1.8,0.9l-0.9,1.6
				C52.1,626.1,51.5,627.4,50.9,628.6z"/>
		</g>
		<g>
			<polygon class="st2" points="56.4,618 54.7,617.1 55.6,615.4 53.8,614.6 54.6,612.8 58.3,614.4 			"/>
		</g>
		<g>
			<path class="st2" d="M48.4,612.3l-1.9-0.8c-1.2-0.5-2.4-1-3.5-1.5l0.7-1.9c1.2,0.5,2.4,1,3.6,1.5l1.9,0.8L48.4,612.3z M37.6,608
				c-1.9-0.6-3.7-1.2-5.5-1.7l0.5-1.9c1.9,0.5,3.7,1.1,5.6,1.8L37.6,608z M26.4,604.9c-1.9-0.4-3.8-0.9-5.7-1.3l0.4-2
				c1.9,0.4,3.8,0.8,5.7,1.3L26.4,604.9z"/>
		</g>
		<g>
			<path class="st2" d="M15,602.5c-1-0.2-2-0.4-2.9-0.5l-1-0.2l0.9-4l1.9,0.4l-0.4,1.9c0.6,0.1,1.3,0.2,1.9,0.3L15,602.5z"/>
		</g>
		<g>
			<path class="st2" d="M15.2,592.4l-2-0.4c0.4-2,0.9-3.9,1.3-5.9l2,0.4C16.1,588.5,15.7,590.5,15.2,592.4z M17.8,580.7l-2-0.4
				c0.4-2,0.8-3.9,1.3-5.9l2,0.4C18.6,576.8,18.2,578.7,17.8,580.7z M20.3,568.9l-2-0.4c0.4-2,0.8-3.9,1.2-5.9l2,0.4
				C21.1,565,20.7,567,20.3,568.9z M22.7,557.2l-2-0.4c0.4-2,0.8-3.9,1.2-5.9l2,0.4C23.5,553.3,23.1,555.2,22.7,557.2z M25,545.4
				l-2-0.4c0.4-2,0.7-3.9,1.1-5.9l2,0.4C25.7,541.5,25.4,543.4,25,545.4z M27.2,533.6l-2-0.4c0.4-2,0.7-3.9,1.1-5.9l2,0.4
				C27.9,529.7,27.6,531.6,27.2,533.6z M29.3,521.8l-2-0.3c0.3-2,0.7-3.9,1-5.9l2,0.3C30,517.8,29.7,519.8,29.3,521.8z M31.3,510
				l-2-0.3c0.3-2,0.6-3.9,1-5.9l2,0.3C32,506,31.7,508,31.3,510z M33.3,498.1l-2-0.3c0.3-2,0.6-4,0.9-5.9l2,0.3
				C33.9,494.1,33.6,496.1,33.3,498.1z M35.1,486.2l-2-0.3c0.3-2,0.6-3.9,0.9-5.9l2,0.3C35.6,482.3,35.3,484.3,35.1,486.2z
				 M36.7,474.4l-2-0.3c0.3-2,0.5-4,0.8-5.9l2,0.3C37.3,470.4,37,472.4,36.7,474.4z M38.3,462.5l-2-0.2c0.2-2,0.5-4,0.7-5.9l2,0.2
				C38.7,458.5,38.5,460.5,38.3,462.5z M39.7,450.5l-2-0.2c0.2-2,0.4-4,0.6-6l2,0.2C40.1,446.6,39.9,448.5,39.7,450.5z M40.9,438.6
				l-2-0.2c0.2-2,0.4-4,0.6-6l2,0.2C41.3,434.6,41.1,436.6,40.9,438.6z M42,426.6l-2-0.2c0.2-2,0.3-4,0.5-6l2,0.2
				C42.4,422.7,42.2,424.7,42,426.6z M43,414.7l-2-0.2c0.2-2,0.3-4,0.4-6l2,0.1C43.3,410.7,43.2,412.7,43,414.7z M43.9,402.7l-2-0.1
				c0.1-2,0.3-4,0.4-6l2,0.1C44.1,398.7,44,400.7,43.9,402.7z M44.6,390.7l-2-0.1c0.1-2,0.2-4,0.3-6l2,0.1
				C44.8,386.7,44.7,388.7,44.6,390.7z M45.2,378.7l-2-0.1c0.1-2,0.2-4,0.2-6l2,0.1C45.4,374.7,45.3,376.7,45.2,378.7z M45.7,366.7
				l-2,0l0-0.3v-5.7h2L45.7,366.7z M45.7,354.7h-2v-6h2V354.7z M45.7,342.7h-2v-6h2V342.7z M45.7,330.7h-2v-6h2V330.7z M45.7,318.7
				h-2v-6h2V318.7z M43.6,306.8c-0.1-2-0.1-4-0.2-6l2-0.1c0.1,2,0.2,4,0.2,6L43.6,306.8z M43.1,294.8c-0.1-2-0.2-4-0.3-6l2-0.1
				c0.1,2,0.2,4,0.3,6L43.1,294.8z M42.4,282.8c-0.1-2-0.2-4-0.4-6l2-0.1c0.1,2,0.2,4,0.4,6L42.4,282.8z M41.7,270.9
				c-0.1-2-0.3-4-0.4-6l2-0.2c0.2,2,0.3,4,0.4,6L41.7,270.9z M40.8,258.9c-0.2-2-0.3-4-0.5-6l2-0.2c0.2,2,0.3,4,0.5,6L40.8,258.9z
				 M39.7,247c-0.2-2-0.4-4-0.6-6l2-0.2c0.2,2,0.4,4,0.6,6L39.7,247z M38.5,235.1c-0.2-2-0.4-4-0.6-6l2-0.2c0.2,2,0.4,4,0.6,6
				L38.5,235.1z M37.2,223.2c-0.2-2-0.5-4-0.7-5.9l2-0.2c0.2,2,0.5,4,0.7,6L37.2,223.2z M35.7,211.3c-0.3-2-0.5-4-0.8-5.9l2-0.3
				c0.3,2,0.5,4,0.8,6L35.7,211.3z M34.1,199.4c-0.3-2-0.6-4-0.9-5.9l2-0.3c0.3,2,0.6,4,0.9,5.9L34.1,199.4z M32.4,187.5
				c-0.3-2-0.6-3.9-0.9-5.9l2-0.3c0.3,2,0.6,4,0.9,5.9L32.4,187.5z M30.5,175.7c-0.3-2-0.6-3.9-1-5.9l2-0.3c0.3,2,0.7,3.9,1,5.9
				L30.5,175.7z M28.6,163.9c-0.3-2-0.7-3.9-1-5.9l2-0.3c0.3,2,0.7,3.9,1,5.9L28.6,163.9z M26.5,152.1c-0.4-2-0.7-3.9-1.1-5.9l2-0.4
				c0.4,2,0.7,3.9,1.1,5.9L26.5,152.1z M24.3,140.3c-0.4-2-0.8-3.9-1.1-5.9l2-0.4c0.4,2,0.8,3.9,1.1,5.9L24.3,140.3z M22,128.5
				c-0.4-2-0.8-3.9-1.2-5.9l2-0.4c0.4,2,0.8,3.9,1.2,5.9L22,128.5z M19.6,116.8c-0.4-2-0.8-3.9-1.2-5.9l2-0.4c0.4,2,0.8,3.9,1.2,5.9
				L19.6,116.8z M17.1,105.1c-0.4-1.9-0.8-3.9-1.3-5.9l2-0.4c0.4,2,0.9,3.9,1.3,5.9L17.1,105.1z M14.6,93.3
				c-0.4-1.9-0.9-3.9-1.3-5.8l2-0.4c0.4,2,0.9,3.9,1.3,5.9L14.6,93.3z"/>
		</g>
		<g>
			<path class="st2" d="M11.9,81.6l-0.9-4l1-0.2c1-0.2,2-0.3,2.9-0.5l0.4,2c-0.6,0.1-1.3,0.2-1.9,0.3l0.4,1.9L11.9,81.6z"/>
		</g>
		<g>
			<polygon class="st2" points="20.5,78 20.2,77 20,76 25,75.1 25.3,77 			"/>
		</g>
		<g>
			<polygon class="st2" points="30.3,76 29.9,74.1 31.6,73.7 30.9,72.2 32.6,71.3 34.6,75.2 			"/>
		</g>
		<g>
			<path class="st2" d="M28.2,66.8l-1.8-3.6c-0.3-0.6-0.6-1.2-0.8-1.8l1.8-0.8c0.2,0.6,0.5,1.1,0.8,1.7L30,66L28.2,66.8z M23.6,55.6
				c-0.5-2-0.8-4-1-6.1l2-0.2c0.1,1.9,0.5,3.9,0.9,5.7L23.6,55.6z M24.7,43.6l-2-0.2c0.2-2,0.5-4.1,1-6.1l1.9,0.5
				C25.2,39.7,24.8,41.6,24.7,43.6z M27.5,32.3l-1.8-0.8c0.8-1.9,1.8-3.7,2.9-5.4l1.7,1.1C29.2,28.8,28.3,30.6,27.5,32.3z
				 M89.8,26.2l-4.1-4.4l1.4-1.4l4.1,4.4L89.8,26.2z M33.8,22.6l-1.5-1.3c1.4-1.5,2.9-2.9,4.5-4.2l1.2,1.6
				C36.6,19.9,35.2,21.2,33.8,22.6z M81.4,18c-1.6-1.2-3.2-2.2-4.9-3.1l0.9-1.8c1.8,0.9,3.6,2,5.2,3.3L81.4,18z M42.9,15.4l-1-1.8
				c1.8-1,3.7-1.8,5.6-2.5l0.7,1.9C46.4,13.7,44.6,14.5,42.9,15.4z M71.1,12.7c-1.8-0.6-3.7-1-5.7-1.3l0.3-2c2,0.3,4,0.8,6,1.4
				L71.1,12.7z M53.9,11.6l-0.4-2c2-0.4,4.1-0.6,6.1-0.6l0,2C57.7,11,55.8,11.2,53.9,11.6z"/>
		</g>
		<g>
			<polygon class="st2" points="97,33.9 94,30.7 95.4,29.3 96.5,30.4 97.2,29 99,29.9 			"/>
		</g>
		<g>
			<rect x="100.1" y="20.8" transform="matrix(0.898 0.44 -0.44 0.898 20.5149 -42.1387)" class="st2" width="2" height="4.7"/>
		</g>
		<g>
			<path class="st2" d="M105.1,17.3l-1.8-0.8c0.4-0.9,0.8-1.8,1.2-2.7l0.2-0.4l0.5-0.1c1-0.3,2-0.5,3-0.7l0.4,2
				c-0.8,0.2-1.6,0.4-2.4,0.6C105.8,15.8,105.5,16.5,105.1,17.3z"/>
		</g>
		<g>
			<path class="st2" d="M195.1,85.4l-0.3-2.6c-0.1-1.1-0.2-2.2-0.4-3.3l2-0.3c0.1,1.1,0.3,2.2,0.4,3.3l0.3,2.6L195.1,85.4z
				 M193.5,73.8c-0.4-1.9-0.8-3.9-1.2-5.7l1.9-0.5c0.5,1.9,0.9,3.9,1.2,5.8L193.5,73.8z M190.7,62.4c-0.6-1.9-1.2-3.7-1.9-5.5
				l1.9-0.7c0.7,1.8,1.4,3.7,2,5.6L190.7,62.4z M186.5,51.6c-0.9-1.8-1.8-3.5-2.7-5.2l1.7-1c1,1.7,1.9,3.5,2.8,5.3L186.5,51.6z
				 M180.6,41.5c-1.1-1.6-2.3-3.2-3.5-4.7l1.5-1.3c1.2,1.5,2.5,3.1,3.6,4.8L180.6,41.5z M173.2,32.5c-0.8-0.8-1.7-1.6-2.5-2.4
				c-0.6-0.5-1.2-1-1.8-1.5l1.3-1.5c0.6,0.5,1.2,1,1.8,1.6c0.9,0.8,1.8,1.6,2.6,2.5L173.2,32.5z M164.3,25.1
				c-1.6-1.1-3.2-2.1-4.9-3.1l1-1.7c1.7,1,3.4,2.1,5.1,3.2L164.3,25.1z M154.2,19.4c-1.6-0.7-3.2-1.4-4.9-2l-0.5-0.2l0.7-1.9
				l0.5,0.2c1.7,0.6,3.4,1.3,5,2.1L154.2,19.4z M143.2,15.5c-1.9-0.5-3.8-0.9-5.7-1.3l0.4-2c2,0.4,3.9,0.8,5.8,1.3L143.2,15.5z
				 M114.3,13.5l-0.2-2c2-0.2,4-0.4,6-0.5l0.1,2C118.2,13.2,116.2,13.3,114.3,13.5z M131.8,13.4c-1.9-0.2-3.9-0.3-5.8-0.4l0.1-2
				c2,0.1,4,0.2,6,0.4L131.8,13.4z"/>
		</g>
		<g>
			<polygon class="st2" points="196.1,95.5 195.7,91.3 197.7,91.1 197.9,93 199.7,92.5 200.2,94.5 			"/>
		</g>
		<g>
			<path class="st2" d="M206.1,93l-0.5-1.9l2.4-0.6c1.2-0.3,2.3-0.6,3.5-0.9l0.5,1.9c-1.2,0.3-2.3,0.6-3.5,0.9L206.1,93z M655.3,93
				l-2.4-0.6c-1.2-0.3-2.3-0.6-3.5-0.9l0.5-1.9c1.2,0.3,2.3,0.6,3.5,0.9l2.4,0.6L655.3,93z M643.5,90.1c-2-0.5-3.9-0.9-5.9-1.4
				l0.5-1.9c2,0.5,3.9,0.9,5.9,1.4L643.5,90.1z M217.8,90.1l-0.5-1.9c2-0.5,3.9-0.9,5.9-1.4l0.5,1.9
				C221.8,89.1,219.8,89.6,217.8,90.1z M631.7,87.3c-2-0.5-3.9-0.9-5.9-1.3l0.4-2c2,0.4,3.9,0.9,5.9,1.3L631.7,87.3z M229.6,87.3
				l-0.4-1.9c2-0.5,3.9-0.9,5.9-1.3l0.4,2C233.6,86.4,231.6,86.8,229.6,87.3z M619.9,84.7c-2-0.4-3.9-0.8-5.9-1.3l0.4-2
				c2,0.4,4,0.8,5.9,1.3L619.9,84.7z M241.4,84.6l-0.4-2c2-0.4,4-0.9,5.9-1.3l0.4,2C245.4,83.8,243.4,84.2,241.4,84.6z M608,82.2
				c-2-0.4-4-0.8-5.9-1.2l0.4-2c2,0.4,4,0.8,6,1.2L608,82.2z M253.3,82.1l-0.4-2c2-0.4,4-0.8,6-1.2l0.4,2
				C257.3,81.3,255.3,81.7,253.3,82.1z M596.2,79.8c-2-0.4-4-0.8-6-1.1l0.4-2c2,0.4,4,0.7,6,1.1L596.2,79.8z M265.2,79.7l-0.4-2
				c2-0.4,4-0.8,6-1.1l0.4,2C269.2,78.9,267.2,79.3,265.2,79.7z M584.2,77.6c-2-0.4-4-0.7-6-1l0.3-2c2,0.3,4,0.7,6,1.1L584.2,77.6z
				 M277.1,77.5l-0.4-2c2-0.4,4-0.7,6-1.1l0.3,2C281.1,76.7,279.1,77.1,277.1,77.5z M572.3,75.5c-2-0.3-4-0.7-6-1l0.3-2
				c2,0.3,4,0.6,6,1L572.3,75.5z M289,75.4l-0.3-2c2-0.3,4-0.7,6-1l0.3,2C293,74.7,291,75,289,75.4z M560.3,73.6c-2-0.3-4-0.6-6-0.9
				l0.3-2c2,0.3,4,0.6,6,0.9L560.3,73.6z M301,73.4l-0.3-2c2-0.3,4-0.6,6-0.9l0.3,2C305,72.8,303,73.1,301,73.4z M548.4,71.9
				c-2-0.3-4-0.6-6-0.8l0.3-2c2,0.3,4,0.5,6,0.8L548.4,71.9z M313,71.6l-0.3-2c2-0.3,4-0.6,6-0.8l0.3,2C317,71,315,71.3,313,71.6z
				 M536.4,70.3c-2-0.3-4-0.5-6-0.7l0.2-2c2,0.2,4,0.5,6,0.7L536.4,70.3z M325,70l-0.3-2c2-0.3,4-0.5,6-0.8l0.2,2
				C329,69.5,327,69.7,325,70z M524.3,68.8c-2-0.2-4-0.4-6-0.7l0.2-2c2,0.2,4,0.4,6,0.7L524.3,68.8z M337,68.5l-0.2-2
				c2-0.2,4-0.5,6-0.7l0.2,2C341,68.1,339,68.3,337,68.5z M512.3,67.5c-2-0.2-4-0.4-6-0.6l0.2-2c2,0.2,4,0.4,6,0.6L512.3,67.5z
				 M349.1,67.2l-0.2-2c2-0.2,4-0.4,6-0.6l0.2,2C353.1,66.8,351.1,67,349.1,67.2z M500.2,66.4c-2-0.2-4-0.3-6-0.5l0.2-2
				c2,0.2,4,0.3,6,0.5L500.2,66.4z M361.1,66.1l-0.2-2c2-0.2,4-0.3,6.1-0.5l0.2,2C365.1,65.8,363.1,66,361.1,66.1z M488.2,65.4
				c-2-0.1-4-0.3-6-0.4l0.1-2c2,0.1,4,0.3,6.1,0.4L488.2,65.4z M373.2,65.2l-0.1-2c2-0.1,4-0.3,6.1-0.4l0.1,2
				C377.2,64.9,375.2,65.1,373.2,65.2z M476.1,64.6c-2-0.1-4-0.2-6-0.3l0.1-2c2,0.1,4,0.2,6.1,0.3L476.1,64.6z M385.3,64.4l-0.1-2
				c2-0.1,4-0.2,6.1-0.3l0.1,2C389.3,64.2,387.3,64.3,385.3,64.4z M464,64c-2-0.1-4-0.2-6-0.2l0.1-2c2,0.1,4,0.2,6.1,0.2L464,64z
				 M397.4,63.9l-0.1-2c2-0.1,4-0.2,6.1-0.2l0.1,2C401.4,63.7,399.4,63.8,397.4,63.9z M451.9,63.6c-2-0.1-4-0.1-6.1-0.2l0-2
				c2,0,4,0.1,6.1,0.2L451.9,63.6z M409.5,63.5l0-2c2,0,4-0.1,6.1-0.1l0,2C413.5,63.4,411.5,63.4,409.5,63.5z M439.8,63.3
				c-2,0-4,0-6.1-0.1l0-2c2,0,4,0,6.1,0.1L439.8,63.3z M421.6,63.3l0-2c2,0,4,0,6.1,0l0,2C425.6,63.3,423.6,63.3,421.6,63.3z"/>
		</g>
		<g>
			<polygon class="st2" points="665.2,95.5 661.2,94.5 661.7,92.5 663.5,93 663.7,91.1 665.6,91.3 			"/>
		</g>
		<g>
			<path class="st2" d="M666.3,85.2l-2-0.2l0.2-2.3c0.1-1.3,0.3-2.6,0.5-3.9l2,0.3c-0.2,1.3-0.3,2.6-0.5,3.9L666.3,85.2z M668,72.9
				l-2-0.4c0.4-2.1,0.9-4.1,1.4-6.1l1.9,0.5C668.9,68.9,668.4,70.9,668,72.9z M671.2,61l-1.9-0.6c0.7-2,1.4-4,2.2-5.9l1.8,0.8
				C672.6,57.2,671.8,59.1,671.2,61z M676,49.8l-1.8-0.9c1-1.9,2-3.7,3.1-5.5l1.7,1.1C678,46.1,677,47.9,676,49.8z M682.5,39.4
				l-1.6-1.2c1.3-1.7,2.6-3.4,4-4.9l1.5,1.3C685,36.1,683.7,37.7,682.5,39.4z M690.7,30.3l-1.3-1.5l0.2-0.2c1.5-1.3,3-2.6,4.6-3.8
				l1.2,1.6c-1.6,1.2-3.1,2.4-4.5,3.7L690.7,30.3z M760.2,23.9l-2.3-4.6c-0.2-0.3-0.3-0.6-0.5-1l1.8-0.9c0.1,0.3,0.3,0.6,0.5,0.9
				L762,23L760.2,23.9z M700.5,22.9l-1-1.7c1.8-1.1,3.7-2.1,5.5-3l0.9,1.8C704,20.9,702.2,21.9,700.5,22.9z M711.5,17.6l-0.7-1.9
				c0.2-0.1,0.5-0.2,0.7-0.3c1.7-0.6,3.5-1.2,5.3-1.7l0.5,1.9c-1.7,0.5-3.5,1-5.1,1.6C711.9,17.5,711.7,17.5,711.5,17.6z
				 M753.5,14.6c-0.1,0-0.1,0-0.2,0l0,0l0,0c-1.4-0.3-2.8-0.6-4.2-0.7c-0.5-0.1-0.9-0.1-1.4-0.2l0.2-2c0.5,0.1,1,0.1,1.4,0.2
				c1.5,0.2,3,0.5,4.6,0.8l0.2,0l0.4,0.3l-0.9,1.3L753.5,14.6z M723.3,14.3l-0.4-2c2.1-0.4,4.1-0.7,6.2-0.9l0.2,2
				C727.3,13.7,725.3,14,723.3,14.3z M741.6,13.1c-2.1-0.1-4.1-0.1-6.1-0.1l-0.1-2c2.1-0.1,4.2,0,6.3,0.1L741.6,13.1z"/>
		</g>
		<g>
			<polygon class="st2" points="764.9,33.5 763,29.5 764.8,28.6 765.4,30 766.5,28.9 768,30.3 			"/>
		</g>
		<g>
			<path class="st2" d="M833.6,66.7l-1.8-0.9l1.8-3.6c0.3-0.6,0.6-1.2,0.8-1.8l1.8,0.8c-0.3,0.6-0.5,1.2-0.8,1.8L833.6,66.7z
				 M838.1,55.5l-1.9-0.5c0.5-1.9,0.8-3.8,0.9-5.7l2,0.1C838.9,51.5,838.6,53.5,838.1,55.5z M837.1,43.5c-0.2-1.9-0.5-3.8-1-5.7
				l1.9-0.5c0.5,2,0.8,4,1,6L837.1,43.5z M834.2,32.3c-0.8-1.8-1.7-3.5-2.7-5.1l1.7-1.1c1.1,1.7,2.1,3.5,2.9,5.4L834.2,32.3z
				 M772.1,26l-1.4-1.4l4.1-4.3l1.4,1.4L772.1,26z M827.9,22.7c-1.3-1.4-2.7-2.8-4.2-4l1.2-1.6c1.6,1.3,3.1,2.7,4.5,4.2L827.9,22.7z
				 M780.6,17.9l-1.2-1.6c1.6-1.2,3.4-2.3,5.2-3.2l0.9,1.8C783.8,15.7,782.1,16.7,780.6,17.9z M818.9,15.5c-1.7-0.9-3.5-1.7-5.3-2.4
				l0.7-1.9c1.9,0.7,3.8,1.5,5.6,2.5L818.9,15.5z M790.8,12.6l-0.6-1.9c1.9-0.6,3.9-1.1,6-1.4l0.3,2
				C794.6,11.6,792.7,12.1,790.8,12.6z M808,11.6c-1.9-0.3-3.8-0.5-5.8-0.6l0-2c2,0,4.1,0.2,6.1,0.6L808,11.6z"/>
		</g>
		<g>
			<polygon class="st2" points="831.5,75.9 827.2,75.1 829.1,71.2 830.9,72.1 830.2,73.6 831.9,74 			"/>
		</g>
		<g>
			
				<rect x="836.7" y="75.5" transform="matrix(0.9805 0.1966 -0.1966 0.9805 31.4139 -163.4982)" class="st2" width="5.2" height="2"/>
		</g>
		<g>
			<path class="st2" d="M850.2,81.6l-1.9-0.4l0.4-1.9c-0.6-0.1-1.3-0.2-1.9-0.3l0.3-2c1,0.2,2,0.3,2.9,0.5l1,0.2L850.2,81.6z"/>
		</g>
		<g>
			<path class="st2" d="M846.9,592.4c-0.4-2-0.9-3.9-1.3-5.9l2-0.4c0.4,2,0.9,3.9,1.3,5.8L846.9,592.4z M844.4,580.7
				c-0.4-2-0.8-3.9-1.3-5.9l2-0.4c0.4,2,0.8,3.9,1.3,5.9L844.4,580.7z M841.9,569c-0.4-2-0.8-3.9-1.2-5.9l2-0.4
				c0.4,2,0.8,3.9,1.2,5.9L841.9,569z M839.5,557.2c-0.4-2-0.8-3.9-1.2-5.9l2-0.4c0.4,2,0.8,3.9,1.2,5.9L839.5,557.2z M837.2,545.4
				c-0.4-2-0.7-3.9-1.1-5.9l2-0.4c0.4,2,0.7,3.9,1.1,5.9L837.2,545.4z M835,533.6c-0.4-2-0.7-3.9-1.1-5.9l2-0.4
				c0.4,2,0.7,3.9,1.1,5.9L835,533.6z M832.8,521.8c-0.3-2-0.7-3.9-1-5.9l2-0.3c0.3,2,0.7,3.9,1,5.9L832.8,521.8z M830.8,510
				c-0.3-2-0.7-3.9-1-5.9l2-0.3c0.3,2,0.6,3.9,1,5.9L830.8,510z M828.9,498.1c-0.3-2-0.6-4-0.9-5.9l2-0.3c0.3,2,0.6,3.9,0.9,5.9
				L828.9,498.1z M827.1,486.3c-0.3-2-0.6-4-0.9-5.9l2-0.3c0.3,2,0.6,4,0.9,5.9L827.1,486.3z M825.4,474.4c-0.3-2-0.5-4-0.8-6l2-0.3
				c0.3,2,0.5,4,0.8,5.9L825.4,474.4z M823.9,462.5c-0.2-2-0.5-4-0.7-6l2-0.2c0.2,2,0.5,4,0.7,6L823.9,462.5z M822.5,450.5
				c-0.2-2-0.4-4-0.6-6l2-0.2c0.2,2,0.4,4,0.6,6L822.5,450.5z M821.2,438.6c-0.2-2-0.4-4-0.6-6l2-0.2c0.2,2,0.4,4,0.6,6L821.2,438.6
				z M820.1,426.6c-0.2-2-0.3-4-0.5-6l2-0.2c0.2,2,0.3,4,0.5,6L820.1,426.6z M819.1,414.7c-0.2-2-0.3-4-0.4-6l2-0.1
				c0.1,2,0.3,4,0.4,6L819.1,414.7z M818.3,402.7c-0.1-2-0.3-4-0.4-6l2-0.1c0.1,2,0.2,4,0.4,6L818.3,402.7z M817.6,390.7
				c-0.1-2-0.2-4-0.3-6l2-0.1c0.1,2,0.2,4,0.3,6L817.6,390.7z M817,378.7c-0.1-2-0.2-4-0.2-6l2-0.1c0.1,2,0.2,4,0.2,6L817,378.7z
				 M816.5,366.7l0-0.1l0-5.9h2l0,6L816.5,366.7z M818.5,354.7h-2v-6h2V354.7z M818.5,342.7h-2v-6h2V342.7z M818.5,330.7h-2v-6h2
				V330.7z M818.5,318.7h-2v-6h2V318.7z M818.6,306.7l-2-0.1c0.1-2,0.1-4,0.2-6l2,0.1C818.7,302.7,818.7,304.7,818.6,306.7z
				 M819.1,294.8l-2-0.1c0.1-2,0.2-4,0.3-6l2,0.1C819.3,290.8,819.2,292.8,819.1,294.8z M819.7,282.8l-2-0.1c0.1-2,0.2-4,0.4-6
				l2,0.1C820,278.8,819.8,280.8,819.7,282.8z M820.5,270.8l-2-0.1c0.1-2,0.3-4,0.4-6l2,0.2C820.8,266.9,820.6,268.9,820.5,270.8z
				 M821.4,258.9l-2-0.2c0.2-2,0.3-4,0.5-6l2,0.2C821.7,254.9,821.5,256.9,821.4,258.9z M822.4,247l-2-0.2c0.2-2,0.4-4,0.6-6l2,0.2
				C822.8,243,822.6,245,822.4,247z M823.6,235l-2-0.2c0.2-2,0.4-4,0.6-6l2,0.2C824,231.1,823.8,233.1,823.6,235z M824.9,223.1
				l-2-0.2c0.2-2,0.5-4,0.7-6l2,0.2C825.4,219.2,825.2,221.2,824.9,223.1z M826.4,211.2l-2-0.3c0.3-2,0.5-4,0.8-6l2,0.3
				C826.9,207.3,826.7,209.3,826.4,211.2z M828,199.4l-2-0.3c0.3-2,0.6-4,0.9-5.9l2,0.3C828.6,195.4,828.3,197.4,828,199.4z
				 M829.8,187.5l-2-0.3c0.3-2,0.6-4,0.9-5.9l2,0.3C830.4,183.6,830.1,185.5,829.8,187.5z M831.6,175.7l-2-0.3c0.3-2,0.6-3.9,1-5.9
				l2,0.3C832.3,171.7,832,173.7,831.6,175.7z M833.6,163.9l-2-0.3c0.3-2,0.7-3.9,1-5.9l2,0.3C834.3,159.9,833.9,161.9,833.6,163.9z
				 M835.7,152.1l-2-0.4c0.4-2,0.7-3.9,1.1-5.9l2,0.4C836.4,148.1,836.1,150.1,835.7,152.1z M837.9,140.3l-2-0.4
				c0.4-2,0.8-3.9,1.1-5.9l2,0.4C838.6,136.3,838.3,138.3,837.9,140.3z M840.2,128.5l-2-0.4c0.4-2,0.8-3.9,1.2-5.9l2,0.4
				C841,124.6,840.6,126.6,840.2,128.5z M842.6,116.8l-2-0.4c0.4-2,0.8-3.9,1.2-5.9l2,0.4C843.4,112.9,843,114.8,842.6,116.8z
				 M845.1,105l-2-0.4c0.4-2,0.8-3.9,1.3-5.9l2,0.4C845.9,101.1,845.5,103.1,845.1,105z M847.6,93.3l-2-0.4c0.4-2,0.9-3.9,1.3-5.9
				l2,0.4C848.5,89.4,848,91.4,847.6,93.3z"/>
		</g>
		<g>
			<path class="st2" d="M847.1,602.5l-0.4-2c0.6-0.1,1.3-0.2,1.9-0.3l-0.4-1.9l1.9-0.4l0.9,4l-1,0.2
				C849.1,602.1,848.1,602.3,847.1,602.5z"/>
		</g>
		<g>
			<path class="st2" d="M811.6,613.3l-0.8-1.8l1-0.5c1.6-0.7,3.2-1.4,4.7-2.1l0.8,1.8c-1.5,0.6-3.1,1.3-4.7,2L811.6,613.3z
				 M823.1,608.5l-0.7-1.9c2-0.7,4-1.4,6-1.9l0.6,1.9C827,607.2,825,607.8,823.1,608.5z M835,605l-0.5-1.9c2-0.5,4.1-1,6.1-1.4
				l0.4,2C839,604.1,837,604.6,835,605z"/>
		</g>
		<g>
			<polygon class="st2" points="803.2,619.4 801.4,615.8 805.1,614.1 805.9,615.9 804.1,616.7 805,618.5 			"/>
		</g>
		<g>
			<path class="st2" d="M747.6,721.4c-2.1-0.1-4.2-0.2-6.3-0.5l0.2-2c2,0.2,4,0.4,6.1,0.4L747.6,721.4z M753.8,721.3l-0.1-2
				c2-0.1,4.1-0.4,6.1-0.7l0.3,2C758,720.9,755.9,721.1,753.8,721.3z M735.1,719.9c-2-0.4-4.1-1-6.1-1.6l0.6-1.9
				c1.9,0.6,3.9,1.2,5.9,1.6L735.1,719.9z M766.2,719.2l-0.5-1.9c2-0.5,3.9-1.1,5.8-1.8l0.7,1.9
				C770.3,718.1,768.3,718.7,766.2,719.2z M723.1,716c-1.6-0.7-3.2-1.5-4.8-2.3l-0.8-0.4l0.9-1.8l0.8,0.4c1.5,0.8,3.1,1.6,4.7,2.2
				L723.1,716z M778,714.9l-0.9-1.8c1.8-0.9,3.6-1.9,5.4-2.9l1,1.7C781.8,713,779.9,714,778,714.9z M788.8,708.4l-1.2-1.6
				c1.6-1.2,3.2-2.5,4.7-3.9l1.3,1.5C792.1,705.8,790.4,707.2,788.8,708.4z M798.1,700l-1.5-1.4c1.4-1.5,2.7-3.1,3.9-4.7l1.6,1.2
				C800.9,696.8,799.5,698.5,798.1,700z M805.7,690l-1.7-1.1c1.1-1.7,2.1-3.5,3-5.3l1.8,0.9C807.8,686.4,806.8,688.2,805.7,690z
				 M811.3,678.7l-1.9-0.7c0.7-1.9,1.4-3.8,1.9-5.8l1.9,0.5C812.7,674.8,812,676.8,811.3,678.7z M814.6,666.6l-2-0.3
				c0.3-2,0.6-4,0.8-6l2,0.2C815.2,662.5,815,664.6,814.6,666.6z M813.6,654.2c0-2-0.2-4.1-0.4-6.1l2-0.2c0.2,2.1,0.4,4.2,0.4,6.3
				L813.6,654.2z M812.3,642c-0.4-2-0.9-4-1.5-5.9l1.9-0.6c0.6,2,1.2,4,1.6,6.1L812.3,642z M808.7,630.4c-0.6-1.5-1.3-3-2.1-4.5
				l-0.5-1.1l1.8-0.9l0.5,1.1c0.8,1.5,1.5,3.1,2.1,4.6L808.7,630.4z"/>
		</g>
		<g>
			<polygon class="st2" points="709.3,711.2 707.5,710.3 709.4,706.7 712.9,708.6 712,710.4 710.2,709.4 			"/>
		</g>
		<g>
			<path class="st2" d="M694.8,750.9l-2-0.4c0.4-1.7,0.7-3.5,1.2-5.2l1.9,0.5C695.5,747.5,695.1,749.2,694.8,750.9z M697.2,740.6
				l-1.9-0.5c0.5-1.7,1-3.5,1.5-5.2l1.9,0.6C698.2,737.2,697.7,738.9,697.2,740.6z M700.4,730.5l-1.9-0.7c0.6-1.7,1.3-3.4,2-5
				l1.8,0.8C701.7,727.2,701,728.8,700.4,730.5z M704.6,720.7l-1.8-0.9c0.5-1.1,1-2.1,1.5-3.2l0.8-1.7l1.8,0.9l-0.8,1.7
				C705.6,718.6,705,719.7,704.6,720.7z"/>
		</g>
		<g>
			<path class="st2" d="M693.1,760.1l-4-0.9l0.4-1.9l1.9,0.4c0.1-0.6,0.2-1.3,0.3-1.9l2,0.4c-0.2,1-0.4,2-0.5,2.9L693.1,760.1z"/>
		</g>
		<g>
			<path class="st2" d="M178.8,757.9l-0.4-2c2-0.4,3.9-0.9,5.9-1.3l0.4,2C182.7,757,180.8,757.5,178.8,757.9z M683.3,757.9
				c-1.9-0.4-3.9-0.9-5.8-1.3l0.4-2c2,0.4,3.9,0.9,5.9,1.3L683.3,757.9z M190.5,755.3l-0.4-2c2-0.4,3.9-0.8,5.9-1.3l0.4,2
				C194.4,754.5,192.5,754.9,190.5,755.3z M671.6,755.3c-2-0.4-3.9-0.8-5.9-1.3l0.4-2c2,0.4,3.9,0.8,5.9,1.3L671.6,755.3z
				 M659.8,752.8c-2-0.4-3.9-0.8-5.9-1.2l0.4-2c2,0.4,3.9,0.8,5.9,1.2L659.8,752.8z M202.2,752.8l-0.4-2c2-0.4,3.9-0.8,5.9-1.2
				l0.4,2C206.1,752,204.2,752.4,202.2,752.8z M648.1,750.4c-2-0.4-3.9-0.8-5.9-1.2l0.4-2c2,0.4,3.9,0.8,5.9,1.2L648.1,750.4z
				 M214,750.4l-0.4-2c2-0.4,3.9-0.8,5.9-1.2l0.4,2C217.9,749.6,215.9,750,214,750.4z M636.3,748.1c-2-0.4-3.9-0.7-5.9-1.1l0.4-2
				c2,0.4,3.9,0.7,5.9,1.1L636.3,748.1z M225.7,748l-0.4-2c2-0.4,3.9-0.8,5.9-1.1l0.4,2C229.6,747.2,227.7,747.6,225.7,748z
				 M624.6,745.9c-2-0.4-3.9-0.7-5.9-1.1l0.4-2c2,0.4,3.9,0.7,5.9,1.1L624.6,745.9z M237.5,745.8l-0.4-2c2-0.4,3.9-0.7,5.9-1.1
				l0.4,2C241.4,745,239.5,745.4,237.5,745.8z M612.8,743.8c-2-0.3-3.9-0.7-5.9-1l0.3-2c2,0.3,3.9,0.7,5.9,1L612.8,743.8z
				 M249.3,743.6l-0.3-2c2-0.3,3.9-0.7,5.9-1l0.3,2C253.2,742.9,251.2,743.3,249.3,743.6z M600.9,741.8c-2-0.3-3.9-0.6-5.9-1l0.3-2
				c2,0.3,3.9,0.6,5.9,1L600.9,741.8z M261.1,741.6l-0.3-2c2-0.3,3.9-0.7,5.9-1l0.3,2C265,740.9,263.1,741.3,261.1,741.6z
				 M589.1,739.9c-2-0.3-4-0.6-5.9-0.9l0.3-2c2,0.3,4,0.6,5.9,0.9L589.1,739.9z M272.9,739.7l-0.3-2c2-0.3,4-0.6,5.9-0.9l0.3,2
				C276.9,739,274.9,739.4,272.9,739.7z M577.3,738.1c-2-0.3-3.9-0.6-5.9-0.9l0.3-2c2,0.3,4,0.6,5.9,0.9L577.3,738.1z M284.8,737.9
				l-0.3-2c2-0.3,4-0.6,5.9-0.9l0.3,2C288.7,737.3,286.7,737.6,284.8,737.9z M565.4,736.4c-2-0.3-4-0.5-5.9-0.8l0.3-2
				c2,0.3,4,0.5,6,0.8L565.4,736.4z M296.6,736.2l-0.3-2c2-0.3,4-0.5,6-0.8l0.3,2C300.6,735.7,298.6,735.9,296.6,736.2z
				 M553.5,734.9c-2-0.2-4-0.5-5.9-0.7l0.2-2c2,0.2,4,0.5,6,0.7L553.5,734.9z M308.5,734.6l-0.2-2c2-0.2,4-0.5,6-0.7l0.2,2
				C312.5,734.2,310.5,734.4,308.5,734.6z M541.6,733.5c-2-0.2-4-0.4-6-0.6l0.2-2c2,0.2,4,0.4,6,0.6L541.6,733.5z M320.4,733.3
				l-0.2-2c2-0.2,4-0.4,6-0.6l0.2,2C324.4,732.8,322.4,733,320.4,733.3z M529.7,732.2c-2-0.2-4-0.4-6-0.6l0.2-2c2,0.2,4,0.4,6,0.6
				L529.7,732.2z M332.3,732l-0.2-2c2-0.2,4-0.4,6-0.6l0.2,2C336.3,731.6,334.3,731.8,332.3,732z M517.8,731.1c-2-0.2-4-0.3-6-0.5
				l0.2-2c2,0.2,4,0.3,6,0.5L517.8,731.1z M344.3,730.9l-0.2-2c2-0.2,4-0.3,6-0.5l0.2,2C348.2,730.5,346.2,730.7,344.3,730.9z
				 M505.8,730.1c-2-0.2-4-0.3-6-0.4l0.1-2c2,0.1,4,0.3,6,0.4L505.8,730.1z M356.2,729.9l-0.2-2c2-0.2,4-0.3,6-0.4l0.1,2
				C360.2,729.6,358.2,729.7,356.2,729.9z M493.9,729.3c-2-0.1-4-0.3-6-0.4l0.1-2c2,0.1,4,0.2,6,0.4L493.9,729.3z M368.2,729.1
				l-0.1-2c2-0.1,4-0.2,6-0.4l0.1,2C372.1,728.8,370.2,728.9,368.2,729.1z M481.9,728.5c-2-0.1-4-0.2-6-0.3l0.1-2c2,0.1,4,0.2,6,0.3
				L481.9,728.5z M380.1,728.4l-0.1-2c2-0.1,4-0.2,6-0.3l0.1,2C384.1,728.2,382.1,728.3,380.1,728.4z M470,728c-2-0.1-4-0.2-6-0.2
				l0.1-2c2,0.1,4,0.2,6,0.2L470,728z M392.1,727.8l-0.1-2c2-0.1,4-0.2,6-0.2l0.1,2C396.1,727.7,394.1,727.7,392.1,727.8z
				 M458,727.5l-0.3,0H452v-2l6,0L458,727.5z M446,727.5h-6v-2h6V727.5z M434,727.5h-6v-2h6V727.5z M422,727.5h-6v-2h6V727.5z
				 M410,727.5h-6v-2h6V727.5z"/>
		</g>
	</g>
</g>
<polygon class="st2" points="56.4,25.2 60.9,34.2 71,35.7 63.7,42.8 65.4,52.8 56.4,48.1 47.5,52.8 49.2,42.8 41.9,35.7 51.9,34.2 
	"/>
<polygon class="st2" points="808.1,25.2 812.6,34.2 822.6,35.7 815.4,42.8 817.1,52.8 808.1,48.1 799.1,52.8 800.9,42.8 793.6,35.7 
	803.6,34.2 "/>
<path class="st2" d="M53.8,614.6c0,0,0,0-42.8-12.9c10.9-50.9,423,49.6,423,49.6s406.7-88.2,415.9-50.4
	c-45.8,15.8-45.8,15.8-45.8,15.8s30.7,33.7-2,80.3c-48.1,53.6-92.3,11.1-92.3,11.1L435,705.4l-282.9,0.3c0,0-43.4,41.8-90.5-4.7
	C20.1,653.9,53.8,614.6,53.8,614.6z"/>
<g>
	<g>
		<path class="st1" d="M293,658.1h22v7.6h-12.8v5.7h11.3v7.8h-11.3v14H293V658.1z"/>
		<path class="st1" d="M330.8,679.2c0,2.5,2.1,4.6,4.6,4.6c2.5,0,4.6-2.1,4.6-4.6v-21.1h9.3v21.2c0,7.7-6.2,13.8-13.8,13.8
			c-7.7,0-13.8-6.1-13.8-13.8v-21.2h9.3V679.2z"/>
		<path class="st1" d="M382,693.1l-16.5-16.6v16.6h-9.2v-35.1h3.7l16.6,16.5v-16.5h9.2v35.1H382z"/>
		<path class="st1" d="M405.7,668.8c0-1.4-1.2-2.7-2.7-2.7s-2.6,1.2-2.6,2.7s1.2,2.6,2.6,2.6c3.4,0,6.5,1.6,8.5,4.2
			c1.5,1.9,2.3,4.2,2.3,6.8c0,6-4.8,10.8-10.8,10.8s-10.8-4.7-10.8-10.9h8.2c0,1.5,1.2,2.7,2.6,2.7s2.7-1.2,2.7-2.6
			c0-1.4-1.2-2.7-2.7-2.7c-6,0-10.7-4.8-10.7-10.8s4.8-10.8,10.7-10.8s10.8,4.8,10.8,10.8H405.7z"/>
		<path class="st1" d="M419.6,658h27.6v9.2H438v25.9h-9.2v-25.9h-9.1V658z"/>
		<path class="st1" d="M516,693.1l-5.4-9.3h-5.7v9.3h-9.2v-35.1h14.8c7.1,0,12.9,5.8,12.9,12.9c0,3.7-1.6,7.1-4.2,9.4l7.4,12.7H516z
			 M504.9,675.9h5.7c2.8,0,5-2.2,5-5c0-2.8-2.2-5-5-5h-5.7V675.9z"/>
		<path class="st1" d="M530.4,658H558v9.2h-9.3v25.9h-9.2v-25.9h-9.1V658z"/>
	</g>
	<g id="XMLID_128_">
		<polygon id="XMLID_129_" class="st3" points="465.1,692.9 465.1,682.7 459.3,682.7 453.4,692.9 		"/>
		<path id="XMLID_131_" class="st3" d="M492.1,689L492.1,689l-18.2-31.5l-5.9,10.2l3.6,6.2l2.3,4l0.5,0.9l2.3,4h-5.6v10.2h2.8h8.7
			h7.1C491.7,692.9,492.9,690.8,492.1,689z"/>
		<path id="XMLID_134_" class="st3" d="M478.2,650h-3.1c-5.3,0-10.3,2.8-12.9,7.5l0,0l-3.5,6l-11.1,19.2l-5.9,10.2l-3.5,6h4.8
			c4.3,0,8.3-2.3,10.5-6l5.9-10.2l5.2-9.1l3.5-6l5.9-10.2L478.2,650z"/>
	</g>
</g>
</svg>
