<?xml version="1.0" encoding="utf-8"?>
<!-- Generator: Adobe Illustrator 19.0.0, SVG Export Plug-In . SVG Version: 6.00 Build 0)  -->
<svg version="1.1" id="Layer_1" xmlns="http://www.w3.org/2000/svg" xmlns:xlink="http://www.w3.org/1999/xlink" x="0px" y="0px"
	 viewBox="0 0 75 20" style="enable-background:new 0 0 75 20;" xml:space="preserve">
<style type="text/css">
	.st0{fill:#FF7300;}
	.st1{fill:#F49939;}
	.st2{fill:#2B2E7B;}
	.st3{fill:#FFD110;}
	.st4{fill:#FFFFFF;}
	.st5{font-family:'SVN-Cookies';}
	.st6{font-size:16.239px;}
</style>
<path id="XMLID_203_" class="st0" d="M549.8,11.1l-7.2-12.5l-18,31.1l-7.3,12.6l-4.3,7.4h5.9c5.3,0,10.2-2.8,12.9-7.4l21.7,0V29.6
	h-14.5L549.8,11.1z M530.2,44.1L530.2,44.1L530.2,44.1L530.2,44.1z"/>
<path id="XMLID_199_" class="st0" d="M579.4,37.4c0-0.1-0.1-0.1-0.1-0.2l-15.1-26.1l0,0L557-1.4l5.3-9.2h-3.8
	c-6.6,0-12.6,3.5-15.9,9.2v0l7.2,12.5l4.4,7.6l3.5,6v0l2.8,4.9h-6.9v12.5h3.5h10.7h8.7C578.9,42.2,580.5,39.6,579.4,37.4z"/>
<g id="XMLID_2_">
	<g id="XMLID_3_">
		<path id="XMLID_12_" class="st1" d="M20.5,7.7c0.1-0.2,0.4-0.5,0.6-0.5c0.3,0,0.5,0.3,0.5,0.6c0,0.3-0.1,0.6-0.3,0.8
			c0.1-0.2,0.3-0.4,0.5-0.3C22.1,8.4,22.1,8.7,22,9c-0.1,0.4-0.4,0.7-0.7,1c0-0.2,0.3-0.2,0.4,0c0.1,0.2,0.1,0.4,0,0.5
			c-0.3,1.2-1.1,2.2-2.3,2.6c-0.6,0.2-0.3-1.6-0.2-1.9C19.5,10,19.9,8.6,20.5,7.7z"/>
		<path id="XMLID_11_" class="st1" d="M3.8,7.2C3.7,7,3.5,6.7,3.2,6.7C2.9,6.7,2.7,7,2.7,7.3c0,0.3,0.1,0.6,0.2,0.9
			C2.8,7.9,2.6,7.7,2.4,7.8C2.2,7.9,2.2,8.2,2.2,8.4c0.1,0.4,0.3,0.8,0.6,1.1c0-0.2-0.3-0.2-0.4-0.1C2.2,9.5,2.2,9.7,2.2,9.9
			c0.2,1.2,0.9,2.3,2,2.8c0.5,0.2,0.4-1.5,0.4-1.9C4.6,9.6,4.3,8.3,3.8,7.2z"/>
		<g id="XMLID_4_">
			<path id="XMLID_20_" class="st2" d="M20.7,11.4c0-0.4-0.1-0.8-0.2-1.2c0,0-1.8,3.1-8.5,3.2c-6.7,0.1-8.7-2.8-8.7-2.8
				c-0.1,0.4-0.1,0.9-0.1,1.3c0,0.9,0.1,1.8,0.3,2.6c0.1,0.5,0.3,0.9,0.6,1.3c1.8,2.9,5.3,3.4,8.6,3.2c0.5,0,0.9-0.1,1.4-0.1
				c1.1-0.1,2.1-0.4,3-1c0.5-0.3,0.9-0.6,1.3-0.9C20,15.6,20.9,13.5,20.7,11.4z"/>
			<path id="XMLID_9_" class="st3" d="M20.3,9.4c-1.1-3.8-4.5-7.6-8.7-7.1c-0.4,0.1-0.9,0.1-1.3,0.3c-3.5,1.1-6.4,4.4-7,8
				c0,0,2,2.9,8.7,2.8c6.7-0.1,8.5-3.2,8.5-3.2C20.5,9.9,20.4,9.7,20.3,9.4z"/>
		</g>
		<path id="XMLID_10_" class="st3" d="M10.7,1.6c0.1-0.3,0.4-0.5,0.7-0.6c0.1,0,0.3,0,0.4,0c0.1,0,0.1,0.1,0.2,0.2
			c0.2,0.2,0.3,0.5,0.3,0.7c0.1-0.4,0.4-0.6,0.7-0.8c0.3-0.2,0.6-0.3,0.9-0.2c0.1,0,0.1,0.1,0.2,0.2c0,0.1,0,0.1,0,0.2
			c0,0.2-0.1,0.5-0.3,0.6c0.3-0.4,0.9-0.5,1.3-0.4c0.2,0,0.4,0.2,0.5,0.4c0,0.1,0,0.3-0.1,0.4c-0.2,0.4-0.7,0.7-1.2,0.9
			c-0.5,0.2-1,0.2-1.6,0.3c-0.4,0.1-0.7,0.2-1.1,0C11.5,3.3,11.3,3,11,2.8C10.7,2.5,10.5,2,10.7,1.6z"/>
		<path id="XMLID_8_" class="st4" d="M16.1,6.4c-0.5,0.1-0.9,0.2-1.3,0.5c-1,0.8-1.6,2.2-1.4,3.5c0.2,1.1,1.2,2.2,2.3,2.1
			c2-0.1,4-2.9,3-4.8C18.2,6.8,17.2,6.3,16.1,6.4z"/>
		<path id="XMLID_7_" d="M16.3,7.7c-0.6,0.2-1.2,0.6-1.5,1.1c-0.1,0.2-0.7,1.3-0.1,1.1c0.1,0,0.3-0.4,0.4-0.5
			c0.1-0.2,0.3-0.3,0.5-0.4c0.3-0.2,0.8-0.3,1.2-0.2c0.2,0.1,0.5,0.2,0.6,0.5c0.1,0.2,0,1,0.3,1c0.2,0,0.3-0.3,0.4-0.4
			c0.1-0.4,0.1-1-0.1-1.4C17.6,7.9,17,7.5,16.3,7.7z"/>
		<path id="XMLID_6_" class="st4" d="M7.8,6.3c0.4,0,0.8,0.2,1.2,0.5c0.9,0.7,1.4,2,1.2,3.1c-0.1,0.9-1,2-2.1,1.9
			c-1.8-0.1-3.6-2.6-2.7-4.3C6,6.6,6.9,6.2,7.8,6.3z"/>
		<path id="XMLID_5_" d="M7.7,7.5c0.5,0.1,1.1,0.5,1.4,1c0.1,0.1,0.6,1.1,0.1,1C9,9.5,8.9,9.2,8.8,9.1C8.7,8.9,8.6,8.8,8.4,8.7
			c-0.3-0.2-0.7-0.3-1-0.2C7.2,8.6,7,8.7,6.9,8.9c-0.1,0.2,0,0.9-0.3,0.9c-0.2,0-0.3-0.2-0.3-0.4C6.1,9.1,6.1,8.6,6.3,8.3
			C6.5,7.7,7.1,7.3,7.7,7.5z"/>
	</g>
	<path id="XMLID_24_" class="st0" d="M11.8,3.8l-1.7,2.5c-0.1,0.2,0,0.5,0.3,0.5l3,0.2c0.3,0,0.5-0.3,0.3-0.5l-1.3-2.7
		C12.3,3.6,12,3.6,11.8,3.8z M12.2,5l0.5,1c0,0.1,0,0.2-0.1,0.2l-1.1-0.1c-0.1,0-0.2-0.1-0.1-0.2L12,4.9C12,4.8,12.1,4.9,12.2,5z"/>
</g>
<text id="XMLID_1_" transform="matrix(1 0 0 1 25.5049 16.346)" class="st1 st5 st6">HỌC SĨ</text>
</svg>
