<?xml version="1.0" encoding="utf-8"?>
<!-- Generator: Adobe Illustrator 19.0.0, SVG Export Plug-In . SVG Version: 6.00 Build 0)  -->
<svg version="1.1" id="Layer_1" xmlns="http://www.w3.org/2000/svg" xmlns:xlink="http://www.w3.org/1999/xlink" x="0px" y="0px"
	 viewBox="0 0 820.3 151.5" style="enable-background:new 0 0 820.3 151.5;" xml:space="preserve">
<style type="text/css">
	.st0{fill:#FFFFFF;}
	.st1{fill:none;}
	.st2{fill:#FF7300;}
</style>
<g id="XMLID_1_">
	<path id="XMLID_2_" class="st0" d="M0,25.1h68v23.4H28.5v17.6h34.9v24.2H28.5v43.3H0V25.1z"/>
	<path id="XMLID_4_" class="st0" d="M116.9,90.3c0,7.8,6.4,14.2,14.2,14.2c7.8,0,14.2-6.4,14.2-14.2V25.1h28.6v65.7
		c0,23.9-19.2,42.8-42.8,42.8c-23.9,0-42.8-19-42.8-42.8V25.1h28.6V90.3z"/>
	<path id="XMLID_6_" class="st0" d="M275.3,133.6l-51.2-51.4v51.4h-28.5V25.1h11.6l51.4,51.2V25.1H287v108.5H275.3z"/>
	<path id="XMLID_8_" class="st0" d="M348.8,58.4c0-4.5-3.8-8.2-8.2-8.2c-4.5,0-8.1,3.8-8.1,8.2s3.6,8.1,8.1,8.1
		c10.6,0,20.1,5.1,26.2,12.9c4.6,5.8,7.2,13,7.2,21c0,18.5-14.9,33.3-33.4,33.3s-33.4-14.6-33.4-33.7h25.3c0,4.6,3.6,8.2,8.1,8.2
		c4.5,0,8.2-3.6,8.2-8.1c0-4.5-3.8-8.2-8.2-8.2c-18.5,0-33.3-14.8-33.3-33.3s14.8-33.4,33.3-33.4S374,39.8,374,58.4H348.8z"/>
	<path id="XMLID_10_" class="st0" d="M391.9,24.9h85.5v28.4h-28.8v80.3h-28.5V53.3h-28.2V24.9z"/>
	<path id="XMLID_12_" class="st0" d="M690.2,133.6l-16.8-28.8h-17.7v28.8h-28.5V25.1H673C695,25.1,713,43,713,65
		c0,11.6-5.1,22-12.9,29.2l23,39.3H690.2z M655.8,80.2h17.7c8.7,0,15.6-6.8,15.6-15.5c0-8.7-6.9-15.6-15.6-15.6h-17.7V80.2z"/>
	<path id="XMLID_15_" class="st0" d="M734.8,24.9h85.5v28.4h-28.8v80.3H763V53.3h-28.2V24.9z"/>
</g>
<g id="XMLID_91_">
	<path id="XMLID_137_" class="st1" d="M578,54.7l37.9,65.6c0.1,0.2,0.2,0.3,0.3,0.5h0l-56.4-97.7L578,54.7L578,54.7z"/>
	<polygon id="XMLID_136_" class="st2" points="492.4,137.6 492.4,137.6 492.4,137.6 	"/>
	<path id="XMLID_130_" class="st2" d="M530.9,73.2l-18.2-31.4l-34.4,59.5l-18.3,31.6l-10.8,18.7h14.8c13.3,0,25.7-7.1,32.4-18.7
		l36.1,0v-31.6h-17.8L530.9,73.2z M492.4,137.6L492.4,137.6L492.4,137.6L492.4,137.6z"/>
	<polygon id="XMLID_129_" class="st2" points="552.7,73.8 559.9,86.1 561.5,89 561.5,89 	"/>
	<polygon id="XMLID_128_" class="st2" points="523.5,23.1 552.7,73.8 541.6,54.6 	"/>
	<path id="XMLID_127_" class="st2" d="M616.1,120.8c-0.1-0.2-0.2-0.3-0.3-0.5L578,54.7l-0.1-0.1l-18.2-31.5L573.1,0h-9.6
		c-16.5,0-31.8,8.8-40.1,23.1v0l18.2,31.4l11.1,19.2l8.8,15.2v0l7.1,12.3h-17.5v31.5h8.7h27h21.9
		C614.9,132.7,618.8,126.2,616.1,120.8z"/>
</g>
</svg>
