<?xml version="1.0" encoding="utf-8"?>
<!-- Generator: Adobe Illustrator 19.0.0, SVG Export Plug-In . SVG Version: 6.00 Build 0)  -->
<svg version="1.1" id="Layer_1" xmlns="http://www.w3.org/2000/svg" xmlns:xlink="http://www.w3.org/1999/xlink" x="0px" y="0px"
	 viewBox="0 0 170.9 170.9" style="enable-background:new 0 0 170.9 170.9;" xml:space="preserve">
<style type="text/css">
	.st0{fill:url(#SVGID_1_);}
</style>
<linearGradient id="SVGID_1_" gradientUnits="userSpaceOnUse" x1="84.6465" y1="15.9679" x2="84.6465" y2="156.7951">
	<stop  offset="0" style="stop-color:#FCBC00"/>
	<stop  offset="1" style="stop-color:#F6A000"/>
</linearGradient>
<path class="st0" d="M127.5,156.8c-1.5,0-3.3-0.5-5.1-1.5l-37.7-19.8L47,155.3c-1.9,1-3.7,1.5-5.1,1.5c-1.4,0-2.6-0.5-3.4-1.4
	c-1.2-1.4-1.6-3.9-1.1-7l7.2-42L14.1,76.7c-2.6-2.6-3.8-5.2-3.1-7.2c0.7-2,3.1-3.5,6.7-4l42.1-6.1l18.8-38.2
	c1.6-3.3,3.8-5.2,5.9-5.2c2.1,0,4.3,1.9,5.9,5.2l18.8,38.2l42.1,6.1c3.6,0.5,6.1,2,6.7,4c0.7,2-0.5,4.6-3.1,7.2l-30.5,29.7l7.2,42
	c0.5,3.1,0.2,5.6-1.1,7C130,156.3,128.9,156.8,127.5,156.8L127.5,156.8z"/>
</svg>
